  0
SECTION
  2
HEADER
  9
$ACADVER
  1
AC1009
  9
$INSBASE
 10
0.0
 20
0.0
 30
0.0
  9
$EXTMIN
 10
-362.0548004014477783
 20
0.1112437238943375
 30
0.0
  9
$EXTMAX
 10
586.7633015006821324
 20
864.564641026767049
 30
0.0
  9
$LIMMIN
 10
0.0
 20
0.0
  9
$LIMMAX
 10
12.0
 20
9.0
  9
$ORTHOMODE
 70
     0
  9
$REGENMODE
 70
     1
  9
$FILLMODE
 70
     1
  9
$QTEXTMODE
 70
     0
  9
$MIRRTEXT
 70
     0
  9
$DRAGMODE
 70
     2
  9
$LTSCALE
 40
1.0
  9
$OSMODE
 70
   293
  9
$ATTMODE
 70
     1
  9
$TEXTSIZE
 40
1.0
  9
$TRACEWID
 40
0.05
  9
$TEXTSTYLE
  7
STANDARD
  9
$CLAYER
  8
GASKETS_WATERPIMP
  9
$CELTYPE
  6
BYLAYER
  9
$CECOLOR
 62
   256
  9
$DIMSCALE
 40
1.0
  9
$DIMASZ
 40
0.18
  9
$DIMEXO
 40
0.0625
  9
$DIMDLI
 40
0.38
  9
$DIMRND
 40
0.0
  9
$DIMDLE
 40
0.0
  9
$DIMEXE
 40
0.18
  9
$DIMTP
 40
0.0
  9
$DIMTM
 40
0.0
  9
$DIMTXT
 40
10.0
  9
$DIMCEN
 40
0.09
  9
$DIMTSZ
 40
0.0
  9
$DIMTOL
 70
     0
  9
$DIMLIM
 70
     0
  9
$DIMTIH
 70
     1
  9
$DIMTOH
 70
     1
  9
$DIMSE1
 70
     0
  9
$DIMSE2
 70
     0
  9
$DIMTAD
 70
     0
  9
$DIMZIN
 70
     0
  9
$DIMBLK
  1

  9
$DIMASO
 70
     1
  9
$DIMSHO
 70
     1
  9
$DIMPOST
  1

  9
$DIMAPOST
  1

  9
$DIMALT
 70
     0
  9
$DIMALTD
 70
     2
  9
$DIMALTF
 40
25.3999999999999986
  9
$DIMLFAC
 40
1.0
  9
$DIMTOFL
 70
     0
  9
$DIMTVP
 40
0.0
  9
$DIMTIX
 70
     0
  9
$DIMSOXD
 70
     0
  9
$DIMSAH
 70
     0
  9
$DIMBLK1
  1

  9
$DIMBLK2
  1

  9
$DIMSTYLE
  2
COPY_OF_STANDARD
  9
$DIMCLRD
 70
     0
  9
$DIMCLRE
 70
     0
  9
$DIMCLRT
 70
     0
  9
$DIMTFAC
 40
1.0
  9
$DIMGAP
 40
0.09
  9
$LUNITS
 70
     2
  9
$LUPREC
 70
     4
  9
$SKETCHINC
 40
0.1
  9
$FILLETRAD
 40
0.2
  9
$AUNITS
 70
     0
  9
$AUPREC
 70
     0
  9
$MENU
  1
.
  9
$ELEVATION
 40
0.0
  9
$PELEVATION
 40
0.0
  9
$THICKNESS
 40
0.0
  9
$LIMCHECK
 70
     0
  9
$BLIPMODE
 70
     0
  9
$CHAMFERA
 40
0.0
  9
$CHAMFERB
 40
0.0
  9
$SKPOLY
 70
     0
  9
$TDCREATE
 40
2459073.7170254630036652
  9
$TDUPDATE
 40
2459079.7052893522195518
  9
$TDINDWG
 40
0.33375
  9
$TDUSRTIMER
 40
0.33375
  9
$USRTIMER
 70
     1
  9
$ANGBASE
 50
0.0
  9
$ANGDIR
 70
     0
  9
$PDMODE
 70
     0
  9
$PDSIZE
 40
0.0
  9
$PLINEWID
 40
0.0
  9
$COORDS
 70
     1
  9
$SPLFRAME
 70
     0
  9
$SPLINETYPE
 70
     6
  9
$SPLINESEGS
 70
     8
  9
$ATTDIA
 70
     1
  9
$ATTREQ
 70
     1
  9
$HANDLING
 70
     1
  9
$HANDSEED
  5
109A
  9
$SURFTAB1
 70
     6
  9
$SURFTAB2
 70
     6
  9
$SURFTYPE
 70
     6
  9
$SURFU
 70
     6
  9
$SURFV
 70
     6
  9
$UCSNAME
  2

  9
$UCSORG
 10
0.0
 20
0.0
 30
0.0
  9
$UCSXDIR
 10
1.0
 20
0.0
 30
0.0
  9
$UCSYDIR
 10
0.0
 20
1.0
 30
0.0
  9
$PUCSNAME
  2

  9
$PUCSORG
 10
0.0
 20
0.0
 30
0.0
  9
$PUCSXDIR
 10
1.0
 20
0.0
 30
0.0
  9
$PUCSYDIR
 10
0.0
 20
1.0
 30
0.0
  9
$USERI1
 70
     0
  9
$USERI2
 70
     0
  9
$USERI3
 70
     0
  9
$USERI4
 70
     0
  9
$USERI5
 70
     0
  9
$USERR1
 40
0.0
  9
$USERR2
 40
0.0
  9
$USERR3
 40
0.0
  9
$USERR4
 40
0.0
  9
$USERR5
 40
0.0
  9
$WORLDVIEW
 70
     1
  9
$SHADEDGE
 70
     3
  9
$SHADEDIF
 70
    70
  9
$TILEMODE
 70
     1
  9
$MAXACTVP
 70
    64
  9
$PLIMCHECK
 70
     0
  9
$PEXTMIN
 10
0.0
 20
0.0
 30
0.0
  9
$PEXTMAX
 10
0.0
 20
0.0
 30
0.0
  9
$PLIMMIN
 10
0.0
 20
0.0
  9
$PLIMMAX
 10
12.0
 20
9.0
  9
$UNITMODE
 70
     0
  9
$VISRETAIN
 70
     1
  9
$PLINEGEN
 70
     0
  9
$PSLTSCALE
 70
     1
  0
ENDSEC
  0
SECTION
  2
TABLES
  0
TABLE
  2
VPORT
 70
     1
  0
VPORT
  2
*ACTIVE
 70
     0
 10
0.0
 20
0.0
 11
1.0
 21
1.0
 12
161.6556647478950026
 22
542.2616163410914396
 13
0.0
 23
0.0
 14
0.5
 24
0.5
 15
0.5
 25
0.5
 16
-0.0000000000000497
 26
0.0
 36
215.2940369367055951
 17
45.8711223527789116
 27
29.2545278072357213
 37
0.0
 40
1231.9030748489749385
 41
1.2695449241540251
 42
50.0
 43
0.0
 44
0.0
 50
0.0
 51
0.0
 71
     0
 72
  1000
 73
     1
 74
     3
 75
     0
 76
     0
 77
     0
 78
     0
  0
ENDTAB
  0
TABLE
  2
LTYPE
 70
     1
  0
LTYPE
  2
CONTINUOUS
 70
     0
  3
Solid line
 72
    65
 73
     0
 40
0.0
  0
ENDTAB
  0
TABLE
  2
LAYER
 70
     5
  0
LAYER
  2
0
 70
     0
 62
     7
  6
CONTINUOUS
  0
LAYER
  2
GASKET
 70
     0
 62
     1
  6
CONTINUOUS
  0
LAYER
  2
DEFPOINTS
 70
     0
 62
    -7
  6
CONTINUOUS
  0
LAYER
  2
PATH
 70
     0
 62
     7
  6
CONTINUOUS
  0
LAYER
  2
GASKETS_WATERPIMP
 70
     0
 62
     1
  6
CONTINUOUS
  0
ENDTAB
  0
TABLE
  2
STYLE
 70
     2
  0
STYLE
  2
STANDARD
 70
     0
 40
0.0
 41
1.0
 50
0.0
 71
     0
 42
1.0
  3
txt
  4

  0
STYLE
  2
ANNOTATIVE
 70
     0
 40
0.0
 41
1.0
 50
0.0
 71
     0
 42
0.2
  3
txt
  4

  0
ENDTAB
  0
TABLE
  2
VIEW
 70
     4
  0
ENDTAB
  0
TABLE
  2
UCS
 70
     0
  0
ENDTAB
  0
TABLE
  2
APPID
 70
    13
  0
APPID
  2
ACAD
 70
     0
  0
APPID
  2
ACADANNOPO
 70
     0
  0
APPID
  2
ACADANNOTATIVE
 70
     0
  0
APPID
  2
ACAD_DSTYLE_DIMJAG
 70
     0
  0
APPID
  2
ACAD_DSTYLE_DIMTALN
 70
     0
  0
APPID
  2
ACAD_MLEADERVER
 70
     0
  0
APPID
  2
ACAD_NAV_VCDISPLAY
 70
     0
  0
APPID
  2
ADESKUNDERLAYLAYEROVERRIDEDATA
 70
     0
  0
APPID
  2
ACAD_EXEMPT_FROM_CAD_STANDARDS
 70
     0
  0
APPID
  2
ACAECLAYERSTANDARD
 70
     0
  0
APPID
  2
ACCMTRANSPARENCY
 70
     0
  0
APPID
  2
ACAD_DSTYLE_DIMRADIAL_EXTENSION
 70
     0
  0
APPID
  2
ACAD_DSTYLE_DIMBREAK
 70
     0
  0
ENDTAB
  0
TABLE
  2
DIMSTYLE
 70
     3
  0
DIMSTYLE
  2
STANDARD
 70
     0
  3

  4

  5

  6

  7

 40
1.0
 41
0.18
 42
0.0625
 43
0.38
 44
0.18
 45
0.0
 46
0.0
 47
0.0
 48
0.0
140
0.18
141
0.09
142
0.0
143
25.3999999999999986
144
1.0
145
0.0
146
1.0
147
0.09
 71
     0
 72
     0
 73
     1
 74
     1
 75
     0
 76
     0
 77
     0
 78
     0
170
     0
171
     2
172
     0
173
     0
174
     0
175
     0
176
     0
177
     0
178
     0
  0
DIMSTYLE
  2
ANNOTATIVE
 70
     0
  3

  4

  5

  6

  7

 40
0.0
 41
0.18
 42
0.0625
 43
0.38
 44
0.18
 45
0.0
 46
0.0
 47
0.0
 48
0.0
140
0.18
141
0.09
142
0.0
143
25.3999999999999986
144
1.0
145
0.0
146
1.0
147
0.09
 71
     0
 72
     0
 73
     1
 74
     1
 75
     0
 76
     0
 77
     0
 78
     0
170
     0
171
     2
172
     0
173
     0
174
     0
175
     0
176
     0
177
     0
178
     0
  0
DIMSTYLE
  2
COPY_OF_STANDARD
 70
     0
  3

  4

  5

  6

  7

 40
1.0
 41
0.18
 42
0.0625
 43
0.38
 44
0.18
 45
0.0
 46
0.0
 47
0.0
 48
0.0
140
10.0
141
0.09
142
0.0
143
25.3999999999999986
144
1.0
145
0.0
146
1.0
147
0.09
 71
     0
 72
     0
 73
     1
 74
     1
 75
     0
 76
     0
 77
     0
 78
     0
170
     0
171
     2
172
     0
173
     0
174
     0
175
     0
176
     0
177
     0
178
     0
  0
ENDTAB
  0
ENDSEC
  0
SECTION
  2
BLOCKS
  0
BLOCK
  8
0
  2
$MODEL_SPACE
 70
     0
 10
0.0
 20
0.0
 30
0.0
  3
$MODEL_SPACE
  1

  0
ENDBLK
  5
21
  8
0
  0
BLOCK
 67
     1
  8
0
  2
$PAPER_SPACE
 70
     0
 10
0.0
 20
0.0
 30
0.0
  3
$PAPER_SPACE
  1

  0
ENDBLK
  5
76
 67
     1
  8
0
  0
BLOCK
  8
0
  2
BRKLINE
 70
     0
 10
0.0
 20
0.0
 30
0.0
  3
BRKLINE
  1

  0
POLYLINE
  5
4EB
  8
0
 66
     1
 10
0.0
 20
0.0
 30
0.0
  0
VERTEX
  5
103E
  8
0
 10
6.808656731150684
 20
3.5124599417798281
 30
0.0
  0
VERTEX
  5
103F
  8
0
 10
6.558656731150684
 20
4.1993292966434854
 30
0.0
  0
VERTEX
  5
1040
  8
0
 10
6.058656731150684
 20
2.8255905869161722
 30
0.0
  0
VERTEX
  5
1041
  8
0
 10
5.808656731150684
 20
3.5124599417798281
 30
0.0
  0
SEQEND
  5
1042
  8
0
  0
POINT
  5
4EC
  8
DEFPOINTS
 10
6.808656731150684
 20
3.5124599417798281
 30
0.0
  0
POINT
  5
4ED
  8
DEFPOINTS
 10
5.808656731150684
 20
3.5124599417798281
 30
0.0
  0
ENDBLK
  5
4EF
  8
0
  0
BLOCK
  8
0
  2
A$C7B037299
 70
     0
 10
0.0
 20
0.0
 30
0.0
  3
A$C7B037299
  1

  0
CIRCLE
  5
527
  8
GASKET
 10
1.9022296294349621
 20
1.9022296294349661
 30
0.0
 40
1.9022296294349661
  0
ENDBLK
  5
52B
  8
0
  0
BLOCK
  8
0
  2
*D3
 70
     1
 10
0.0
 20
0.0
 30
0.0
  3
*D3
  1

  0
LINE
  5
CDF
  8
GASKET
 62
     0
 10
58.5000000000004476
 20
797.4894521410579955
 30
0.0
 11
58.5000000000004619
 21
857.0127174251298356
 31
0.0
  0
LINE
  5
CE0
  8
GASKET
 62
     0
 10
478.5
 20
797.4894521410579955
 30
0.0
 11
478.5
 21
857.0127174251298356
 31
0.0
  0
LINE
  5
CE1
  8
GASKET
 62
     0
 10
58.6800000000004616
 20
856.8327174251298857
 30
0.0
 11
239.6992223738064922
 21
856.8327174251298857
 31
0.0
  0
LINE
  5
CE2
  8
GASKET
 62
     0
 10
478.3199999999998795
 20
856.8327174251298857
 30
0.0
 11
297.3007776261940194
 21
856.8327174251298857
 31
0.0
  0
SOLID
  5
CE3
  8
GASKET
 62
     0
 10
58.6800000000004616
 20
856.8627174251299721
 30
0.0
 11
58.6800000000004616
 21
856.8027174251300266
 31
0.0
 12
58.5000000000004619
 22
856.8327174251298857
 32
0.0
 13
58.5000000000004619
 23
856.8327174251298857
 33
0.0
  0
SOLID
  5
CE4
  8
GASKET
 62
     0
 10
478.3199999999998795
 20
856.8627174251299721
 30
0.0
 11
478.3199999999998795
 21
856.8027174251300266
 31
0.0
 12
478.5
 22
856.8327174251298857
 32
0.0
 13
478.5
 23
856.8327174251298857
 33
0.0
  0
INSERT
  5
CE5
  8
GASKETS_WATERPIMP
  2
*U15
 10
0.0
 20
0.0
 30
0.0
  0
POINT
  5
CE6
  8
DEFPOINTS
 62
     0
 10
58.5000000000004476
 20
797.4269521410579955
 30
0.0
  0
POINT
  5
CE7
  8
DEFPOINTS
 62
     0
 10
478.5
 20
797.4269521410579955
 30
0.0
  0
POINT
  5
CE8
  8
DEFPOINTS
 62
     0
 10
478.5
 20
856.8327174251298857
 30
0.0
  0
ENDBLK
  5
94E
  8
0
  0
BLOCK
  8
0
  2
*D4
 70
     1
 10
0.0
 20
0.0
 30
0.0
  3
*D4
  1

  0
LINE
  5
CCB
  8
GASKET
 62
     0
 10
15.5625000000000302
 20
370.2108684575520101
 30
0.0
 11
35.6800000000000708
 21
370.2108684575520101
 31
0.0
  0
LINE
  5
CCC
  8
GASKET
 62
     0
 10
15.5624999999999698
 20
73.2108684575522375
 30
0.0
 11
35.6799999999999997
 21
73.2108684575522233
 31
0.0
  0
LINE
  5
CCD
  8
GASKET
 62
     0
 10
35.5000000000000711
 20
370.0308684575520033
 30
0.0
 11
35.5000000000000426
 21
226.9065983347690008
 31
0.0
  0
LINE
  5
CCE
  8
GASKET
 62
     0
 10
35.5
 20
73.3908684575522301
 30
0.0
 11
35.5000000000000426
 21
216.51513858033519
 31
0.0
  0
SOLID
  5
CCF
  8
GASKET
 62
     0
 10
35.4700000000000699
 20
370.0308684575520033
 30
0.0
 11
35.5300000000000722
 21
370.0308684575520033
 31
0.0
 12
35.5000000000000711
 22
370.2108684575520101
 32
0.0
 13
35.5000000000000711
 23
370.2108684575520101
 33
0.0
  0
SOLID
  5
CD0
  8
GASKET
 62
     0
 10
35.4699999999999989
 20
73.3908684575522301
 30
0.0
 11
35.5300000000000011
 21
73.3908684575522301
 31
0.0
 12
35.5
 22
73.2108684575522233
 32
0.0
 13
35.5
 23
73.2108684575522233
 33
0.0
  0
INSERT
  5
CD1
  8
GASKETS_WATERPIMP
  2
*U13
 10
0.0
 20
0.0
 30
0.0
  0
POINT
  5
CD2
  8
DEFPOINTS
 62
     0
 10
15.5000000000000302
 20
370.2108684575520101
 30
0.0
  0
POINT
  5
CD3
  8
DEFPOINTS
 62
     0
 10
15.4999999999999698
 20
73.2108684575522375
 30
0.0
  0
POINT
  5
CD4
  8
DEFPOINTS
 62
     0
 10
35.5
 20
73.2108684575522233
 30
0.0
  0
ENDBLK
  5
9D4
  8
0
  0
BLOCK
  8
0
  2
*D5
 70
     1
 10
0.0
 20
0.0
 30
0.0
  3
*D5
  1

  0
LINE
  5
CD5
  8
GASKET
 62
     0
 10
15.5624999999997993
 20
436.5
 30
0.0
 11
36.6799999999999429
 21
436.5
 31
0.0
  0
LINE
  5
CD6
  8
GASKET
 62
     0
 10
15.5624999999997993
 20
733.4999999999997726
 30
0.0
 11
36.6799999999999997
 21
733.4999999999997726
 31
0.0
  0
LINE
  5
CD7
  8
GASKET
 62
     0
 10
36.4999999999999432
 20
436.6800000000000068
 30
0.0
 11
36.4999999999999716
 21
579.8042701227830094
 31
0.0
  0
LINE
  5
CD8
  8
GASKET
 62
     0
 10
36.5
 20
733.319999999999709
 30
0.0
 11
36.4999999999999716
 21
590.1957298772166496
 31
0.0
  0
SOLID
  5
CD9
  8
GASKET
 62
     0
 10
36.469999999999942
 20
436.6800000000000068
 30
0.0
 11
36.5299999999999372
 21
436.6800000000000068
 31
0.0
 12
36.4999999999999432
 22
436.5
 32
0.0
 13
36.4999999999999432
 23
436.5
 33
0.0
  0
SOLID
  5
CDA
  8
GASKET
 62
     0
 10
36.4699999999999989
 20
733.319999999999709
 30
0.0
 11
36.5300000000000011
 21
733.319999999999709
 31
0.0
 12
36.5
 22
733.4999999999997726
 32
0.0
 13
36.5
 23
733.4999999999997726
 33
0.0
  0
INSERT
  5
CDB
  8
GASKETS_WATERPIMP
  2
*U14
 10
0.0
 20
0.0
 30
0.0
  0
POINT
  5
CDC
  8
DEFPOINTS
 62
     0
 10
15.4999999999997993
 20
436.5
 30
0.0
  0
POINT
  5
CDD
  8
DEFPOINTS
 62
     0
 10
15.4999999999997993
 20
733.4999999999997726
 30
0.0
  0
POINT
  5
CDE
  8
DEFPOINTS
 62
     0
 10
36.5
 20
733.4999999999997726
 30
0.0
  0
ENDBLK
  5
9E2
  8
0
  0
BLOCK
  8
0
  2
*D6
 70
     1
 10
0.0
 20
0.0
 30
0.0
  3
*D6
  1

  0
LINE
  5
CC1
  8
GASKET
 62
     0
 10
59.5375752171623773
 20
370.2003205986093235
 30
0.0
 11
59.5375752171623915
 21
442.5157828649822136
 31
0.0
  0
LINE
  5
CC2
  8
GASKET
 62
     0
 10
479.5375752171610202
 20
370.2003205986093235
 30
0.0
 11
479.5375752171610202
 21
442.5157828649822136
 31
0.0
  0
LINE
  5
CC3
  8
GASKET
 62
     0
 10
59.7175752171623913
 20
442.3357828649823205
 30
0.0
 11
240.7367975909679103
 21
442.3357828649823205
 31
0.0
  0
LINE
  5
CC4
  8
GASKET
 62
     0
 10
479.3575752171610134
 20
442.3357828649823205
 30
0.0
 11
298.3383528433553806
 21
442.3357828649823205
 31
0.0
  0
SOLID
  5
CC5
  8
GASKET
 62
     0
 10
59.7175752171623913
 20
442.3657828649821795
 30
0.0
 11
59.7175752171623913
 21
442.3057828649822909
 31
0.0
 12
59.5375752171623915
 22
442.3357828649823205
 32
0.0
 13
59.5375752171623915
 23
442.3357828649823205
 33
0.0
  0
SOLID
  5
CC6
  8
GASKET
 62
     0
 10
479.3575752171610134
 20
442.3657828649821795
 30
0.0
 11
479.3575752171610134
 21
442.3057828649822909
 31
0.0
 12
479.5375752171610202
 22
442.3357828649823205
 32
0.0
 13
479.5375752171610202
 23
442.3357828649823205
 33
0.0
  0
INSERT
  5
CC7
  8
GASKETS_WATERPIMP
  2
*U12
 10
0.0
 20
0.0
 30
0.0
  0
POINT
  5
CC8
  8
DEFPOINTS
 62
     0
 10
59.5375752171623773
 20
370.1378205986093235
 30
0.0
  0
POINT
  5
CC9
  8
DEFPOINTS
 62
     0
 10
479.5375752171610202
 20
370.1378205986093235
 30
0.0
  0
POINT
  5
CCA
  8
DEFPOINTS
 62
     0
 10
479.5375752171610202
 20
442.3357828649823205
 30
0.0
  0
ENDBLK
  5
B2A
  8
0
  0
BLOCK
  8
0
  2
*D7
 70
     1
 10
0.0
 20
0.0
 30
0.0
  3
*D7
  1

  0
LINE
  5
D8B
  8
GASKET
 62
     0
 10
-194.3752969121150045
 20
733.5624999999996589
 30
0.0
 11
-194.3752969121150045
 21
800.67999999999995
 31
0.0
  0
LINE
  5
D8C
  8
GASKET
 62
     0
 10
15.4999999999997993
 20
733.5624999999996589
 30
0.0
 11
15.4999999999997993
 21
800.67999999999995
 31
0.0
  0
LINE
  5
D8D
  8
GASKET
 62
     0
 10
-194.1952969121149977
 20
800.5
 30
0.0
 11
-118.1395174874354979
 21
800.5
 31
0.0
  0
LINE
  5
D8E
  8
GASKET
 62
     0
 10
15.3199999999997996
 20
800.5
 30
0.0
 11
-60.7357794246796985
 21
800.5
 31
0.0
  0
SOLID
  5
D8F
  8
GASKET
 62
     0
 10
-194.1952969121149977
 20
800.5299999999999727
 30
0.0
 11
-194.1952969121149977
 21
800.4699999999999136
 31
0.0
 12
-194.3752969121150045
 22
800.5
 32
0.0
 13
-194.3752969121150045
 23
800.5
 33
0.0
  0
SOLID
  5
D90
  8
GASKET
 62
     0
 10
15.3199999999997996
 20
800.5299999999999727
 30
0.0
 11
15.3199999999997996
 21
800.4699999999999136
 31
0.0
 12
15.4999999999997993
 22
800.5
 32
0.0
 13
15.4999999999997993
 23
800.5
 33
0.0
  0
INSERT
  5
D91
  8
GASKETS_WATERPIMP
  2
*U16
 10
0.0
 20
0.0
 30
0.0
  0
POINT
  5
D92
  8
DEFPOINTS
 62
     0
 10
-194.3752969121150045
 20
733.4999999999997726
 30
0.0
  0
POINT
  5
D93
  8
DEFPOINTS
 62
     0
 10
15.4999999999997993
 20
733.4999999999997726
 30
0.0
  0
POINT
  5
D94
  8
DEFPOINTS
 62
     0
 10
15.4999999999997993
 20
800.5
 30
0.0
  0
ENDBLK
  5
D8A
  8
0
  0
BLOCK
  8
0
  2
*D8
 70
     1
 10
0.0
 20
0.0
 30
0.0
  3
*D8
  1

  0
LINE
  5
D99
  8
GASKET
 62
     0
 10
-194.3752969121148055
 20
370.2733684575520101
 30
0.0
 11
-194.3752969121148055
 21
410.1799999999998931
 31
0.0
  0
LINE
  5
D9A
  8
GASKET
 62
     0
 10
15.5000000000000302
 20
370.2733684575520101
 30
0.0
 11
15.5000000000000302
 21
410.1799999999998931
 31
0.0
  0
LINE
  5
D9B
  8
GASKET
 62
     0
 10
-194.1952969121147135
 20
410.0
 30
0.0
 11
-118.1395174874351994
 21
410.0
 31
0.0
  0
LINE
  5
D9C
  8
GASKET
 62
     0
 10
15.3200000000000305
 20
410.0
 30
0.0
 11
-60.7357794246794782
 21
410.0
 31
0.0
  0
SOLID
  5
D9D
  8
GASKET
 62
     0
 10
-194.1952969121147135
 20
410.0299999999999159
 30
0.0
 11
-194.1952969121147135
 21
409.9700000000000273
 31
0.0
 12
-194.3752969121148055
 22
410.0
 32
0.0
 13
-194.3752969121148055
 23
410.0
 33
0.0
  0
SOLID
  5
D9E
  8
GASKET
 62
     0
 10
15.3200000000000305
 20
410.0299999999999159
 30
0.0
 11
15.3200000000000305
 21
409.9700000000000273
 31
0.0
 12
15.5000000000000302
 22
410.0
 32
0.0
 13
15.5000000000000302
 23
410.0
 33
0.0
  0
INSERT
  5
D9F
  8
GASKETS_WATERPIMP
  2
*U17
 10
0.0
 20
0.0
 30
0.0
  0
POINT
  5
DA0
  8
DEFPOINTS
 62
     0
 10
-194.3752969121148055
 20
370.2108684575520101
 30
0.0
  0
POINT
  5
DA1
  8
DEFPOINTS
 62
     0
 10
15.5000000000000302
 20
370.2108684575520101
 30
0.0
  0
POINT
  5
DA2
  8
DEFPOINTS
 62
     0
 10
15.5000000000000302
 20
410.0
 30
0.0
  0
ENDBLK
  5
D98
  8
0
  0
BLOCK
  8
0
  2
*D9
 70
     1
 10
0.0
 20
0.0
 30
0.0
  3
*D9
  1

  0
LINE
  5
DB5
  8
GASKET
 62
     0
 10
478.5624893219933256
 20
500.4988447352237131
 30
0.0
 11
539.3256280999066803
 21
499.3754925897492853
 31
0.0
  0
LINE
  5
DB6
  8
GASKET
 62
     0
 10
484.0624893219941214
 20
797.9988447352236562
 30
0.0
 11
544.8256280999077035
 21
796.8754925897495696
 31
0.0
  0
LINE
  5
DB7
  8
GASKET
 62
     0
 10
539.1489860151193625
 20
499.5587889996485842
 30
0.0
 11
541.7996033422289202
 21
642.9330898750886263
 31
0.0
  0
LINE
  5
DB8
  8
GASKET
 62
     0
 10
544.6423316900085183
 20
796.6988505049621381
 30
0.0
 11
541.9917143628990743
 21
653.3245496295224939
 31
0.0
  0
SOLID
  5
DB9
  8
GASKET
 62
     0
 10
539.1189911405622297
 20
499.5593435267413156
 30
0.0
 11
539.178980889676609
 21
499.5582344725560233
 31
0.0
 12
539.1456588525635425
 22
499.3788197523052759
 32
0.0
 13
539.1456588525635425
 23
499.3788197523052759
 33
0.0
  0
SOLID
  5
DBA
  8
GASKET
 62
     0
 10
544.6123368154512718
 20
796.6994050320547558
 30
0.0
 11
544.6723265645656511
 21
796.6982959778694067
 31
0.0
 12
544.645658852564452
 22
796.8788197523053896
 32
0.0
 13
544.645658852564452
 23
796.8788197523053896
 33
0.0
  0
INSERT
  5
DBB
  8
GASKETS_WATERPIMP
  2
*U18
 10
0.0
 20
0.0
 30
0.0
  0
POINT
  5
DBC
  8
DEFPOINTS
 62
     0
 10
478.4999999999990905
 20
500.4999999999998863
 30
0.0
  0
POINT
  5
DBD
  8
DEFPOINTS
 62
     0
 10
483.9999999999998863
 20
798.0000000000001137
 30
0.0
  0
POINT
  5
DBE
  8
DEFPOINTS
 62
     0
 10
544.645658852564452
 20
796.8788197523053896
 30
0.0
  0
ENDBLK
  5
DB4
  8
0
  0
BLOCK
  8
0
  2
*D10
 70
     1
 10
0.0
 20
0.0
 30
0.0
  3
*D10
  1

  0
LINE
  5
DC3
  8
GASKET
 62
     0
 10
479.6000752171610202
 20
370.1378205986093235
 30
0.0
 11
557.6800000000001774
 21
370.1378205986093235
 31
0.0
  0
LINE
  5
DC4
  8
GASKET
 62
     0
 10
479.6000752171609065
 20
73.2108684575522375
 30
0.0
 11
557.67999999999995
 21
73.2108684575522091
 31
0.0
  0
LINE
  5
DC5
  8
GASKET
 62
     0
 10
557.5000000000001137
 20
369.9578205986093167
 30
0.0
 11
557.5
 21
226.8700744052976006
 31
0.0
  0
LINE
  5
DC6
  8
GASKET
 62
     0
 10
557.5
 20
73.3908684575522159
 30
0.0
 11
557.5
 21
216.4786146508637898
 31
0.0
  0
SOLID
  5
DC7
  8
GASKET
 62
     0
 10
557.470000000000141
 20
369.9578205986093167
 30
0.0
 11
557.5300000000000864
 21
369.9578205986093167
 31
0.0
 12
557.5000000000001137
 22
370.1378205986093235
 32
0.0
 13
557.5000000000001137
 23
370.1378205986093235
 33
0.0
  0
SOLID
  5
DC8
  8
GASKET
 62
     0
 10
557.4699999999999136
 20
73.3908684575522159
 30
0.0
 11
557.529999999999859
 21
73.3908684575522159
 31
0.0
 12
557.5
 22
73.2108684575522091
 32
0.0
 13
557.5
 23
73.2108684575522091
 33
0.0
  0
INSERT
  5
DC9
  8
GASKETS_WATERPIMP
  2
*U19
 10
0.0
 20
0.0
 30
0.0
  0
POINT
  5
DCA
  8
DEFPOINTS
 62
     0
 10
479.5375752171610202
 20
370.1378205986093235
 30
0.0
  0
POINT
  5
DCB
  8
DEFPOINTS
 62
     0
 10
479.5375752171609065
 20
73.2108684575522375
 30
0.0
  0
POINT
  5
DCC
  8
DEFPOINTS
 62
     0
 10
557.5
 20
73.2108684575522091
 30
0.0
  0
ENDBLK
  5
DC2
  8
0
  0
BLOCK
  8
0
  2
*D11
 70
     1
 10
0.0
 20
0.0
 30
0.0
  3
*D11
  1

  0
LINE
  5
F4E
  8
DEFPOINTS
 62
     0
 10
-95.9240442406100868
 20
716.8865398524859529
 30
0.0
 11
-99.3548032633142242
 21
731.5333887977141103
 31
0.0
  0
LINE
  5
F4F
  8
DEFPOINTS
 62
     0
 10
-175.1828327464270103
 20
709.6416346917593501
 30
0.0
 11
-176.0999875963775878
 21
713.5572196855495122
 31
0.0
  0
LINE
  5
F50
  8
DEFPOINTS
 62
     0
 10
-99.489009108333164
 20
731.3170816291718666
 30
0.0
 11
-137.1538959277023082
 21
722.49476422985299
 31
0.0
  0
LINE
  5
F51
  8
DEFPOINTS
 62
     0
 10
-175.8836804278354009
 20
713.4230138405306434
 30
0.0
 11
-138.2187936084661999
 21
722.24533123984952
 31
0.0
  0
SOLID
  5
F52
  8
DEFPOINTS
 62
     0
 10
-99.4958508852934216
 20
731.3462910469686449
 30
0.0
 11
-99.4821673313728638
 21
731.2878722113750882
 31
0.0
 12
-99.3137526015525651
 22
731.358132290933554
 32
0.0
 13
-99.3137526015525651
 23
731.358132290933554
 33
0.0
  0
SOLID
  5
F53
  8
DEFPOINTS
 62
     0
 10
-175.8905222047957011
 20
713.4522232583274217
 30
0.0
 11
-175.8768386508751007
 21
713.3938044227337514
 31
0.0
 12
-176.058936934616014
 22
713.3819631787689559
 32
0.0
 13
-176.058936934616014
 23
713.3819631787689559
 33
0.0
  0
INSERT
  5
F54
  8
GASKETS_WATERPIMP
  2
*U20
 10
0.0
 20
0.0
 30
0.0
  0
POINT
  5
F55
  8
DEFPOINTS
 62
     0
 10
-95.9097905386094993
 20
716.8256868987427879
 30
0.0
  0
POINT
  5
F56
  8
DEFPOINTS
 62
     0
 10
-175.1685790444263944
 20
709.5807817380162987
 30
0.0
  0
POINT
  5
F57
  8
DEFPOINTS
 62
     0
 10
-176.058936934616014
 20
713.3819631787689559
 30
0.0
  0
ENDBLK
  5
EFD
  8
0
  0
BLOCK
  8
0
  2
*U12
 70
     1
 10
0.0
 20
0.0
 30
0.0
  3
*U12
  1

  0
TEXT
  5
104E
  8
GASKET
 62
     0
 10
240.649444248539595
 20
437.4210488949959199
 30
0.0
 40
10.0
  1
420.0000
  0
ENDBLK
  5
1050
  8
0
  0
BLOCK
  8
0
  2
*U13
 70
     1
 10
0.0
 20
0.0
 30
0.0
  3
*U13
  1

  0
TEXT
  5
1052
  8
GASKET
 62
     0
 10
6.495907230559343
 20
216.7961344875658085
 30
0.0
 40
10.0
  1
297.0000
  0
ENDBLK
  5
1054
  8
0
  0
BLOCK
  8
0
  2
*U14
 70
     1
 10
0.0
 20
0.0
 30
0.0
  3
*U14
  1

  0
TEXT
  5
1056
  8
GASKET
 62
     0
 10
7.495907230559216
 20
580.0852660300135994
 30
0.0
 40
10.0
  1
297.0000
  0
ENDBLK
  5
1058
  8
0
  0
BLOCK
  8
0
  2
*U15
 70
     1
 10
0.0
 20
0.0
 30
0.0
  3
*U15
  1

  0
TEXT
  5
105A
  8
GASKET
 62
     0
 10
239.6118690313780917
 20
851.9179834551437125
 30
0.0
 40
10.0
  1
420.0000
  0
ENDBLK
  5
105C
  8
0
  0
BLOCK
  8
0
  2
*U16
 70
     1
 10
0.0
 20
0.0
 30
0.0
  3
*U16
  1

  0
TEXT
  5
105E
  8
GASKET
 62
     0
 10
-118.4587944315010049
 20
795.5886766712142162
 30
0.0
 40
10.0
  1
209.8753
  0
ENDBLK
  5
1060
  8
0
  0
BLOCK
  8
0
  2
*U17
 70
     1
 10
0.0
 20
0.0
 30
0.0
  3
*U17
  1

  0
TEXT
  5
1062
  8
GASKET
 62
     0
 10
-118.4587944315007064
 20
405.0886766712141025
 30
0.0
 40
10.0
  1
209.8753
  0
ENDBLK
  5
1064
  8
0
  0
BLOCK
  8
0
  2
*U18
 70
     1
 10
0.0
 20
0.0
 30
0.0
  3
*U18
  1

  0
TEXT
  5
1066
  8
GASKET
 62
     0
 10
512.8642809535190281
 20
643.2140857823192164
 30
0.0
 40
10.0
  1
297.5508
  0
ENDBLK
  5
1068
  8
0
  0
BLOCK
  8
0
  2
*U19
 70
     1
 10
0.0
 20
0.0
 30
0.0
  3
*U19
  1

  0
TEXT
  5
106A
  8
GASKET
 62
     0
 10
528.4959072305593963
 20
216.7596105580944936
 30
0.0
 40
10.0
  1
296.9270
  0
ENDBLK
  5
106C
  8
0
  0
BLOCK
  8
0
  2
*U20
 70
     1
 10
0.0
 20
0.0
 30
0.0
  3
*U20
  1

  0
TEXT
  5
1097
  8
DEFPOINTS
 62
     0
 10
-138.1407035675385089
 20
722.2815825233915348
 30
0.0
 40
0.18
  1
78.8224
  0
ENDBLK
  5
1099
  8
0
  0
ENDSEC
  0
SECTION
  2
ENTITIES
  0
CIRCLE
  5
274
  8
GASKET
 10
-76.2052068233302862
 20
552.978155537188627
 30
0.0
 40
54.7334625705850826
  0
ARC
  5
279
  8
GASKET
 10
-40.8252696677733411
 20
608.5998317965909337
 30
0.0
 40
13.2062707838479803
 50
349.5301035753759038
 51
128.0045094825055969
  0
ARC
  5
280
  8
GASKET
 10
-6.8597559127307441
 20
549.7333479233348044
 30
0.0
 40
10.9205700712589096
 50
277.5094080442236759
 51
92.6688057170498212
  0
POINT
  5
282
  8
GASKET
 10
-33.689891111341133
 20
619.7125254787151789
 30
0.0
  0
POINT
  5
283
  8
GASKET
 10
-46.3210174770566709
 20
620.608259838307049
 30
0.0
  0
POINT
  5
284
  8
GASKET
 10
-53.8993786518564093
 20
610.4635008360482971
 30
0.0
  0
POINT
  5
285
  8
GASKET
 10
-49.4574643210329512
 20
598.6052931136623556
 30
0.0
  0
POINT
  5
286
  8
GASKET
 10
-37.0791500354076788
 20
595.9360181641844747
 30
0.0
  0
POINT
  5
287
  8
GASKET
 10
-28.1450008636635403
 20
604.9097950661722507
 30
0.0
  0
ARC
  5
289
  8
GASKET
 10
-53.9622641023103071
 20
633.2734571847587404
 30
0.0
 40
15.1201771904638793
 50
246.2140927356549014
 51
289.3327137114923744
  0
POLYLINE
  5
28A
  8
GASKET
 66
     1
 10
0.0
 20
0.0
 30
0.0
  0
VERTEX
  5
1017
  8
GASKET
 10
-148.0897456994636059
 20
613.1185189126080104
 30
0.0
  0
VERTEX
  5
1018
  8
GASKET
 10
-135.2437201198287084
 20
612.0384158179770111
 30
0.0
 42
-0.3169746209345254
  0
VERTEX
  5
1019
  8
GASKET
 10
-130.7324187744702897
 20
606.9922994838267414
 30
0.0
  0
VERTEX
  5
101A
  8
GASKET
 10
-130.1665374206027934
 20
598.5325808014414406
 30
0.0
 42
-0.0742142498338669
  0
VERTEX
  5
101B
  8
GASKET
 10
-130.2884160874085069
 20
597.0379650544571177
 30
0.0
 42
-0.0669909860551179
  0
VERTEX
  5
101C
  8
GASKET
 10
-131.6090148943434031
 20
593.5643484362207118
 30
0.0
 42
0.095536673685175
  0
VERTEX
  5
101D
  8
GASKET
 10
-142.6539497893020894
 20
570.0985786973292306
 30
0.0
 42
-0.2624916318908517
  0
VERTEX
  5
101E
  8
GASKET
 10
-148.0628745025773014
 20
561.5112354144829396
 30
0.0
 42
0.7915254862706825
  0
VERTEX
  5
101F
  8
GASKET
 10
-148.6637751316100946
 20
540.5048074412864025
 30
0.0
  0
SEQEND
  5
1020
  8
GASKET
  0
ARC
  5
295
  8
GASKET
 10
-20.2192543353811516
 20
523.7359302240096213
 30
0.0
 40
10.9205700712589096
 50
281.2439645140066204
 51
30.2970242793842388
  0
ARC
  5
29D
  8
GASKET
 10
-33.2320258615651483
 20
499.6300001602244834
 30
0.0
 40
10.9205700712589096
 50
306.0469556490845093
 51
22.0342511443831093
  0
ARC
  5
2A1
  8
GASKET
 10
-4.5364099397642077
 20
532.1081474234403004
 30
0.0
 40
6.8571021377672219
 50
97.5094080442237896
 51
208.0953321935926112
  0
POLYLINE
  5
2A2
  8
GASKET
 66
     1
 10
0.0
 20
0.0
 30
0.0
  0
VERTEX
  5
1021
  8
GASKET
 10
-7.3682461056192743
 20
560.6420732569861229
 30
0.0
 42
0.1407679094336797
  0
VERTEX
  5
1022
  8
GASKET
 10
-22.3089844598160809
 20
595.8944067500342499
 30
0.0
 42
-0.3072669855307293
  0
VERTEX
  5
1023
  8
GASKET
 10
-27.8388764308191412
 20
606.2000029044605753
 30
0.0
  0
SEQEND
  5
1024
  8
GASKET
  0
POLYLINE
  5
2A3
  8
GASKET
 66
     1
 10
0.0
 20
0.0
 30
0.0
  0
VERTEX
  5
1025
  8
GASKET
 10
-10.7901965845093102
 20
529.2451697915024624
 30
0.0
 42
0.000108545248889
  0
VERTEX
  5
1026
  8
GASKET
 10
-10.7802102847091401
 20
529.2735739140375699
 30
0.0
  0
SEQEND
  5
1027
  8
GASKET
  0
ARC
  5
2A4
  8
GASKET
 10
-16.7528392596001297
 20
506.2994857557706041
 30
0.0
 40
6.8571021377672219
 50
101.2439645140066062
 51
202.0342511443847968
  0
LINE
  5
2AE
  8
GASKET
 10
-26.8058374899054499
 20
490.8003368771077248
 30
0.0
 11
-120.317823460145803
 21
487.1794447472714182
 31
0.0
  0
ARC
  5
2B0
  8
GASKET
 10
-115.7554965893474019
 20
499.3965090933775741
 30
0.0
 40
13.0411459509089607
 50
164.7568056415721003
 51
249.522412865700602
  0
POLYLINE
  5
2B1
  8
GASKET
 66
     1
 10
0.0
 20
0.0
 30
0.0
  0
VERTEX
  5
1028
  8
GASKET
 10
-101.9964712965681031
 20
487.8888686694428998
 30
0.0
 42
0.0021166762356003
  0
VERTEX
  5
1029
  8
GASKET
 10
-101.4505454808374054
 20
487.6728117714541213
 30
0.0
  0
SEQEND
  5
102A
  8
GASKET
  0
ARC
  5
2B2
  8
GASKET
 10
-131.3337158197597034
 20
520.1859020910751497
 30
0.0
 40
10.6106474056309192
 50
147.8509522954865929
 51
261.8309062782482783
  0
ARC
  5
2B5
  8
GASKET
 10
-133.6192658666080888
 20
504.2644520745839145
 30
0.0
 40
5.4740132884677148
 50
344.7568056415719866
 51
81.8309062782483494
  0
ARC
  5
2B9
  8
GASKET
 10
-150.3869477677122859
 20
532.5687360008705582
 30
0.0
 40
8.1209946337376309
 50
14.1256819150276502
 51
77.7494303753670692
  0
ARC
  5
2BC
  8
GASKET
 10
-149.955115745076796
 20
526.9896519296823953
 30
0.0
 40
9.7069864793795837
 50
353.1510834717618081
 51
24.1758449951685392
  0
LINE
  5
2BD
  8
GASKET
 10
-141.0995013630314077
 20
530.965036241591406
 30
0.0
 11
-142.5115099117689113
 21
534.5506624420812614
 31
0.0
  0
POLYLINE
  5
2C9
  8
GASKET
 66
     1
 10
0.0
 20
0.0
 30
0.0
 70
     1
  0
VERTEX
  5
102B
  8
GASKET
 10
-147.2990917823348127
 20
638.8762214729680409
 30
0.0
  0
VERTEX
  5
102C
  8
GASKET
 10
-74.0046197834377608
 20
642.1245550923773635
 30
0.0
 42
-0.4546453837051775
  0
VERTEX
  5
102D
  8
GASKET
 10
-71.2432595619176254
 20
639.0958482614455534
 30
0.0
  0
VERTEX
  5
102E
  8
GASKET
 10
-70.7534472109040138
 20
622.46643614612276
 30
0.0
 42
-0.4804380319666347
  0
VERTEX
  5
102F
  8
GASKET
 10
-73.6828611152171788
 20
619.4003605618152051
 30
0.0
  0
VERTEX
  5
1030
  8
GASKET
 10
-92.7617441084011034
 20
619.4517135518971145
 30
0.0
 42
0.0887816974987754
  0
VERTEX
  5
1031
  8
GASKET
 10
-94.9114234449865535
 20
618.9315759936115455
 30
0.0
  0
VERTEX
  5
1032
  8
GASKET
 10
-103.6667625388999028
 20
615.1229374401724499
 30
0.0
 42
-0.1308614451570488
  0
VERTEX
  5
1033
  8
GASKET
 10
-109.4170806530255931
 20
615.0544991772070489
 30
0.0
  0
VERTEX
  5
1034
  8
GASKET
 10
-115.477268514695993
 20
616.6153174371758041
 30
0.0
 42
0.0133574045134471
  0
VERTEX
  5
1035
  8
GASKET
 10
-117.5062737072485959
 20
616.784361932375873
 30
0.0
  0
VERTEX
  5
1036
  8
GASKET
 10
-147.9828510098614913
 20
618.8157115473667318
 30
0.0
 42
-0.4782667192460138
  0
VERTEX
  5
1037
  8
GASKET
 10
-149.5420015850093876
 20
621.0558068984479405
 30
0.0
  0
VERTEX
  5
1038
  8
GASKET
 10
-150.1149866882911965
 20
636.1321322200176382
 30
0.0
 42
-0.5160659962761731
  0
SEQEND
  5
1039
  8
GASKET
  0
LINE
  5
2D2
  8
GASKET
 10
-148.0897456994636059
 20
613.1185189126080104
 30
0.0
 11
-150.9427527303531065
 21
614.0353293426276196
 31
0.0
  0
ARC
  5
2D4
  8
GASKET
 10
-148.1781843249777069
 20
621.2964295662344512
 30
0.0
 40
7.7695826738160978
 50
209.6878305154633892
 51
249.1563268707145085
  0
ARC
  5
2E6
  8
GASKET
 10
-155.6474062495045132
 20
627.9535656131713495
 30
0.0
 40
7.009234472216356
 50
110.7593518836364979
 51
246.4876395189257039
  0
ARC
  5
2E9
  8
GASKET
 10
-162.8151918055799001
 20
614.2028273656679858
 30
0.0
 40
8.5289349298817676
 50
22.3666106898767403
 51
59.1664196933377724
  0
ARC
  5
2EB
  8
GASKET
 10
-159.9321231141499027
 20
639.2573132777491765
 30
0.0
 40
5.0793349168646094
 50
290.7593518836364979
 51
354.1382195300221269
  0
ARC
  5
2ED
  8
GASKET
 10
-148.5377160784576915
 20
638.087497209779599
 30
0.0
 40
6.3749647704980781
 50
91.42025652915666
 51
174.1382195300220985
  0
LINE
  5
2EE
  8
GASKET
 10
-75.558988969077177
 20
647.9404922852053232
 30
0.0
 11
-148.695723495865991
 21
644.460503524003343
 31
0.0
  0
LINE
  5
2F2
  8
GASKET
 10
-65.1530753075170423
 20
637.7887933441545556
 30
0.0
 11
-64.6446184051500268
 21
626.2729793327665675
 31
0.0
  0
ARC
  5
2F4
  8
GASKET
 10
-76.3879216001793111
 20
636.6817052274936941
 30
0.0
 40
11.2892610616373492
 50
5.627789756939916
 51
85.7891732426541296
  0
ARC
  5
2F5
  8
GASKET
 10
-58.4146729157975031
 20
625.4962114999798359
 30
0.0
 40
6.2781835801732111
 50
172.8928718550461952
 51
254.801959204495688
  0
CIRCLE
  5
2F6
  8
GASKET
 10
-156.2099259462252974
 20
628.0584863677797784
 30
0.0
 40
3.7016684941107001
  0
CIRCLE
  5
2FE
  8
GASKET
 10
-117.2811475160737018
 20
605.6465364940478366
 30
0.0
 40
5.9835361172502122
  0
CIRCLE
  5
306
  8
GASKET
 10
-41.0940008160260888
 20
608.2494778764328203
 30
0.0
 40
5.9835361172502122
  0
CIRCLE
  5
30E
  8
GASKET
 10
-6.2059314571175683
 20
549.4497048823553769
 30
0.0
 40
4.2918274450452687
  0
CIRCLE
  5
316
  8
GASKET
 10
-19.6659975237574791
 20
523.9410160320678642
 30
0.0
 40
4.2918274450452687
  0
CIRCLE
  5
31E
  8
GASKET
 10
-36.5391205235617917
 20
500.1357679826505773
 30
0.0
 40
6.033078468844133
  0
CIRCLE
  5
326
  8
GASKET
 10
-115.1340764078799026
 20
499.6653406537664068
 30
0.0
 40
6.033078468844133
  0
CIRCLE
  5
32E
  8
GASKET
 10
-131.2938808586980883
 20
520.1732851599739433
 30
0.0
 40
4.2611490117339139
  0
CIRCLE
  5
336
  8
GASKET
 10
-146.3192136794212956
 20
550.4769038363624531
 30
0.0
 40
4.2611490117339139
  0
ARC
  5
33E
  8
GASKET
 10
111.9867748953534061
 20
296.9021992238708094
 30
0.0
 40
7.0149368183732932
 50
140.5172417177348905
 51
277.4679311306308023
  0
ARC
  5
33F
  8
GASKET
 10
150.5283734238558111
 20
317.6148336529598737
 30
0.0
 40
44.4831261792505188
 50
221.0536811084591022
 51
245.2903851855218988
  0
ARC
  5
340
  8
GASKET
 10
102.5547856575641958
 20
304.6725652821493213
 30
0.0
 40
5.2055791143284686
 50
320.5172417177349189
 51
15.0977745096267206
  0
ARC
  5
341
  8
GASKET
 10
113.4991277448389013
 20
285.3648424548655953
 30
0.0
 40
4.621119745456733
 50
41.0536811084547821
 51
97.4679311306307881
  0
ARC
  5
349
  8
GASKET
 10
134.0816626048990088
 20
357.2667151266822998
 30
0.0
 40
7.0149368183732932
 50
53.4052307253145671
 51
175.7779504213553139
  0
ARC
  5
350
  8
GASKET
 10
150.5283734238558111
 20
317.6148336529598737
 30
0.0
 40
44.4831261792505188
 50
125.1126593203379969
 51
195.0977745096267029
  0
ARC
  5
351
  8
GASKET
 10
122.0214579642212982
 20
358.1570275773095773
 30
0.0
 40
5.0780856423173812
 50
305.1126593203380253
 51
355.7779504213553992
  0
ARC
  5
359
  8
GASKET
 10
147.8747540709518944
 20
226.2345984784637096
 30
0.0
 40
7.990042119838682
 50
336.1408977138684122
 51
37.5117376485419172
  0
LINE
  5
35A
  8
GASKET
 10
134.7213757949905073
 20
273.8851383205316097
 30
0.0
 11
144.7071185612942088
 21
235.9787161390200936
 31
0.0
  0
ARC
  5
35C
  8
GASKET
 10
139.7965619746044013
 20
234.6851212257554948
 30
0.0
 40
5.0780856423173812
 50
315.0300900296347208
 51
14.7582188803629109
  0
ARC
  5
35D
  8
GASKET
 10
129.8108192083008987
 20
272.5915434072671246
 30
0.0
 40
5.0780856423173812
 50
14.7582188803629109
 51
65.2903851855219699
  0
ARC
  5
365
  8
GASKET
 10
152.4266183144038109
 20
200.8935410836371886
 30
0.0
 40
8.5712782925404767
 50
290.8190490646593958
 51
60.0730117386088907
  0
LINE
  5
366
  8
GASKET
 10
147.4452581843985968
 20
214.7562760569805107
 30
0.0
 11
146.3142392532041924
 21
207.9718484627709074
 31
0.0
  0
ARC
  5
367
  8
GASKET
 10
142.4362990086887919
 20
215.5913100483734013
 30
0.0
 40
5.0780856423173812
 50
350.5353688565643893
 51
60.712507260040077
  0
ARC
  5
368
  8
GASKET
 10
141.3052800774943876
 20
208.8068824541637127
 30
0.0
 40
5.0780856423173812
 50
324.5664073388442148
 51
350.5353688565643893
  0
ARC
  5
371
  8
GASKET
 10
144.3660117966753091
 20
166.4997354611182914
 30
0.0
 40
7.0344933945064474
 50
111.7600883712005952
 51
222.9165060635315001
  0
LINE
  5
373
  8
GASKET
 10
145.9528219779888047
 20
193.2842635400454867
 30
0.0
 11
144.9434544184973106
 21
177.4266470740824957
 31
0.0
  0
ARC
  5
374
  8
GASKET
 10
139.8756247205390082
 20
177.7492241086027889
 30
0.0
 40
5.0780856423173812
 50
291.7600883712005952
 51
356.3579276543118226
  0
ARC
  5
375
  8
GASKET
 10
140.8849922800301897
 20
193.6068405745658083
 30
0.0
 40
5.0780856423173812
 50
356.3579276543118226
 51
32.2658931197992302
  0
ARC
  5
376
  8
GASKET
 10
159.6667342488026122
 20
146.1494006027332091
 30
0.0
 40
21.953813510637719
 50
153.4030455545970142
 51
277.2524545911120981
  0
ARC
  5
377
  8
GASKET
 10
135.4954037497170134
 20
158.2518943011210126
 30
0.0
 40
5.0780856423173812
 50
333.4030455545969858
 51
42.9165060635314717
  0
ARC
  5
37F
  8
GASKET
 10
171.324435795240305
 20
128.7074694918090927
 30
0.0
 40
7.405857666927858
 50
228.6649760311001955
 51
0.9612765429809416
  0
LINE
  5
381
  8
GASKET
 10
184.0386376586286019
 20
133.989690813778509
 30
0.0
 11
311.1413277233929762
 21
128.1763533786063931
 31
0.0
  0
ARC
  5
383
  8
GASKET
 10
163.0792808591585867
 20
119.3337690150249983
 30
0.0
 40
5.0780856423173812
 50
48.6649760311001813
 51
97.2524545911121407
  0
ARC
  5
384
  8
GASKET
 10
183.8066221398134985
 20
128.9169082844622096
 30
0.0
 40
5.0780856423173812
 50
87.3812691611477845
 51
180.9612765429808974
  0
ARC
  5
385
  8
GASKET
 10
317.1987479868084847
 20
140.9317734394884098
 30
0.0
 40
13.8269880167803905
 50
250.5681703281177022
 51
289.3180516183606983
  0
ARC
  5
386
  8
GASKET
 10
310.9093122045781001
 20
123.1035708492898948
 30
0.0
 40
5.0780856423173812
 50
70.5681703281237844
 51
87.3812691611542931
  0
ARC
  5
387
  8
GASKET
 10
345.3199683277312033
 20
175.4607423357572884
 30
0.0
 40
47.7586075057863084
 50
267.3449138532218967
 51
314.7359110134329967
  0
LINE
  5
388
  8
GASKET
 10
323.5604658459237726
 20
128.1680599067198045
 30
0.0
 11
345.0279980041211729
 21
127.7126669193665975
 31
0.0
  0
ARC
  5
38A
  8
GASKET
 10
323.4527681172770031
 20
123.0911164374705038
 30
0.0
 40
5.0780856423173812
 50
88.7847609458974034
 51
109.3180516183606983
  0
ARC
  5
38B
  8
GASKET
 10
409.5396027692428902
 20
146.3991415321166869
 30
0.0
 40
6.5837251026280699
 50
200.4434630540318949
 51
329.5688407444214931
  0
LINE
  5
38C
  8
GASKET
 10
389.8172535034095745
 20
147.6747440721632074
 30
0.0
 11
398.8722482373926255
 21
147.3972970138482879
 31
0.0
  0
ARC
  5
38D
  8
GASKET
 10
398.6122843243338139
 20
142.3258699410592953
 30
0.0
 40
5.0780856423173812
 50
20.4434630540318807
 51
87.0655578252285238
  0
ARC
  5
390
  8
GASKET
 10
391.0753344599515913
 20
132.7297875740397046
 30
0.0
 40
14.9978162551757794
 50
81.6781177795415374
 51
144.0484899784734125
  0
ARC
  5
391
  8
GASKET
 10
419.4951653853240146
 20
201.7346984388717033
 30
0.0
 40
56.1642916438612474
 50
270.093273065121025
 51
346.2765517717460853
  0
ARC
  5
392
  8
GASKET
 10
419.5948631601008856
 20
140.4924023028160036
 30
0.0
 40
5.0780856423173812
 50
90.093273065121025
 51
149.5688407444214931
  0
ARC
  5
393
  8
GASKET
 10
423.7436963938392864
 20
254.4867418356840005
 30
0.0
 40
7.4946653784926891
 50
205.4408703728427099
 51
305.556949646917019
  0
ARC
  5
395
  8
GASKET
 10
434.4171796634553857
 20
261.1313504114021953
 30
0.0
 40
5.0780856423173812
 50
211.9036768435614135
 51
255.8976349196857996
  0
ARC
  5
396
  8
GASKET
 10
472.0034756183248987
 20
197.5746555489043885
 30
0.0
 40
7.2158168624521473
 50
134.4811846963204118
 51
219.6707562401300891
  0
ARC
  5
39A
  8
GASKET
 10
419.4951653853240146
 20
201.7346984388717033
 30
0.0
 40
56.1642916438612474
 50
4.7369991888927396
 51
75.8976349196921944
  0
ARC
  5
39B
  8
GASKET
 10
354.4636926646674056
 20
252.3254479993146049
 30
0.0
 40
68.7593486954167901
 50
11.1924692726773891
 51
48.3109838336691197
  0
ARC
  5
39C
  8
GASKET
 10
426.8967889345667004
 20
266.6576939619924929
 30
0.0
 40
5.0780856423173812
 50
191.1924692726769877
 51
255.4758651132684122
  0
ARC
  5
3A4
  8
GASKET
 10
392.7280813873280749
 20
303.0242861308756233
 30
0.0
 40
7.4946653784926891
 50
4.9622570627591349
 51
45.9608185776206781
  0
ARC
  5
3A5
  8
GASKET
 10
404.8723923010570047
 20
306.2784804492839044
 30
0.0
 40
5.0780856423173812
 50
195.0005987251516899
 51
226.9451314623188978
  0
ARC
  5
3AE
  8
GASKET
 10
401.4680308284616217
 20
312.0623916844591008
 30
0.0
 40
5.0780856423173812
 50
154.6948670972695936
 51
225.9608185776206994
  0
ARC
  5
3B8
  8
GASKET
 10
398.4537714898876857
 20
326.834191478061598
 30
0.0
 40
5.0780856423173812
 50
187.9213212105184994
 51
228.3714423455772078
  0
LINE
  5
3BA
  8
GASKET
 10
279.7882242505822887
 20
356.4375903097001128
 30
0.0
 11
341.721747003533892
 21
354.527649583728703
 31
0.0
  0
ARC
  5
3BD
  8
GASKET
 10
341.8782734459653057
 20
359.6033222744694058
 30
0.0
 40
5.0780856423173812
 50
268.2336404063070177
 51
291.918919939800503
  0
ARC
  5
3BE
  8
GASKET
 10
357.3644441007277237
 20
321.1169905409830108
 30
0.0
 40
36.40708293451857
 50
7.921321210518558
 51
111.918919939800702
  0
ARC
  5
3C6
  8
GASKET
 10
268.3009392606575148
 20
357.9893305796871914
 30
0.0
 40
7.0872932822549943
 50
16.8381369995201986
 51
151.9013884839941113
  0
ARC
  5
3C7
  8
GASKET
 10
279.9447506930131908
 20
361.5132630004408156
 30
0.0
 40
5.0780856423173812
 50
196.8381369995198042
 51
268.2336404063070177
  0
LINE
  5
3C8
  8
GASKET
 10
153.6708170238281923
 20
362.5794136137022861
 30
0.0
 11
257.3768623022260726
 21
358.6446740010396184
 31
0.0
  0
ARC
  5
3C9
  8
GASKET
 10
257.5693928196137108
 20
363.7191085301855082
 30
0.0
 40
5.0780856423173812
 50
267.8271672836696098
 51
331.9013884839941966
  0
ARC
  5
3CA
  8
GASKET
 10
149.7469640321353097
 20
327.8039684338817779
 30
0.0
 40
34.9961170668279706
 50
83.5623156867734025
 51
102.1815027131826952
  0
ARC
  5
3CB
  8
GASKET
 10
141.2909370586004911
 20
366.9758630854876742
 30
0.0
 40
5.0780856423173812
 50
233.4052307253145955
 51
282.1815027131759734
  0
ARC
  5
4C8
  8
GASKET
 10
110.3776688325969957
 20
296.7600242391130223
 30
0.0
 40
8.0364507544730852
 50
8.1002805629462298
 51
39.0415584088597569
  0
ARC
  5
4D0
  8
GASKET
 10
151.8026410265908908
 20
319.4033643099654114
 30
0.0
 40
40.3101850078724695
 50
216.037608846937303
 51
244.8994076036636045
  0
ARC
  5
4D1
  8
GASKET
 10
123.3613610767728943
 20
298.6079421515941021
 30
0.0
 40
5.0780856423173812
 50
188.1002805629462102
 51
215.0970391377144892
  0
ARC
  5
4D2
  8
GASKET
 10
120.5635888141376029
 20
305.0206597493137224
 30
0.0
 40
5.0780856423173812
 50
205.4769820555675039
 51
219.0415584088597996
  0
LINE
  5
4D4
  8
GASKET
 10
152.0324654067273968
 20
235.1600112357153876
 30
0.0
 11
142.0187268413912989
 21
273.9554118238406204
 31
0.0
  0
ARC
  5
4D5
  8
GASKET
 10
128.7034866788065131
 20
270.5286516705181157
 30
0.0
 40
13.7491201804227803
 50
14.4322402460098793
 51
64.1297397497701809
  0
ARC
  5
4D6
  8
GASKET
 10
165.4773405434881965
 20
239.7643354949167076
 30
0.0
 40
14.2114203838660291
 50
198.9042515050307998
 51
217.5663190570415111
  0
LINE
  5
4D7
  8
GASKET
 10
154.2052485640853945
 20
218.5824252547965045
 30
0.0
 11
154.1583112640554987
 21
212.7638868999027864
 31
0.0
  0
ARC
  5
4D8
  8
GASKET
 10
168.2743533696271072
 20
217.7916648965459956
 30
0.0
 40
14.0913098033325692
 50
158.2963492993121122
 51
176.7830496198673131
  0
ARC
  5
4D9
  8
GASKET
 10
148.3521097421748891
 20
226.1385549777509141
 30
0.0
 40
7.0149368183732932
 50
135.0300900296346924
 51
240.7125072600400131
  0
ARC
  5
4DA
  8
GASKET
 10
159.2362316884207019
 20
212.7229240566684041
 30
0.0
 40
5.0780856423173812
 50
179.5378133309625923
 51
240.0730117386216875
  0
ARC
  5
4DB
  8
GASKET
 10
102.9999436870677982
 20
175.2674889990065026
 30
0.0
 40
48.5479018421672066
 50
336.1788085733779781
 51
0.9085948484771194
  0
LINE
  5
4DC
  8
GASKET
 10
151.5487127860837973
 20
176.3957551455048929
 30
0.0
 11
152.2073687187250925
 21
188.4132797855276067
 31
0.0
  0
ARC
  5
4DD
  8
GASKET
 10
157.2778444407740039
 20
188.1353773875146942
 30
0.0
 40
5.0780856423173812
 50
110.8190490646593958
 51
176.8628742799895122
  0
ARC
  5
4DE
  8
GASKET
 10
156.6191885081327086
 20
176.1178527474920088
 30
0.0
 40
5.0780856423173812
 50
176.8628742799895122
 51
180.9085948484770938
  0
ARC
  5
4DF
  8
GASKET
 10
158.9995923536056921
 20
145.6784615800089
 30
0.0
 40
15.1280115306404301
 50
143.4533133434001968
 51
309.5011605889570205
  0
ARC
  5
4E0
  8
GASKET
 10
142.7665814567027951
 20
157.7107398424180928
 30
0.0
 40
5.0780856423173812
 50
323.4533133434002252
 51
336.1788085733779781
  0
ARC
  5
4E1
  8
GASKET
 10
152.4266183144038109
 20
200.8935410836371886
 30
0.0
 40
8.5712782925404767
 50
144.5664073388441864
 51
212.2658931197989034
  0
ARC
  5
4E2
  8
GASKET
 10
211.465390197115795
 20
175.0230302622709075
 30
0.0
 40
35.326619695911738
 50
266.8545543665603077
 51
326.946841634853115
  0
ARC
  5
4E3
  8
GASKET
 10
186.8834931569114985
 20
113.9849162925093964
 30
0.0
 40
27.00444590561208
 50
83.8924730938451972
 51
124.1733524923930929
  0
LINE
  5
4E4
  8
GASKET
 10
171.7151322704247889
 20
136.3268259397717088
 30
0.0
 11
168.6224274547693938
 21
134.0055109038943044
 31
0.0
  0
LINE
  5
4E5
  8
GASKET
 10
189.7566229668126994
 20
140.8360843074131878
 30
0.0
 11
209.5269899193280878
 21
139.7496314537827971
 31
0.0
  0
ARC
  5
4E6
  8
GASKET
 10
255.3468151636641039
 20
155.7398777140184052
 30
0.0
 40
11.9901819682768203
 50
88.0584351759114838
 51
150.2211931931364006
  0
POLYLINE
  5
4F2
  8
0
 66
     1
 10
0.0
 20
0.0
 30
0.0
  0
VERTEX
  5
1043
  8
0
 10
0.2680573516201057
 20
0.1382858244795208
 30
0.0
  0
VERTEX
  5
1044
  8
0
 10
0.2582148319350663
 20
0.1653279250647041
 30
0.0
  0
VERTEX
  5
1045
  8
0
 10
0.2385297925649875
 20
0.1112437238943375
 30
0.0
  0
VERTEX
  5
1046
  8
0
 10
0.2286872728799482
 20
0.1382858244795208
 30
0.0
  0
SEQEND
  5
1047
  8
0
  0
POINT
  5
4F3
  8
DEFPOINTS
 10
0.2680573516201057
 20
0.1382858244795208
 30
0.0
  0
POINT
  5
4F4
  8
DEFPOINTS
 10
0.2286872728799482
 20
0.1382858244795208
 30
0.0
  0
LINE
  5
4F6
  8
GASKET
 10
241.0749227638877983
 20
155.755294528229399
 30
0.0
 11
245.6869977106233023
 21
162.84286232658161
 31
0.0
  0
ARC
  5
505
  8
GASKET
 10
289.4859812939346284
 20
158.5387649497573079
 30
0.0
 40
8.0368617398631645
 50
15.4274348258031395
 51
88.7599635061943815
  0
ARC
  5
50D
  8
GASKET
 10
293.3196332172698817
 20
152.3111978542584097
 30
0.0
 40
8.0368617398631645
 50
359.741253984556522
 51
47.8049576554682005
  0
ARC
  5
50E
  8
GASKET
 10
302.1283727019238086
 20
162.0275733888323089
 30
0.0
 40
5.0780856423173812
 50
195.4274348258030898
 51
227.8049576554682005
  0
LINE
  5
510
  8
GASKET
 10
255.7530450922149896
 20
167.7231761279585101
 30
0.0
 11
289.6599072607535277
 21
166.5737445006797088
 31
0.0
  0
ARC
  5
511
  8
GASKET
 10
305.9252610561708821
 20
141.2778538233986865
 30
0.0
 40
4.611177675002688
 50
181.6525065471923028
 51
278.2894503916401732
  0
ARC
  5
519
  8
GASKET
 10
316.733607752076523
 20
142.426158129013686
 30
0.0
 40
8.7221478614845882
 50
229.1418182817135119
 51
300.9546922252463901
  0
ARC
  5
51A
  8
GASKET
 10
307.4883766657630986
 20
129.6547329732665048
 30
0.0
 40
7.1170381275954764
 50
60.1785156070485527
 51
97.251142620483364
  0
LINE
  5
51C
  8
GASKET
 10
301.3160011350396985
 20
141.1448781493311913
 30
0.0
 11
301.3564646611171156
 21
152.2891304831595107
 31
0.0
  0
ARC
  5
51D
  8
GASKET
 10
339.8212187998491913
 20
140.6051428582788105
 30
0.0
 40
5.6950247981400919
 50
267.2359649416723073
 51
8.2518820037256742
  0
LINE
  5
51E
  8
GASKET
 10
324.0767766486159758
 20
135.6636102319041868
 30
0.0
 11
339.5465887411504013
 21
134.9167436298235998
 31
0.0
  0
ARC
  5
51F
  8
GASKET
 10
323.8318971252675169
 20
130.5914324146590957
 30
0.0
 40
5.0780856423173812
 50
87.2359649416722789
 51
120.9546922252465038
  0
ARC
  5
520
  8
GASKET
 10
331.8928486625334244
 20
184.060234454362103
 30
0.0
 40
40.7688353629662288
 50
293.9211190077811011
 51
342.6895627863638083
  0
ARC
  5
521
  8
GASKET
 10
353.5656982944785796
 20
140.4485512167271963
 30
0.0
 40
8.1667036086338882
 50
129.0224668417675105
 51
173.1505341697462939
  0
ARC
  5
522
  8
GASKET
 10
376.8440274087589046
 20
175.3233606442614985
 30
0.0
 40
4.7511688525501663
 50
357.25675547140861
 51
165.3628002210041075
  0
LINE
  5
524
  8
GASKET
 10
372.2470562764090118
 20
176.5239696038250941
 30
0.0
 11
370.8151253773385179
 21
171.9295167431631057
 31
0.0
  0
ARC
  5
52C
  8
GASKET
 10
421.4670768387920816
 20
200.3398822921552949
 30
0.0
 40
47.4999548220556065
 50
217.0455008348982915
 51
345.6180719795714822
  0
ARC
  5
52D
  8
GASKET
 10
431.0549003012725962
 20
244.2583321032176116
 30
0.0
 40
5.0780856423173812
 50
75.6610634264769004
 51
125.5569496469170048
  0
ARC
  5
52E
  8
GASKET
 10
463.3894454450158946
 20
206.3461162579370978
 30
0.0
 40
5.0780856423173812
 50
314.4811846963203834
 51
5.2592887603809499
  0
ARC
  5
52F
  8
GASKET
 10
462.5405455891146858
 20
189.7265351332220007
 30
0.0
 40
5.0780856423173812
 50
346.5064563838826075
 51
39.6707562401300891
  0
ARC
  5
533
  8
GASKET
 10
420.3510603968380792
 20
202.3844078499899979
 30
0.0
 40
48.2984248481220675
 50
5.2592887603809499
 51
75.6610634264769004
  0
ARC
  5
534
  8
GASKET
 10
411.7560981832083939
 20
190.4134765599459058
 30
0.0
 40
33.8324479608167223
 50
206.9200072704441027
 51
213.5335527080644056
  0
ARC
  5
53C
  8
GASKET
 10
411.7227791245460935
 20
262.9657431022595802
 30
0.0
 40
8.8179445635440157
 50
112.3479906522230038
 51
272.7526905187793886
  0
ARC
  5
53D
  8
GASKET
 10
412.3901364309975861
 20
249.0857470753242922
 30
0.0
 40
5.0780856423173812
 50
25.4408703728427312
 51
92.7526905187793886
  0
LINE
  5
53E
  8
GASKET
 10
400.0089104226285031
 20
293.7706209292545054
 30
0.0
 11
410.5911516765410738
 21
278.7416301430843077
 31
0.0
  0
ARC
  5
53F
  8
GASKET
 10
406.4390779792597073
 20
275.8180642035080155
 30
0.0
 40
5.0780856423173812
 50
292.3479906522230749
 51
35.1502143691697384
  0
ARC
  5
540
  8
GASKET
 10
395.8568367253471934
 20
290.8470549896778152
 30
0.0
 40
5.0780856423173812
 50
35.1502143691697384
 51
104.4095950444236962
  0
ARC
  5
541
  8
GASKET
 10
423.7436963938392864
 20
254.4867418356840005
 30
0.0
 40
7.4946653784926891
 50
31.9036768435613816
 51
75.4758651132688243
  0
ARC
  5
542
  8
GASKET
 10
318.3757655179687731
 20
333.9726699411943969
 30
0.0
 40
7.5896172493803187
 50
222.3275019350292041
 51
330.6863168443081236
  0
ARC
  5
543
  8
GASKET
 10
356.1058314972015069
 20
319.3963943122607247
 30
0.0
 40
32.4467188441446126
 50
341.249528840781295
 51
151.1594851213766049
  0
LINE
  5
545
  8
GASKET
 10
386.830521406962589
 20
308.9664856980871832
 30
0.0
 11
385.6310585360690766
 21
305.4330774842899814
 31
0.0
  0
ARC
  5
546
  8
GASKET
 10
390.1017074265259907
 20
317.4364739832233795
 30
0.0
 40
7.4946653784926891
 50
334.6948670972697073
 51
48.371442345577222
  0
ARC
  5
547
  8
GASKET
 10
392.7280813873280749
 20
303.0242861308756233
 30
0.0
 40
7.4946653784926891
 50
161.2467174195261066
 51
284.4095950444237815
  0
LINE
  5
549
  8
GASKET
 10
324.9935503050231205
 20
330.2568639042323184
 30
0.0
 11
327.9459900521180771
 21
335.5151068395906009
 31
0.0
  0
ARC
  5
54A
  8
GASKET
 10
281.803634548707123
 20
305.3172873831762217
 30
0.0
 40
38.8141037143786107
 50
38.8846700766365103
 51
87.8740582219175366
  0
LINE
  5
54D
  8
GASKET
 10
308.8778772057195852
 20
333.129515479819986
 30
0.0
 11
312.7647010399765009
 21
328.8620686638587927
 31
0.0
  0
ARC
  5
54E
  8
GASKET
 10
230.1875081799975931
 20
346.6423920021583172
 30
0.0
 40
3.4120013048894311
 50
224.1186445721077121
 51
316.1919672971183104
  0
LINE
  5
54F
  8
GASKET
 10
236.5028688930080989
 20
345.8397676299451859
 30
0.0
 11
283.2434891498921843
 21
344.1046753575936918
 31
0.0
  0
ARC
  5
550
  8
GASKET
 10
236.3144913632544899
 20
340.7651772329779192
 30
0.0
 40
5.0780856423173812
 50
87.8740582219175366
 51
136.1919672971183104
  0
ARC
  5
558
  8
GASKET
 10
209.3677993033070095
 20
349.6138612877419973
 30
0.0
 40
3.4120013048894311
 50
211.9549192869870069
 51
268.4876025193764235
  0
LINE
  5
559
  8
GASKET
 10
224.2265036161921046
 20
345.8083647869497099
 30
0.0
 11
209.2777454984943972
 21
346.2030485961967088
 31
0.0
  0
ARC
  5
55A
  8
GASKET
 10
224.0924764302702101
 20
340.7320481593009163
 30
0.0
 40
5.0780856423173812
 50
44.1186445721077121
 51
88.4876025193764235
  0
ARC
  5
55B
  8
GASKET
 10
199.9520211554709022
 20
349.7386738028417881
 30
0.0
 40
4.5108975539541554
 50
31.9549192869870211
 51
87.7728581417883333
  0
LINE
  5
55D
  8
GASKET
 10
206.472836374528697
 20
347.8080532842249113
 30
0.0
 11
203.7793588459637988
 21
352.1260746793603857
 31
0.0
  0
ARC
  5
55E
  8
GASKET
 10
148.6365912371119862
 20
318.3969538555218719
 30
0.0
 40
36.1750100731369528
 50
116.2655941543429066
 51
205.4769820555675039
  0
ARC
  5
55F
  8
GASKET
 10
133.9930521107974073
 20
357.1864458398097781
 30
0.0
 40
5.8607931992753901
 50
274.6254572640862079
 51
320.0415516259664059
  0
ARC
  5
560
  8
GASKET
 10
134.8751829718430031
 20
346.2831933225547232
 30
0.0
 40
5.0780856423173812
 50
94.6254572640800831
 51
116.2655941543429066
  0
ARC
  5
561
  8
GASKET
 10
146.5036771680802019
 20
342.8372912038815912
 30
0.0
 40
13.4841321850595595
 50
87.7728581417883333
 51
119.3945304167299071
  0
ARC
  5
562
  8
GASKET
 10
142.3778165002252081
 20
350.1611489460959774
 30
0.0
 40
5.0780856423173812
 50
119.3945304167299071
 51
140.0415516259664059
  0
LINE
  5
563
  8
GASKET
 10
147.0276863264323026
 20
356.3112377373262234
 30
0.0
 11
200.1273199139089058
 21
354.2461639123771988
 31
0.0
  0
CIRCLE
  5
564
  8
GASKET
 10
134.1806055939341036
 20
357.4793014208830186
 30
0.0
 40
3.1744085216324538
  0
CIRCLE
  5
56C
  8
GASKET
 10
211.2245825893411961
 20
353.6622794847364162
 30
0.0
 40
3.1744085216324538
  0
CIRCLE
  5
574
  8
GASKET
 10
230.3293880507166875
 20
351.5795806884096919
 30
0.0
 40
2.6640500539368772
  0
CIRCLE
  5
57C
  8
GASKET
 10
267.7104623848331926
 20
357.6219705561514957
 30
0.0
 40
3.1744085216324538
  0
CIRCLE
  5
584
  8
GASKET
 10
319.4631998548500178
 20
336.1489747033410254
 30
0.0
 40
3.592074500081651
  0
CIRCLE
  5
58C
  8
GASKET
 10
324.5325250584443779
 20
344.6752679674899014
 30
0.0
 40
2.7580091797119111
  0
CIRCLE
  5
594
  8
GASKET
 10
392.4833713760936007
 20
302.273236745522297
 30
0.0
 40
3.1744085216324538
  0
CIRCLE
  5
59C
  8
GASKET
 10
411.7384697027330276
 20
262.3110289511254223
 30
0.0
 40
3.9142559488073019
  0
CIRCLE
  5
5A4
  8
GASKET
 10
423.8304584606809726
 20
254.0427686621767975
 30
0.0
 40
3.1744085216324538
  0
CIRCLE
  5
5AC
  8
GASKET
 10
471.9440755850301912
 20
197.2856855423000013
 30
0.0
 40
3.1744085216324538
  0
CIRCLE
  5
5B4
  8
GASKET
 10
409.2821772050016875
 20
147.6248851161529956
 30
0.0
 40
3.1744085216324538
  0
CIRCLE
  5
5BC
  8
GASKET
 10
376.8079669456180909
 20
159.2139516145387859
 30
0.0
 40
3.8153289332843898
  0
CIRCLE
  5
5C4
  8
GASKET
 10
355.702910291526905
 20
137.936224715107187
 30
0.0
 40
3.1744085216324538
  0
CIRCLE
  5
5CC
  8
GASKET
 10
291.5262045180656969
 20
136.438408445854094
 30
0.0
 40
3.1744085216324538
  0
CIRCLE
  5
5D4
  8
GASKET
 10
238.4924609608380877
 20
138.1510490696927036
 30
0.0
 40
3.1744085216324538
  0
CIRCLE
  5
5DC
  8
GASKET
 10
171.4153894392688926
 20
128.0673787970472972
 30
0.0
 40
3.1744085216324538
  0
CIRCLE
  5
5E4
  8
GASKET
 10
144.4961189867811129
 20
166.8282665890183978
 30
0.0
 40
3.1744085216324538
  0
CIRCLE
  5
5EC
  8
GASKET
 10
152.4926885695709018
 20
201.2661323561474944
 30
0.0
 40
3.8353454191712539
  0
CIRCLE
  5
5F4
  8
GASKET
 10
148.4943926139457915
 20
226.3144806787038874
 30
0.0
 40
3.1744085216324538
  0
CIRCLE
  5
5FC
  8
GASKET
 10
112.1266842794639018
 20
297.3393812103582832
 30
0.0
 40
3.1744085216324538
  0
ARC
  5
604
  8
GASKET
 10
258.3875160309921739
 20
150.507801826380387
 30
0.0
 40
8.5038360302271236
 50
41.2843633774220322
 51
311.0424740815328164
  0
LINE
  5
606
  8
GASKET
 10
268.4677392445448731
 20
154.3925814316237961
 30
0.0
 11
283.4080627990626908
 21
154.0222510420254025
 31
0.0
  0
LINE
  5
608
  8
GASKET
 10
285.2307238367995978
 20
152.7532120890699048
 30
0.0
 11
285.1656307933499193
 21
146.4730865341032882
 31
0.0
  0
LINE
  5
60A
  8
GASKET
 10
283.7425877890154879
 20
145.1715058573834938
 30
0.0
 11
267.3570368630396956
 21
145.3418294177652967
 31
0.0
  0
ARC
  5
60B
  8
GASKET
 10
268.5935726625868938
 20
159.4691077776217867
 30
0.0
 40
5.0780856423173812
 50
221.2843633774220109
 51
268.5800826684570097
  0
ARC
  5
60C
  8
GASKET
 10
267.3056546813506884
 20
140.2640037352396973
 30
0.0
 40
5.0780856423173812
 50
89.4202475897595832
 51
131.042474081532788
  0
ARC
  5
60D
  8
GASKET
 10
283.4197607521177815
 20
152.0956315695873968
 30
0.0
 40
1.926654985638053
 50
19.9565136614795584
 51
90.3478814121560987
  0
ARC
  5
60E
  8
GASKET
 10
283.7408867208632728
 20
146.6020760491018109
 30
0.0
 40
1.4305712030741471
 50
270.068129463625894
 51
354.8268175704184273
  0
ARC
  5
641
  8
GASKET
 10
388.339275512443578
 20
743.1170867106914102
 30
0.0
 40
6.5783891241915322
 50
10.3921845213541602
 51
158.0219640068573881
  0
ARC
  5
642
  8
GASKET
 10
401.1497280335597111
 20
703.5976834826299182
 30
0.0
 40
36.5657025578274073
 50
359.9335340373712029
 51
91.8511066888411847
  0
ARC
  5
643
  8
GASKET
 10
399.8045384638328983
 20
745.2197396629776449
 30
0.0
 40
5.0780856423173981
 50
190.3921845213540962
 51
271.8511066888411847
  0
ARC
  5
644
  8
GASKET
 10
439.7533059647283267
 20
692.1376333555099336
 30
0.0
 40
6.7316792507349739
 50
293.7028278256702265
 51
75.0824058410391331
  0
ARC
  5
645
  8
GASKET
 10
442.793488213356909
 20
703.5493746216046702
 30
0.0
 40
5.0780856423173981
 50
179.9335340373712029
 51
255.0824058410458974
  0
ARC
  5
646
  8
GASKET
 10
376.6896245300895885
 20
660.2608747172088215
 30
0.0
 40
65.9290147489502942
 50
357.189778815727891
 51
17.2556403420927289
  0
ARC
  5
647
  8
GASKET
 10
444.5007484122402275
 20
681.3241077030347697
 30
0.0
 40
5.0780856423173981
 50
113.7028278256701981
 51
197.255640342092704
  0
ARC
  5
648
  8
GASKET
 10
445.5960027897256737
 20
643.5002958526495149
 30
0.0
 40
8.3532187011980952
 50
312.7658306478834902
 51
81.3703386456677862
  0
ARC
  5
649
  8
GASKET
 10
447.6113322777595158
 20
656.7795421950744412
 30
0.0
 40
5.0780856423173981
 50
177.189778815727891
 51
261.3703386456676867
  0
ARC
  5
651
  8
GASKET
 10
443.3474687251144246
 20
630.3517287159399984
 30
0.0
 40
6.75633442306661
 50
289.9316694369712195
 51
16.1318463462634689
  0
ARC
  5
652
  8
GASKET
 10
454.7159069350374807
 20
633.6399061672229891
 30
0.0
 40
5.0780856423173981
 50
132.7658306478836039
 51
196.1318463462635009
  0
ARC
  5
653
  8
GASKET
 10
409.9743180274317069
 20
620.6789238673770797
 30
0.0
 40
32.3576077457553026
 50
295.7765857858785807
 51
357.776018366785479
  0
ARC
  5
654
  8
GASKET
 10
447.3818134038991161
 20
619.2261922660998152
 30
0.0
 40
5.0780856423173981
 50
109.9316694369713048
 51
177.7760183667855074
  0
ARC
  5
655
  8
GASKET
 10
407.0797039055756841
 20
578.3556613272359073
 30
0.0
 40
6.4700031423300173
 50
217.8178064201306938
 51
21.9372234153577104
  0
ARC
  5
656
  8
GASKET
 10
418.5779221261464045
 20
582.4043209092875486
 30
0.0
 40
5.9080152100536454
 50
107.7357087388077019
 51
161.3356811249990983
  0
LINE
  5
657
  8
GASKET
 10
416.7781827489965849
 20
588.0315388628201845
 30
0.0
 11
424.0454490368293818
 21
591.5410095435181574
 31
0.0
  0
ARC
  5
658
  8
GASKET
 10
417.7916387562192995
 20
582.6699175010932095
 30
0.0
 40
5.0780856423173981
 50
161.3356811249990983
 51
201.9372234153576926
  0
ARC
  5
65A
  8
GASKET
 10
397.9571237856541757
 20
571.274920791549448
 30
0.0
 40
5.0780856423173981
 50
37.8178064201307294
 51
121.8325464434302035
  0
ARC
  5
65B
  8
GASKET
 10
311.4417414158186261
 20
564.4528735620408497
 30
0.0
 40
6.7015062847754532
 50
156.7604840490726019
 51
338.8210230428841214
  0
ARC
  5
65C
  8
GASKET
 10
322.4256976064395985
 20
560.197113656764941
 30
0.0
 40
5.0780856423173981
 50
74.8550356722707306
 51
158.8210230428840077
  0
ARC
  5
65D
  8
GASKET
 10
300.6179052271482988
 20
569.1008146255288693
 30
0.0
 40
5.0780856423173981
 50
336.7604840490727156
 51
60.7264714196929987
  0
ARC
  5
65E
  8
GASKET
 10
347.4459648217684844
 20
652.6378464816286851
 30
0.0
 40
90.6888337856579057
 50
254.8550356722707022
 51
301.8325464434302035
  0
LINE
  5
660
  8
GASKET
 10
303.1009849639236791
 20
573.5304047658835316
 30
0.0
 11
239.2713593991636003
 21
603.0237825084570886
 31
0.0
  0
ARC
  5
661
  8
GASKET
 10
227.6230273924699077
 20
604.9712098321202802
 30
0.0
 40
6.4802585268272042
 50
162.8050961742115135
 51
325.4369257337863814
  0
ARC
  5
662
  8
GASKET
 10
237.1413487704787997
 20
598.4140093565116558
 30
0.0
 40
5.0780856423173981
 50
65.2000369001194002
 51
145.4369257337864099
  0
LINE
  5
663
  8
GASKET
 10
218.6672913549093948
 20
613.0179763977222365
 30
0.0
 11
190.7892657154881988
 21
625.5785631419339552
 31
0.0
  0
ARC
  5
664
  8
GASKET
 10
216.5812873446257072
 20
608.3881231538501879
 30
0.0
 40
5.0780856423173981
 50
342.805096174211485
 51
65.7458110108576648
  0
ARC
  5
665
  8
GASKET
 10
198.2056431417088049
 20
664.9991185543742631
 30
0.0
 40
39.9855777213388492
 50
215.4952882646385035
 51
257.8269100368904105
  0
ARC
  5
666
  8
GASKET
 10
188.7032617052047101
 20
620.948709898062134
 30
0.0
 40
5.0780856423173981
 50
65.7458110108576648
 51
77.8269100368903963
  0
ARC
  5
667
  8
GASKET
 10
158.1643280722958878
 20
649.8506705879588026
 30
0.0
 40
6.4377352649601551
 50
121.4756389522970039
 51
286.9231992686550825
  0
ARC
  5
668
  8
GASKET
 10
161.5164636246639134
 20
638.833533100977661
 30
0.0
 40
5.0780856423173981
 50
35.4952882646385319
 51
106.9231992686550967
  0
ARC
  5
669
  8
GASKET
 10
169.0138641894805005
 20
680.009374590456332
 30
0.0
 40
18.4192036480957917
 50
85.9093770104654055
 51
203.1372306000990875
  0
LINE
  5
66A
  8
GASKET
 10
152.0761840659270945
 20
672.7718297676442489
 30
0.0
 11
156.8211402539295989
 21
661.6674356560737351
 31
0.0
  0
ARC
  5
66B
  8
GASKET
 10
152.1515035045432001
 20
659.6720794423888492
 30
0.0
 40
5.0780856423173981
 50
301.4756389522970039
 51
23.1372306000991088
  0
ARC
  5
66C
  8
GASKET
 10
181.9070571111091112
 20
701.3124654947087038
 30
0.0
 40
6.3401987723382636
 50
12.4122843627219002
 51
169.2267401004517922
  0
ARC
  5
66D
  8
GASKET
 10
170.6900245821589124
 20
703.4468038508374548
 30
0.0
 40
5.0780856423173981
 50
265.909377010465505
 51
349.2267401004518206
  0
ARC
  5
66E
  8
GASKET
 10
230.5824202070527065
 20
691.9624248057846216
 30
0.0
 40
6.7136892824854497
 50
37.4134844498589771
 51
148.6296037439373094
  0
ARC
  5
66F
  8
GASKET
 10
252.9154628277032089
 20
692.7794404872989844
 30
0.0
 40
8.2609538490385894
 50
75.7256054152889959
 51
151.1899301159602089
  0
ARC
  5
670
  8
GASKET
 10
240.502421675015313
 20
700.5177557768176939
 30
0.0
 40
6.5754776454245416
 50
248.2805170561946113
 51
298.9620014904356253
  0
ARC
  5
671
  8
GASKET
 10
241.2275030060702079
 20
699.2076260602152615
 30
0.0
 40
5.0780856423173981
 50
298.9620014904356253
 51
331.1899301159601805
  0
ARC
  5
672
  8
GASKET
 10
239.9482927780227897
 20
699.1266684407792127
 30
0.0
 40
5.0780856423173981
 50
217.4134844498589985
 51
248.2805170561946113
  0
LINE
  5
673
  8
GASKET
 10
219.2259196743638938
 20
693.1889425653738499
 30
0.0
 11
208.7237952390208022
 21
695.9437670785046066
 31
0.0
  0
LINE
  5
674
  8
GASKET
 10
208.2830667098666027
 20
696.0386854670956609
 30
0.0
 11
192.2107328614237929
 21
698.7599377069082038
 31
0.0
  0
ARC
  5
675
  8
GASKET
 10
193.05845301311291
 20
703.766765478574257
 30
0.0
 40
5.0780856423173981
 50
192.4122843627218913
 51
260.3902253828917992
  0
ARC
  5
676
  8
GASKET
 10
220.5143683552074947
 20
698.1008519484489625
 30
0.0
 40
5.0780856423173981
 50
255.3018184609811954
 51
328.6296037439373094
  0
ARC
  5
677
  8
GASKET
 10
207.4353465581772866
 20
691.0318576954293803
 30
0.0
 40
5.0780856423173981
 50
75.301818460974502
 51
80.3902253828918134
  0
LINE
  5
679
  8
GASKET
 10
258.228759578770223
 20
701.0495072577981546
 30
0.0
 11
273.3640573454101173
 21
707.6284433325877217
 31
0.0
  0
ARC
  5
67B
  8
GASKET
 10
256.2044155865833091
 20
705.7066507161862319
 30
0.0
 40
5.0780856423173981
 50
255.7256054152888964
 51
293.4933818078833951
  0
ARC
  5
67C
  8
GASKET
 10
271.3397133532229759
 20
712.2855867909759127
 30
0.0
 40
5.0780856423173981
 50
293.4933818078833951
 51
324.2350974796706851
  0
ARC
  5
67D
  8
GASKET
 10
377.5299071939305122
 20
747.4795356258059655
 30
0.0
 40
5.0780856423173981
 50
252.4377442292750118
 51
338.0219640068573881
  0
ARC
  5
681
  8
GASKET
 10
295.8543126424303864
 20
734.157201423275751
 30
0.0
 40
6.4236579002716461
 50
38.1064660064462473
 51
210.4309891965287136
  0
ARC
  5
682
  8
GASKET
 10
304.9046364749229951
 20
741.2552112180356971
 30
0.0
 40
5.0780856423173981
 50
218.1064660064461975
 51
297.3593461247673986
  0
ARC
  5
683
  8
GASKET
 10
285.9370510400885905
 20
728.3315661076898095
 30
0.0
 40
5.0780856423173981
 50
311.1781090781879016
 51
30.43098919652871
  0
ARC
  5
685
  8
GASKET
 10
348.7452591349002091
 20
656.5309947486556439
 30
0.0
 40
90.3168463591517963
 50
72.437744229275026
 51
117.3593461247673986
  0
ARC
  5
686
  8
GASKET
 10
348.7452591349002091
 20
656.5309947486556439
 30
0.0
 40
90.3168463591517963
 50
131.1781090781884132
 51
144.2350974796707135
  0
ARC
  5
687
  8
GASKET
 10
401.7972899321512728
 20
704.2372701885142305
 30
0.0
 40
31.3142383579799599
 50
347.222000842861803
 51
100.8477882126040015
  0
ARC
  5
688
  8
GASKET
 10
361.6816380771754211
 20
657.6093496031603536
 30
0.0
 40
76.1745439744899215
 50
347.0502918236514915
 51
20.9005798965465388
  0
ARC
  5
689
  8
GASKET
 10
464.7258437152053716
 20
692.2443651201250532
 30
0.0
 40
32.7975914875585914
 50
171.8203308591448888
 51
191.7573852025718963
  0
ARC
  5
68A
  8
GASKET
 10
437.5879148423425136
 20
686.596018388929906
 30
0.0
 40
5.0780856423173981
 50
191.7573852025718963
 51
200.9005798965465033
  0
ARC
  5
68C
  8
GASKET
 10
437.2883345259737098
 20
696.1882329925557542
 30
0.0
 40
5.0780856423173981
 50
167.222000842861803
 51
171.8203308591448888
  0
ARC
  5
68D
  8
GASKET
 10
409.4438641395020113
 20
620.6840538617169614
 30
0.0
 40
28.4232870499074295
 50
281.7358210521479123
 51
18.3004688969254516
  0
ARC
  5
68E
  8
GASKET
 10
455.7145873338092201
 20
635.9870525695976085
 30
0.0
 40
20.3123425692695889
 50
167.0502918236516052
 51
198.3004688969253948
  0
ARC
  5
690
  8
GASKET
 10
420.3895448280666187
 20
567.9952692438387203
 30
0.0
 40
25.3904282115869897
 50
101.7358210521477986
 51
130.1530552686903093
  0
ARC
  5
691
  8
GASKET
 10
347.4402456914161235
 20
654.4627129322819883
 30
0.0
 40
87.7387857985115431
 50
245.1382574826951952
 51
310.153055268690423
  0
LINE
  5
692
  8
GASKET
 10
279.7704910479458249
 20
589.1185531955544548
 30
0.0
 11
310.5522219243487143
 21
574.8551238722096741
 31
0.0
  0
ARC
  5
693
  8
GASKET
 10
275.7041920746812025
 20
597.2519630407210798
 30
0.0
 40
4.5306705821581579
 50
314.884305901185428
 51
46.0998016376475874
  0
ARC
  5
694
  8
GASKET
 10
281.0514789861321105
 20
591.8830374633475913
 30
0.0
 40
3.046851385390438
 50
134.8843059011859111
 51
245.1382574826951952
  0
LINE
  5
695
  8
GASKET
 10
278.8457786418733804
 20
600.5165318889565924
 30
0.0
 11
262.0677812616901861
 21
616.9437071602799278
 31
0.0
  0
LINE
  5
696
  8
GASKET
 10
255.7062921913237972
 20
617.5457283293642377
 30
0.0
 11
248.3304817382139902
 21
612.6485028102360957
 31
0.0
  0
ARC
  5
697
  8
GASKET
 10
258.5151680276546813
 20
613.3152235927178708
 30
0.0
 40
5.0780856423173981
 50
45.6053237110531597
 51
123.582475056528807
  0
LINE
  5
698
  8
GASKET
 10
245.3565798139019876
 20
608.8476197048627228
 30
0.0
 11
246.8862151103132021
 21
611.1924769381082569
 31
0.0
  0
ARC
  5
69A
  8
GASKET
 10
251.139357574544789
 20
608.4179980735899562
 30
0.0
 40
5.0780856423173981
 50
123.582475056528807
 51
146.8821342010197952
  0
LINE
  5
69B
  8
GASKET
 10
240.5370797147299129
 20
607.486179566183182
 30
0.0
 11
192.5905578875490107
 21
630.1848815640162229
 31
0.0
  0
ARC
  5
69C
  8
GASKET
 10
198.614545252282312
 20
665.7959335741719542
 30
0.0
 40
35.9876957576938068
 50
216.017073924897403
 51
258.9117718116456786
  0
ARC
  5
69D
  8
GASKET
 10
190.9609146365507115
 20
626.7425822769480419
 30
0.0
 40
3.8085642317380479
 50
64.6663263095364442
 51
78.9117718116457212
  0
ARC
  5
69E
  8
GASKET
 10
169.1724628470037999
 20
679.5531745104557331
 30
0.0
 40
14.0545678303075796
 50
89.988987530780463
 51
203.7252725479372941
  0
ARC
  5
6A3
  8
GASKET
 10
-54.0441544179932407
 20
556.0760437691685638
 30
0.0
 40
240.3343804243199031
 50
21.8330838753561203
 51
26.8451516867039999
  0
ARC
  5
6A4
  8
GASKET
 10
172.5867185644640074
 20
646.873757597988515
 30
0.0
 40
3.8085642317380479
 50
201.8330838753560954
 51
216.017073924897403
  0
LINE
  5
6A6
  8
GASKET
 10
160.3894449303531928
 20
664.6064352936381283
 30
0.0
 11
156.3057138730347901
 21
673.898296285632
 31
0.0
  0
LINE
  5
6A7
  8
GASKET
 10
229.4353831257911907
 20
685.5155295289096102
 30
0.0
 11
199.4714058360283104
 21
693.4744706562105421
 31
0.0
  0
LINE
  5
6A8
  8
GASKET
 10
198.4944208785790067
 20
693.6021068071750051
 30
0.0
 11
169.1751641889860878
 21
693.6077420811592447
 31
0.0
  0
ARC
  5
6A9
  8
GASKET
 10
198.4936888578882872
 20
689.7935426457855783
 30
0.0
 40
3.8085642317380479
 50
75.1247472786706396
 51
89.988987530780463
  0
LINE
  5
6AA
  8
GASKET
 10
231.8455394126297904
 20
685.6675371471790186
 30
0.0
 11
240.6318521593559012
 21
689.2340272796587897
 31
0.0
  0
ARC
  5
6AB
  8
GASKET
 10
230.4131001039312991
 20
689.1964575393344603
 30
0.0
 40
3.8085642317380479
 50
255.1247472786706112
 51
292.0929377358376087
  0
ARC
  5
6AC
  8
GASKET
 10
252.4034377896335002
 20
691.8539153002470812
 30
0.0
 40
7.5969485847475768
 50
214.2888502664143004
 51
6.7893674524620176
  0
ARC
  5
6AD
  8
GASKET
 10
242.3507793297941078
 20
684.999322809072396
 30
0.0
 40
4.570277078085657
 50
34.2888502664143431
 51
112.0929377358375945
  0
LINE
  5
6AE
  8
GASKET
 10
263.5155889111957208
 20
698.6362509806281196
 30
0.0
 11
273.3217429073429798
 21
702.3497837124367607
 31
0.0
  0
ARC
  5
6AF
  8
GASKET
 10
265.4938354157902154
 20
693.4123870032816512
 30
0.0
 40
5.5858942065491366
 50
110.7413815605903977
 51
186.7893674524619883
  0
ARC
  5
6B1
  8
GASKET
 10
391.1254412082543013
 20
759.9286596089624481
 30
0.0
 40
25.3904282115869897
 50
249.0733041579428004
 51
280.8477882126040868
  0
ARC
  5
6B2
  8
GASKET
 10
269.7249310808074938
 20
711.8477182167033561
 30
0.0
 40
10.1561712846347891
 50
290.7413815605904119
 51
323.4745333853003899
  0
ARC
  5
6B5
  8
GASKET
 10
350.0029494036817255
 20
652.3898724024112425
 30
0.0
 40
89.7427559104248616
 50
69.0733041579428289
 51
143.4745333853003899
  0
ARC
  5
6B6
  8
GASKET
 10
242.1667229657284111
 20
610.928478853251363
 30
0.0
 40
3.8085642317380479
 50
244.6663263095364016
 51
326.8821342010198236
  0
LINE
  5
6BE
  8
GASKET
 10
248.7153873168923042
 20
603.6373761125202009
 30
0.0
 11
271.5101358735952886
 21
592.6755250127113186
 31
0.0
  0
LINE
  5
6BF
  8
GASKET
 10
273.3477490641831196
 20
593.0817041764563555
 30
0.0
 11
275.5124481493119788
 21
595.7180543335804259
 31
0.0
  0
LINE
  5
6C0
  8
GASKET
 10
275.4159841227576067
 20
597.7583176094237842
 30
0.0
 11
259.8546710802219195
 21
613.4269040544413656
 31
0.0
  0
LINE
  5
6C1
  8
GASKET
 10
258.0483092306197932
 20
613.6929970204423626
 30
0.0
 11
252.3205241176985965
 21
610.5912133203038366
 31
0.0
  0
LINE
  5
6C2
  8
GASKET
 10
248.2236501452300956
 20
606.0071935962783982
 30
0.0
 11
251.8939996316049985
 21
610.248495398472528
 31
0.0
  0
ARC
  5
6C3
  8
GASKET
 10
272.1703665548045024
 20
594.0484493692415526
 30
0.0
 40
1.523425692695219
 50
244.3173916896706999
 51
320.6106863413834844
  0
ARC
  5
6C4
  8
GASKET
 10
274.3350656399333047
 20
596.6847995263657367
 30
0.0
 40
1.523425692695219
 50
320.6106863413834844
 51
44.8031921605872299
  0
ARC
  5
6C5
  8
GASKET
 10
258.7737525973976744
 20
612.3533859713833181
 30
0.0
 40
1.523425692695219
 50
44.8031921605872299
 51
118.4369996725046974
  0
ARC
  5
6C6
  8
GASKET
 10
253.0459674844765061
 20
609.251602271244451
 30
0.0
 40
1.523425692695219
 50
118.4369996725046974
 51
139.1276522802089062
  0
ARC
  5
6C7
  8
GASKET
 10
249.3756179981014895
 20
605.0103004690505486
 30
0.0
 40
1.523425692695219
 50
139.1276522802089062
 51
244.3173916896706999
  0
CIRCLE
  5
6C8
  8
GASKET
 10
443.6914801040524026
 20
630.423537888605324
 30
0.0
 40
3.265182920530362
  0
CIRCLE
  5
6D0
  8
GASKET
 10
407.4167745805842173
 20
578.4768526261354964
 30
0.0
 40
3.265182920530362
  0
CIRCLE
  5
6D8
  8
GASKET
 10
311.4070085068918843
 20
564.3150494836338567
 30
0.0
 40
3.265182920530362
  0
CIRCLE
  5
6E0
  8
GASKET
 10
227.8794962036585048
 20
605.0241060254072636
 30
0.0
 40
3.265182920530362
  0
CIRCLE
  5
6E8
  8
GASKET
 10
158.2816576426340873
 20
649.9541646489617506
 30
0.0
 40
3.265182920530362
  0
CIRCLE
  5
6F0
  8
GASKET
 10
182.0823887082898977
 20
701.3036321986983239
 30
0.0
 40
3.265182920530362
  0
CIRCLE
  5
6F8
  8
GASKET
 10
230.5010715365770864
 20
692.1862628050465673
 30
0.0
 40
3.265182920530362
  0
CIRCLE
  5
700
  8
GASKET
 10
252.3994616124871015
 20
692.7387947851686931
 30
0.0
 40
4.1702306130727953
  0
CIRCLE
  5
708
  8
GASKET
 10
296.2289959855007737
 20
734.1530066807805497
 30
0.0
 40
3.265182920530362
  0
CIRCLE
  5
710
  8
GASKET
 10
388.2749198931031174
 20
742.6985734663154517
 30
0.0
 40
3.265182920530362
  0
CIRCLE
  5
718
  8
GASKET
 10
440.016331376609287
 20
692.3901777890855556
 30
0.0
 40
3.265182920530362
  0
CIRCLE
  5
720
  8
GASKET
 10
445.8341933283020921
 20
644.162226054329949
 30
0.0
 40
4.1287903443184124
  0
POINT
  5
731
  8
GASKET
 10
104.9747660442256034
 20
297.1048576494898725
 30
0.0
  0
ARC
  5
73B
  8
GASKET
 10
472.6980848489509981
 20
197.5538682607673877
 30
0.0
 40
6.4045755508751512
 50
308.6513670555905264
 51
42.3621839050579325
  0
ARC
  5
73C
  8
GASKET
 10
481.4557607134235013
 20
186.6034665823397916
 30
0.0
 40
7.6171284634760701
 50
128.651367055590498
 51
166.2765517717461137
  0
ARC
  5
73D
  8
GASKET
 10
483.0587251657784122
 20
207.0019006321876134
 30
0.0
 40
7.6171284634760701
 50
184.7369991888926961
 51
222.3621839050578899
  0
ARC
  5
73E
  8
GASKET
 10
5.2570688855566914
 20
256.5292980297074905
 30
0.0
 40
7.2685383995338313
 50
289.4028702829874078
 51
109.0735638952689044
  0
ARC
  5
73F
  8
GASKET
 10
-96.1968314072357771
 20
212.342915536517495
 30
0.0
 40
105.3783512632875983
 50
346.1052254423225918
 51
17.1329885220099385
  0
ARC
  5
740
  8
GASKET
 10
9.3591359140309578
 20
244.8827096222927082
 30
0.0
 40
5.0793349168646094
 50
109.4028702829873936
 51
197.1329885220106917
  0
ARC
  5
741
  8
GASKET
 10
6.0738860530327647
 20
174.342245734299496
 30
0.0
 40
7.4200722698833861
 50
312.4973022939644238
 51
66.6465151015235051
  0
ARC
  5
742
  8
GASKET
 10
11.0286846651158594
 20
185.8176607914477927
 30
0.0
 40
5.0793349168646094
 50
166.1052254423231886
 51
246.6465151015233062
  0
ARC
  5
74A
  8
GASKET
 10
2.8957986149948729
 20
160.5261815691827962
 30
0.0
 40
7.4200722698833861
 50
269.8812578024546838
 51
21.5940754129545809
  0
ARC
  5
74B
  8
GASKET
 10
14.5179292374016295
 20
165.1263185036492871
 30
0.0
 40
5.0793349168646094
 50
132.4973022939643954
 51
201.5940754129541972
  0
ARC
  5
74C
  8
GASKET
 10
-51.5718764247252466
 20
153.7366633998020973
 30
0.0
 40
47.4390396554708289
 50
290.9120965194645123
 51
351.3827379804442899
  0
ARC
  5
74D
  8
GASKET
 10
2.864631022735352
 20
145.487139220532498
 30
0.0
 40
7.6190023752969118
 50
89.8812578024546553
 51
171.3827379804442046
  0
ARC
  5
75B
  8
GASKET
 10
-133.6043554028719882
 20
139.8644128454153872
 30
0.0
 40
55.1625621162863879
 50
219.7489009653615994
 51
281.9543084348289881
  0
ARC
  5
75D
  8
GASKET
 10
-384.4706410648688006
 20
1467.4613441689480169
 30
0.0
 40
1406.2411023388490321
 50
280.7497689391965991
 51
282.9640831375010066
  0
ARC
  5
75E
  8
GASKET
 10
-126.9007946802044984
 20
311.968920121339977
 30
0.0
 40
222.5696797950656105
 50
285.0803157249251854
 51
294.4896576651732971
  0
ARC
  5
760
  8
GASKET
 10
-176.8064857944164885
 20
113.108548712717905
 30
0.0
 40
7.0903731685081359
 50
168.372531998965286
 51
255.1688386102636059
  0
ARC
  5
761
  8
GASKET
 10
-179.921584778333596
 20
101.3442827686148036
 30
0.0
 40
5.0793349168646094
 50
39.7489009653615923
 51
75.1688386102635633
  0
ARC
  5
762
  8
GASKET
 10
-188.7264561221739996
 20
115.5613231150151989
 30
0.0
 40
5.0793349168646094
 50
348.3725319989645755
 51
23.7924696438682695
  0
LINE
  5
763
  8
GASKET
 10
-184.9484189185967011
 20
191.6423546409380094
 30
0.0
 11
-188.6045643238126104
 21
144.0935117903482876
 31
0.0
  0
ARC
  5
764
  8
GASKET
 10
-133.6043554028719882
 20
139.8644128454153872
 30
0.0
 40
55.1625621162863879
 50
175.6030410562985082
 51
203.7924696438682872
  0
ARC
  5
765
  8
GASKET
 10
-187.715645622066404
 20
203.4623865413668113
 30
0.0
 40
7.2740165821360137
 50
88.3818108232029118
 51
262.3777710367094755
  0
ARC
  5
766
  8
GASKET
 10
-189.2531466226025998
 20
191.9733555543600119
 30
0.0
 40
4.3174346793349168
 50
355.6030410562989914
 51
82.377771036709504
  0
ARC
  5
767
  8
GASKET
 10
-97.733977922958843
 20
215.1137763170629
 30
0.0
 40
85.3369255681121359
 50
139.6777087756015874
 51
180.0412593799825913
  0
ARC
  5
768
  8
GASKET
 10
-187.3883149247645861
 20
215.0492151394630014
 30
0.0
 40
4.3174346793349168
 50
268.3818108232028976
 51
0.041259379983818
  0
ARC
  5
769
  8
GASKET
 10
-136.0992674552925052
 20
298.8572741183130006
 30
0.0
 40
7.021360435389246
 50
131.5193999518538135
 51
189.1166599864559998
  0
ARC
  5
771
  8
GASKET
 10
-131.8390905059033003
 20
312.5149051902519091
 30
0.0
 40
8.0343848344652304
 50
64.5015827715616155
 51
200.5230446851695945
  0
LINE
  5
772
  8
GASKET
 10
-162.7962695571999916
 20
270.3341445947053785
 30
0.0
 11
-143.8994501014749972
 21
294.3939293389473733
 31
0.0
  0
ARC
  5
773
  8
GASKET
 10
-147.2948283830774017
 20
297.0606967707170156
 30
0.0
 40
4.3174346793349168
 50
321.8535193354942976
 51
9.1166599864564688
  0
ARC
  5
774
  8
GASKET
 10
-144.1204989631038131
 20
307.9174437141954854
 30
0.0
 40
5.0793349168646094
 50
311.5193999518534724
 51
20.5230446851700101
  0
LINE
  5
77C
  8
GASKET
 10
-122.5342299138022071
 20
320.8289436944604063
 30
0.0
 11
-120.2724124090078988
 21
323.1788728241771764
 31
0.0
  0
ARC
  5
77D
  8
GASKET
 10
-126.1938156060660958
 20
324.351311613724306
 30
0.0
 40
5.0793349168646094
 50
244.5015827715618002
 51
316.0945549448654788
  0
ARC
  5
77E
  8
GASKET
 10
-112.8168023859231965
 20
331.9741717156522895
 30
0.0
 40
7.0406899924718376
 50
258.5942321502125765
 51
27.7445296050348098
  0
ARC
  5
77F
  8
GASKET
 10
-115.5149510090649017
 20
318.5997945291342148
 30
0.0
 40
6.603135391923991
 50
78.5942321502126049
 51
136.0945549448655072
  0
LINE
  5
780
  8
GASKET
 10
-105.7545259786387959
 20
342.6236606838460261
 30
0.0
 11
-101.5771414708556932
 21
347.4960659822878029
 31
0.0
  0
ARC
  5
781
  8
GASKET
 10
-100.7415791090821955
 20
338.3257820574676202
 30
0.0
 40
6.603135391923991
 50
139.3916756814628002
 51
207.7445296050352113
  0
ARC
  5
782
  8
GASKET
 10
-93.3560755639554145
 20
352.2150364055808041
 30
0.0
 40
6.6375750296841334
 50
74.447351753526064
 51
181.8224740879618935
  0
ARC
  5
783
  8
GASKET
 10
-106.5900883404125068
 20
351.7939446086662088
 30
0.0
 40
6.603135391923991
 50
319.3916756814674045
 51
1.822474087962342
  0
ARC
  5
784
  8
GASKET
 10
-66.423887175596974
 20
315.7055019947395067
 30
0.0
 40
47.9294449281263795
 50
95.5813770614727645
 51
115.389648982592405
  0
ARC
  5
785
  8
GASKET
 10
-89.8059269119162167
 20
364.9709313964195871
 30
0.0
 40
6.603135391923991
 50
254.447351753525993
 51
295.389648982592405
  0
ARC
  5
786
  8
GASKET
 10
-59.9606894979589171
 20
366.2020270508270983
 30
0.0
 40
7.4542070190183614
 50
221.780679303767414
 51
300.7191769400508861
  0
ARC
  5
787
  8
GASKET
 10
-70.4432598347124213
 20
356.8358861809973064
 30
0.0
 40
6.603135391923991
 50
41.7806793037676769
 51
95.581377061472736
  0
ARC
  5
788
  8
GASKET
 10
-78.3236075855708123
 20
304.1750650439170158
 30
0.0
 40
62.6986236679575129
 50
47.3412418730937503
 51
62.9116727750496025
  0
ARC
  5
789
  8
GASKET
 10
-52.7797676799726787
 20
354.1171920290963726
 30
0.0
 40
6.603135391923991
 50
62.9116727750497802
 51
120.7191769400509997
  0
ARC
  5
78A
  8
GASKET
 10
-24.8172399933528212
 20
344.3842544574806084
 30
0.0
 40
7.1785848540018353
 50
287.8697283701861238
 51
128.1854604889902873
  0
ARC
  5
78B
  8
GASKET
 10
-32.3951957600447713
 20
354.0191485153857798
 30
0.0
 40
5.0793349168646094
 50
227.3412418730937077
 51
308.1854604889903158
  0
LINE
  5
78C
  8
GASKET
 10
-3.5791669217804829
 20
266.5414512505980724
 30
0.0
 11
-25.8570253153865295
 21
331.0598784367027747
 31
0.0
  0
ARC
  5
78D
  8
GASKET
 10
-21.0558506101087914
 20
332.7176976810965812
 30
0.0
 40
5.0793349168646094
 50
107.8697283701861949
 51
199.0495121006539989
  0
ARC
  5
78E
  8
GASKET
 10
1.2220077834972469
 20
268.199270494991822
 30
0.0
 40
5.0793349168646094
 50
199.0495121006539989
 51
289.073563895268876
  0
ARC
  5
796
  8
GASKET
 10
-68.1303406490592351
 20
322.3974758588826148
 30
0.0
 40
35.0925838818600724
 50
91.6923434866454556
 51
115.4664542686180937
  0
ARC
  5
797
  8
GASKET
 10
-60.3985041342879185
 20
361.3118283117473766
 30
0.0
 40
7.3197125011714039
 50
225.9671913121705984
 51
294.8348776149089758
  0
ARC
  5
798
  8
GASKET
 10
-69.0167120644837269
 20
352.3976335109471165
 30
0.0
 40
5.0793349168646094
 50
45.967191312170641
 51
91.6923434866454556
  0
ARC
  5
799
  8
GASKET
 10
-65.5570843320419954
 20
321.4892126041689266
 30
0.0
 40
35.4720254522667702
 50
15.1604859326258694
 51
70.0575169829121478
  0
ARC
  5
79A
  8
GASKET
 10
-55.1908472405013981
 20
350.0594202782950219
 30
0.0
 40
5.0793349168646094
 50
70.0575169829121478
 51
114.8348776149090043
  0
LINE
  5
79B
  8
GASKET
 10
-31.319588805961871
 20
330.7659841216691916
 30
0.0
 11
-0.5561846194667625
 21
239.7032431684826861
 31
0.0
  0
ARC
  5
79C
  8
GASKET
 10
-97.2720695048054864
 20
212.9603205878813981
 30
0.0
 40
100.3451358926087948
 50
340.7775943820134898
 51
15.4566612681274407
  0
ARC
  5
79D
  8
GASKET
 10
-1755.252165499028024
 20
591.8194994103649833
 30
0.0
 40
1800.4787586231120713
 50
345.4940999984468135
 51
346.7753040225069867
  0
ARC
  5
79E
  8
GASKET
 10
-40.7826978311801369
 20
148.4296344183183862
 30
0.0
 40
29.6038165636994286
 50
311.1571928294375198
 51
345.1372536253372232
  0
ARC
  5
79F
  8
GASKET
 10
-30.9758544897097217
 20
119.7210819349674011
 30
0.0
 40
6.9643062003540912
 50
58.2732051659621391
 51
190.2248909100750041
  0
ARC
  5
7A0
  8
GASKET
 10
-24.6424711705930086
 20
129.9649848578526985
 30
0.0
 40
5.0793349168646094
 50
238.2732051659621959
 51
311.1571928294375198
  0
ARC
  5
7A1
  8
GASKET
 10
-103.4339556338397017
 20
254.3617417485245085
 30
0.0
 40
154.683570742169195
 50
279.8812828720484731
 51
293.8978353885945012
  0
ARC
  5
7A2
  8
GASKET
 10
-42.8282255378542231
 20
117.5831876678283976
 30
0.0
 40
5.0793349168646094
 50
293.8978353885945012
 51
10.22489091007421
  0
LINE
  5
7A3
  8
GASKET
 10
-82.1585239569071746
 20
104.4352668300329015
 30
0.0
 11
-82.6658840059075146
 21
105.3131711559394006
 31
0.0
  0
ARC
  5
7A4
  8
GASKET
 10
-77.7607796443128336
 20
106.9768191428380959
 30
0.0
 40
5.0793349168646094
 50
210.0245536858658966
 51
279.8812828720484163
  0
LINE
  5
7A5
  8
GASKET
 10
-100.1951218855085983
 20
104.2115860765534023
 30
0.0
 11
-88.4938938350238686
 21
107.6454247225194933
 31
0.0
  0
ARC
  5
7A6
  8
GASKET
 10
-87.0636283185019693
 20
102.7716188431344051
 30
0.0
 40
5.0793349168646094
 50
30.0245536858641096
 51
106.3548369433730016
  0
LINE
  5
7A7
  8
GASKET
 10
-104.1236436508894059
 20
98.7252900728191207
 30
0.0
 11
-103.7112602653554063
 21
100.4922201876691048
 31
0.0
  0
ARC
  5
7A8
  8
GASKET
 10
-98.7648563689865711
 20
99.3377801971683851
 30
0.0
 40
5.0793349168646094
 50
106.3548369433730016
 51
166.8629119576789037
  0
LINE
  5
7A9
  8
GASKET
 10
-108.1640618276411061
 20
94.8818472041952532
 30
0.0
 11
-128.6548750598248887
 21
91.1673975672239436
 31
0.0
  0
ARC
  5
7AA
  8
GASKET
 10
-132.8385614179051117
 20
140.5893025393243079
 30
0.0
 40
49.5986685568687093
 50
223.6861205286573124
 51
274.838693204641288
  0
ARC
  5
7AB
  8
GASKET
 10
-109.0700475472581985
 20
99.8797300633196841
 30
0.0
 40
5.0793349168646094
 50
280.2746564723364031
 51
346.8629119576792732
  0
ARC
  5
7AC
  8
GASKET
 10
-176.3153043597490921
 20
113.6471298754411947
 30
0.0
 40
6.8290898978891823
 50
341.3525216969542839
 51
81.2051116874789756
  0
ARC
  5
7AD
  8
GASKET
 10
-165.0320268560315924
 20
109.8394756969803012
 30
0.0
 40
5.0793349168646094
 50
161.3525216969543123
 51
223.6861205286575967
  0
ARC
  5
7AE
  8
GASKET
 10
-123.1839416313023037
 20
141.264574791000598
 30
0.0
 40
58.7819319015349677
 50
171.840926924344501
 51
197.1651001916029031
  0
ARC
  5
7AF
  8
GASKET
 10
-174.4945339508622908
 20
125.4155357439845062
 30
0.0
 40
5.0793349168646094
 50
197.165100191603301
 51
261.2051116874790182
  0
LINE
  5
7B0
  8
GASKET
 10
-181.3708745652886876
 20
149.6070177073447951
 30
0.0
 11
-176.4743862631904108
 21
220.2155800430186048
 31
0.0
  0
ARC
  5
7B1
  8
GASKET
 10
-88.5360277752980664
 20
211.5141926195576048
 30
0.0
 40
88.3678054307010967
 50
137.8990839567250077
 51
174.3490509601462009
  0
LINE
  5
7B2
  8
GASKET
 10
-154.1018573231025073
 20
270.7593699114394212
 30
0.0
 11
-139.335425319539695
 21
289.499984412085098
 31
0.0
  0
ARC
  5
7B3
  8
GASKET
 10
-135.8926382263207984
 20
298.493670832659177
 30
0.0
 40
7.0702693302745123
 50
272.5798524123189281
 51
8.1290523022545571
  0
ARC
  5
7B4
  8
GASKET
 10
-135.345763817020611
 20
286.3563807008969206
 30
0.0
 40
5.0793349168646094
 50
92.579852412318985
 51
141.7641010927711136
  0
ARC
  5
7B5
  8
GASKET
 10
-131.4454347500563074
 20
312.2318357895317149
 30
0.0
 40
9.1314293951597065
 50
302.2369025560182081
 51
349.6428414443680026
  0
ARC
  5
7B6
  8
GASKET
 10
-123.8651121662382053
 20
300.2116639165024026
 30
0.0
 40
5.0793349168646094
 50
122.2369025560181939
 51
188.1290523022549053
  0
LINE
  5
7B7
  8
GASKET
 10
-121.3433135180245017
 20
312.9584014105986967
 30
0.0
 11
-116.5076161389142015
 21
318.6719064848498988
 31
0.0
  0
ARC
  5
7B8
  8
GASKET
 10
-117.4662181534896064
 20
309.6769726467853161
 30
0.0
 40
5.0793349168646094
 50
139.7566700407379869
 51
169.6428414443684005
  0
ARC
  5
7B9
  8
GASKET
 10
-112.350259019299699
 20
331.8891103393117987
 30
0.0
 40
11.4216779285385002
 50
269.0268119891152878
 51
13.9296113895151894
  0
ARC
  5
7BA
  8
GASKET
 10
-112.6305207743793062
 20
315.3904777210365751
 30
0.0
 40
5.0793349168646094
 50
89.0268119891153162
 51
139.7566700407382996
  0
LINE
  5
7BB
  8
GASKET
 10
-100.1304312845354048
 20
339.2363880833951839
 30
0.0
 11
-97.0204532015343375
 21
342.7342457167819134
 31
0.0
  0
ARC
  5
7BC
  8
GASKET
 10
-92.2354449418928652
 20
350.5668360006039279
 30
0.0
 40
6.1718084897313394
 50
264.9566501998194212
 51
354.5311628821070258
  0
ARC
  5
7BD
  8
GASKET
 10
-93.2245266063069948
 20
339.3592517195538107
 30
0.0
 40
5.0793349168646094
 50
84.956650199819407
 51
138.3594037946297988
  0
ARC
  5
7BE
  8
GASKET
 10
-81.0355147019340762
 20
349.4945531200893925
 30
0.0
 40
5.0793349168646094
 50
115.4664542686240054
 51
174.5311628821060879
  0
ARC
  5
7BF
  8
GASKET
 10
-96.3345046893081189
 20
335.8613940861671949
 30
0.0
 40
5.0793349168646094
 50
138.3594037946307083
 51
193.9296113895148039
  0
CIRCLE
  5
7C1
  8
GASKET
 10
-97.0603846009220206
 20
98.1665446714344512
 30
0.0
 40
3.083136488544115
  0
CIRCLE
  5
7C9
  8
GASKET
 10
-30.2474407582487892
 20
120.3562508972249958
 30
0.0
 40
3.083136488544115
  0
CIRCLE
  5
7D1
  8
GASKET
 10
0.9031879367448709
 20
161.3014263671956883
 30
0.0
 40
3.820174079746173
  0
CIRCLE
  5
7D9
  8
GASKET
 10
5.6026410324645894
 20
174.4374668447399017
 30
0.0
 40
3.083136488544115
  0
CIRCLE
  5
7E1
  8
GASKET
 10
5.0268451968422587
 20
256.5806461512361807
 30
0.0
 40
3.083136488544115
  0
CIRCLE
  5
7E9
  8
GASKET
 10
-25.2934858869224399
 20
344.6076791231056973
 30
0.0
 40
3.083136488544115
  0
CIRCLE
  5
7F1
  8
GASKET
 10
-93.2397279518373807
 20
351.1964396391229002
 30
0.0
 40
3.083136488544115
  0
CIRCLE
  5
7F9
  8
GASKET
 10
-131.2746369944568983
 20
311.2484946124613998
 30
0.0
 40
3.742310831461936
  0
CIRCLE
  5
801
  8
GASKET
 10
-136.3501839063615932
 20
298.2678028782053161
 30
0.0
 40
3.083136488544115
  0
CIRCLE
  5
809
  8
GASKET
 10
-187.6192340636762026
 20
203.2786972084768138
 30
0.0
 40
3.083136488544115
  0
CIRCLE
  5
811
  8
GASKET
 10
-176.5134455560281026
 20
112.9792125473378945
 30
0.0
 40
3.083136488544115
  0
POLYLINE
  5
88D
  8
GASKET
 66
     1
 10
0.0
 20
0.0
 30
0.0
 70
     1
  0
VERTEX
  5
1048
  8
GASKET
 10
-362.0548004014477783
 20
14.6947696634525808
 30
0.0
  0
VERTEX
  5
1049
  8
GASKET
 10
-362.0548004014477783
 20
14.6947696634525808
 30
0.0
  0
VERTEX
  5
104A
  8
GASKET
 10
-362.0548004014477783
 20
14.6947696634525808
 30
0.0
  0
VERTEX
  5
104B
  8
GASKET
 10
-362.0548004014477783
 20
14.6947696634525808
 30
0.0
  0
SEQEND
  5
104C
  8
GASKET
  0
DIMENSION
  5
914
  8
GASKET
  2
*D6
 10
479.5375752171610202
 20
442.3357828649823205
 30
0.0
 11
269.5375752171617023
 21
442.3357828649823205
 31
0.0
 70
     0
 13
59.5375752171623773
 23
370.1378205986093235
 33
0.0
 14
479.5375752171610202
 24
370.1378205986093235
 34
0.0
1001
ACADANNOTATIVE
1000
AnnotativeData
1002
{
1070
     1
1070
     0
1002
}
  0
DIMENSION
  5
94B
  8
GASKET
  2
*D3
 10
478.5
 20
856.8327174251298857
 30
0.0
 11
268.5000000000002274
 21
856.8327174251298857
 31
0.0
 70
     0
 13
58.5000000000004476
 23
797.4269521410579955
 33
0.0
 14
478.5
 24
797.4269521410579955
 34
0.0
  0
DIMENSION
  5
9D1
  8
GASKET
  2
*D4
 10
35.5
 20
73.2108684575522233
 30
0.0
 11
35.5
 21
221.7108684575520954
 31
0.0
 70
     1
 13
15.5000000000000302
 23
370.2108684575520101
 33
0.0
 14
15.4999999999999698
 24
73.2108684575522375
 34
0.0
  0
DIMENSION
  5
9DF
  8
GASKET
  2
*D5
 10
36.5
 20
733.4999999999997726
 30
0.0
 11
36.4999999999998721
 21
584.9999999999997726
 31
0.0
 70
     0
 13
15.4999999999997993
 23
436.5
 33
0.0
 14
15.4999999999997993
 24
733.4999999999997726
 34
0.0
 50
90.0
  0
DIMENSION
  5
D87
  8
GASKET
  2
*D7
 10
15.4999999999997993
 20
800.5
 30
0.0
 11
-89.4376484560576159
 21
800.5
 31
0.0
 70
     0
 13
-194.3752969121150045
 23
733.4999999999997726
 33
0.0
 14
15.4999999999997993
 24
733.4999999999997726
 34
0.0
  0
DIMENSION
  5
D95
  8
GASKET
  2
*D8
 10
15.5000000000000302
 20
410.0
 30
0.0
 11
-89.4376484560573743
 21
410.0
 31
0.0
 70
     0
 13
-194.3752969121148055
 23
370.2108684575520101
 33
0.0
 14
15.5000000000000302
 24
370.2108684575520101
 34
0.0
  0
DIMENSION
  5
DB1
  8
GASKET
  2
*D9
 10
544.645658852564452
 20
796.8788197523053896
 30
0.0
 11
541.8956588525639972
 21
648.1288197523053896
 31
0.0
 70
     1
 13
478.4999999999990905
 23
500.4999999999998863
 33
0.0
 14
484.0
 24
798.0
 34
0.0
  0
DIMENSION
  5
DBF
  8
GASKET
  2
*D10
 10
557.5
 20
73.2108684575522091
 30
0.0
 11
557.5
 21
221.6743445280808089
 31
0.0
 70
     0
 13
479.5375752171610202
 23
370.1378205986093235
 33
0.0
 14
479.5375752171609065
 24
73.2108684575522375
 34
0.0
 50
90.0
  0
POLYLINE
  5
ED5
  8
GASKETS_WATERPIMP
 62
     1
 66
     1
 10
0.0
 20
0.0
 30
0.0
 70
     1
  0
VERTEX
  5
106D
  8
GASKETS_WATERPIMP
 62
     1
 10
-126.181270289322697
 20
661.9209836201067674
 30
0.0
 42
0.379277953786966
  0
VERTEX
  5
106E
  8
GASKETS_WATERPIMP
 62
     1
 10
-100.9837462108841066
 20
697.55617734056068
 30
0.0
 42
0.4187709653753752
  0
VERTEX
  5
106F
  8
GASKETS_WATERPIMP
 62
     1
 10
-132.4926034091757003
 20
722.1941914468418418
 30
0.0
 42
0.1912053306498259
  0
VERTEX
  5
1070
  8
GASKETS_WATERPIMP
 62
     1
 10
-150.3032567468517868
 20
713.6302521388230389
 30
0.0
 42
-0.7882639973965441
  0
VERTEX
  5
1071
  8
GASKETS_WATERPIMP
 62
     1
 10
-153.0573733067535045
 20
715.1694414438520653
 30
0.0
  0
VERTEX
  5
1072
  8
GASKETS_WATERPIMP
 62
     1
 10
-153.2220059772008085
 20
717.6417888290204701
 30
0.0
 42
0.5428026977052911
  0
VERTEX
  5
1073
  8
GASKETS_WATERPIMP
 62
     1
 10
-155.152333351595388
 20
719.1305030957009876
 30
0.0
  0
VERTEX
  5
1074
  8
GASKETS_WATERPIMP
 62
     1
 10
-165.1516276125570073
 20
719.0808450616915479
 30
0.0
 42
0.5231940177469963
  0
VERTEX
  5
1075
  8
GASKETS_WATERPIMP
 62
     1
 10
-166.9329435860564104
 20
717.5059423169725505
 30
0.0
  0
VERTEX
  5
1076
  8
GASKETS_WATERPIMP
 62
     1
 10
-163.763153357631893
 20
686.1219184747113786
 30
0.0
 42
0.42462367483386
  0
SEQEND
  5
1077
  8
GASKETS_WATERPIMP
 62
     1
  0
POLYLINE
  5
ED6
  8
GASKETS_WATERPIMP
 62
     1
 66
     1
 10
0.0
 20
0.0
 30
0.0
  0
VERTEX
  5
1078
  8
GASKETS_WATERPIMP
 62
     1
 10
-96.162147142413005
 20
707.5652740949931285
 30
0.0
 42
0.3778930957682195
  0
VERTEX
  5
1079
  8
GASKETS_WATERPIMP
 62
     1
 10
-95.9097905386093856
 20
716.8256868987429016
 30
0.0
 42
-0.1531037471563973
  0
VERTEX
  5
107A
  8
GASKETS_WATERPIMP
 62
     1
 10
-97.6421844876139176
 20
721.0220799948290278
 30
0.0
 42
0.6340968018156103
  0
VERTEX
  5
107B
  8
GASKETS_WATERPIMP
 62
     1
 10
-109.3652323739351004
 20
725.3398832786191406
 30
0.0
 42
-0.3825412763191901
  0
VERTEX
  5
107C
  8
GASKETS_WATERPIMP
 62
     1
 10
-115.9141451089002004
 20
724.038677889649307
 30
0.0
 42
0.0997059782068994
  0
VERTEX
  5
107D
  8
GASKETS_WATERPIMP
 62
     1
 10
-133.0614229390504875
 20
727.5399103942933152
 30
0.0
 42
0.1082540611698078
  0
VERTEX
  5
107E
  8
GASKETS_WATERPIMP
 62
     1
 10
-146.0316439382440876
 20
723.1123122290067613
 30
0.0
  0
VERTEX
  5
107F
  8
GASKETS_WATERPIMP
 62
     1
 10
-165.6030016918045078
 20
723.4364050324943491
 30
0.0
 42
0.3164187850089313
  0
VERTEX
  5
1080
  8
GASKETS_WATERPIMP
 62
     1
 10
-170.7021021084285053
 20
720.0669397432144478
 30
0.0
 42
-0.3322966353561329
  0
VERTEX
  5
1081
  8
GASKETS_WATERPIMP
 62
     1
 10
-174.9454659012257025
 20
716.3908995212530044
 30
0.0
  0
SEQEND
  5
1082
  8
GASKETS_WATERPIMP
 62
     1
  0
POLYLINE
  5
ED7
  8
GASKETS_WATERPIMP
 62
     1
 66
     1
 10
0.0
 20
0.0
 30
0.0
  0
VERTEX
  5
1083
  8
GASKETS_WATERPIMP
 62
     1
 10
-167.6879515736862061
 20
673.0024320222846654
 30
0.0
 42
-0.2911916831984881
  0
VERTEX
  5
1084
  8
GASKETS_WATERPIMP
 62
     1
 10
-161.0559703236320956
 20
670.6460040317882658
 30
0.0
 42
0.2311095885018349
  0
VERTEX
  5
1085
  8
GASKETS_WATERPIMP
 62
     1
 10
-133.9182483079011092
 20
656.7523829768019823
 30
0.0
 42
0.2311095885018349
  0
SEQEND
  5
1086
  8
GASKETS_WATERPIMP
 62
     1
  0
POLYLINE
  5
ED8
  8
GASKETS_WATERPIMP
 62
     1
 66
     1
 10
0.0
 20
0.0
 30
0.0
  0
VERTEX
  5
1087
  8
GASKETS_WATERPIMP
 62
     1
 10
-116.172103830259104
 20
655.503792693704554
 30
0.0
 42
-0.342524611737096
  0
VERTEX
  5
1088
  8
GASKETS_WATERPIMP
 62
     1
 10
-113.9646148006651032
 20
662.4650807827487142
 30
0.0
 42
0.3061991451618505
  0
VERTEX
  5
1089
  8
GASKETS_WATERPIMP
 62
     1
 10
-97.6978821277286045
 20
700.1079031959084205
 30
0.0
  0
VERTEX
  5
108A
  8
GASKETS_WATERPIMP
 62
     1
 10
-98.1533690999256123
 20
702.1222587646925604
 30
0.0
 42
-0.3024722355260773
  0
VERTEX
  5
108B
  8
GASKETS_WATERPIMP
 62
     1
 10
-96.1621471424122944
 20
707.5652740949933559
 30
0.0
  0
SEQEND
  5
108C
  8
GASKETS_WATERPIMP
 62
     1
  0
ARC
  5
ED9
  8
GASKETS_WATERPIMP
 62
     1
 10
-175.1685790444263944
 20
709.580781738016185
 30
0.0
 40
6.813771620492953
 50
88.1235463012321247
 51
278.8827636952232183
  0
ARC
  5
EDA
  8
GASKETS_WATERPIMP
 62
     1
 10
-168.7163198344723014
 20
678.4869457540007716
 30
0.0
 40
5.5800924860746663
 50
115.3463313923614066
 51
281.4806902766828216
  0
CIRCLE
  5
EDB
  8
GASKETS_WATERPIMP
 62
     1
 10
-99.9315951523108339
 20
712.0089894728314448
 30
0.0
 40
2.2703928266339219
  0
CIRCLE
  5
EDC
  8
GASKETS_WATERPIMP
 62
     1
 10
-104.5671368629900968
 20
720.3927445894305492
 30
0.0
 40
3.4313701667256229
  0
CIRCLE
  5
EDD
  8
GASKETS_WATERPIMP
 62
     1
 10
-175.4434710306061049
 20
709.4474231381161644
 30
0.0
 40
3.2153327273281969
  0
CIRCLE
  5
EDE
  8
GASKETS_WATERPIMP
 62
     1
 10
-168.4448021478949045
 20
678.9004902155809305
 30
0.0
 40
2.2703928266339219
  0
POLYLINE
  5
EDF
  8
GASKETS_WATERPIMP
 62
     1
 66
     1
 10
0.0
 20
0.0
 30
0.0
  0
VERTEX
  5
108D
  8
GASKETS_WATERPIMP
 62
     1
 10
-116.172103830259104
 20
655.503792693704554
 30
0.0
 42
-1.003588643723345
  0
VERTEX
  5
108E
  8
GASKETS_WATERPIMP
 62
     1
 10
-129.4824279159475111
 20
652.9238331798361514
 30
0.0
 42
0.2909768079990911
  0
VERTEX
  5
108F
  8
GASKETS_WATERPIMP
 62
     1
 10
-133.9182483079011092
 20
656.7523829768019823
 30
0.0
  0
SEQEND
  5
1090
  8
GASKETS_WATERPIMP
 62
     1
  0
POLYLINE
  5
EE0
  8
GASKETS_WATERPIMP
 62
     1
 66
     1
 10
0.0
 20
0.0
 30
0.0
  0
VERTEX
  5
1091
  8
GASKETS_WATERPIMP
 62
     1
 10
-171.1050949122416966
 20
683.5298799971694734
 30
0.0
 42
0.2541203254835767
  0
VERTEX
  5
1092
  8
GASKETS_WATERPIMP
 62
     1
 10
-167.6710278563795953
 20
689.1045046873279034
 30
0.0
  0
VERTEX
  5
1093
  8
GASKETS_WATERPIMP
 62
     1
 10
-168.5089257427439122
 20
696.9264429377403758
 30
0.0
 42
0.3924894659088806
  0
VERTEX
  5
1094
  8
GASKETS_WATERPIMP
 62
     1
 10
-174.1164429615521101
 20
702.8487320234504523
 30
0.0
 42
0.3924894659088806
  0
SEQEND
  5
1095
  8
GASKETS_WATERPIMP
 62
     1
  0
CIRCLE
  5
EE1
  8
GASKETS_WATERPIMP
 62
     1
 10
-122.752748769727603
 20
654.3656231123633233
 30
0.0
 40
3.3120639216400098
  0
ARC
  5
EE2
  8
GASKETS_WATERPIMP
 62
     1
 10
-63.2838951330653074
 20
667.2650924892917601
 30
0.0
 40
6.4765216832197732
 50
163.147737049020094
 51
298.547994931509777
  0
ARC
  5
EE3
  8
GASKETS_WATERPIMP
 62
     1
 10
-76.6291080828505784
 20
670.2344139019344311
 30
0.0
 40
7.2297290214485663
 50
351.3146611954368268
 51
32.0780437940923875
  0
ARC
  5
EE4
  8
GASKETS_WATERPIMP
 62
     1
 10
-56.9429321028614694
 20
655.1363159221821206
 30
0.0
 40
7.2114666324451964
 50
4.3609020410337713
 51
116.7499770751143018
  0
ARC
  5
EE5
  8
GASKETS_WATERPIMP
 62
     1
 10
-49.0902703748645592
 20
687.4287644392959464
 30
0.0
 40
25.2361633798716092
 50
131.7255288314372876
 51
211.9510229495490137
  0
ARC
  5
EE6
  8
GASKETS_WATERPIMP
 62
     1
 10
-59.6562574876739689
 20
718.1093742512332483
 30
0.0
 40
6.6194814588902622
 50
114.3915275776855935
 51
208.0168229143507119
  0
ARC
  5
EE7
  8
GASKETS_WATERPIMP
 62
     1
 10
-50.8835776062847884
 20
697.3368451828057459
 30
0.0
 40
29.1667473481567683
 50
63.4827587983693391
 51
113.2348874765320943
  0
ARC
  5
EE8
  8
GASKETS_WATERPIMP
 62
     1
 10
-71.1734129463427365
 20
710.8742410971507297
 30
0.0
 40
7.014948394975641
 50
318.9084321544337968
 51
36.0249980276030186
  0
ARC
  5
EE9
  8
GASKETS_WATERPIMP
 62
     1
 10
-40.0313722899064786
 20
720.2310624797188439
 30
0.0
 40
3.8697300003619448
 50
4.5813206843402403
 51
55.8952429331681486
  0
LINE
  5
EEA
  8
GASKETS_WATERPIMP
 62
     1
 10
-33.761033160707008
 20
707.4478842714094071
 30
0.0
 11
-4.8564819495432499
 21
680.6902471189426933
 31
0.0
  0
ARC
  5
EEB
  8
GASKETS_WATERPIMP
 62
     1
 10
-30.18945477402686
 20
713.4190917354436579
 30
0.0
 40
6.9578366430069112
 50
170.5251059210634992
 51
239.1149483549853869
  0
LINE
  5
EEC
  8
GASKETS_WATERPIMP
 62
     1
 10
-36.1740061868690574
 20
720.5401531182678809
 30
0.0
 11
-37.0523714098285382
 21
714.5644589258286032
 31
0.0
  0
ARC
  5
EED
  8
GASKETS_WATERPIMP
 62
     1
 10
-8.5484752882507955
 20
675.7154160175485913
 30
0.0
 40
6.195139974241707
 50
249.2732138051854918
 51
53.4196186752761335
  0
ARC
  5
EEE
  8
GASKETS_WATERPIMP
 62
     1
 10
-13.1808804933882993
 20
663.6062475896947035
 30
0.0
 40
6.7699346562786591
 50
68.875367608158939
 51
160.2696290734855893
  0
ARC
  5
EEF
  8
GASKETS_WATERPIMP
 62
     1
 10
-44.0292492341960724
 20
655.954380819973494
 30
0.0
 40
5.7294463143263759
 50
182.6982074709619894
 51
285.412437714945213
  0
ARC
  5
EF0
  8
GASKETS_WATERPIMP
 62
     1
 10
-52.299634865382167
 20
689.738523425384642
 30
0.0
 40
40.5091026848248177
 50
283.98984781961002
 51
323.9368062767903211
  0
CIRCLE
  5
EF1
  8
GASKETS_WATERPIMP
 62
     1
 10
-43.1579776326388966
 20
657.0639456153279525
 30
0.0
 40
3.0048710364550488
  0
CIRCLE
  5
EF2
  8
GASKETS_WATERPIMP
 62
     1
 10
-63.613406962859699
 20
667.340254782577972
 30
0.0
 40
3.0048710364550488
  0
CIRCLE
  5
EF3
  8
GASKETS_WATERPIMP
 62
     1
 10
-43.1412195268402883
 20
675.8267082073618894
 30
0.0
 40
4.778883174938267
  0
CIRCLE
  5
EF4
  8
GASKETS_WATERPIMP
 62
     1
 10
-50.8539359992719326
 20
701.7446532880035193
 30
0.0
 40
3.9231484905548051
  0
CIRCLE
  5
EF5
  8
GASKETS_WATERPIMP
 62
     1
 10
-8.989427113095644
 20
675.9185731635787988
 30
0.0
 40
3.0048710364550488
  0
CIRCLE
  5
EF6
  8
GASKETS_WATERPIMP
 62
     1
 10
-57.3456987161371217
 20
710.5948692645191613
 30
0.0
 40
3.0048710364550488
  0
CIRCLE
  5
EF7
  8
GASKETS_WATERPIMP
 62
     1
 10
-59.9424043387575693
 20
718.5010615000405778
 30
0.0
 40
3.0048710364550488
  0
DIMENSION
  5
EF8
  8
DEFPOINTS
  2
*D11
 10
-176.058936934616014
 20
713.3819631787689559
 30
0.0
 11
-137.6863447680842967
 21
722.370047734851255
 31
0.0
 70
     0
 13
-95.9097905386094851
 23
716.8256868987427879
 33
0.0
 14
-175.1685790444263944
 24
709.580781738016185
 34
0.0
 50
193.1828375023467004
  0
ENDSEC
  0
EOF
