  0
SECTION
  2
HEADER
  9
$ACADVER
  1
AC1009
  9
$INSBASE
 10
0.0
 20
0.0
 30
0.0
  9
$EXTMIN
 10
0.2276112674091166
 20
0.109603297729663
 30
-0.0015258207003583
  9
$EXTMAX
 10
91.5164005921971011
 20
58.3997725517965591
 30
0.0000000349246037
  9
$LIMMIN
 10
0.0
 20
0.0
  9
$LIMMAX
 10
12.0
 20
9.0
  9
$ORTHOMODE
 70
     1
  9
$REGENMODE
 70
     1
  9
$FILLMODE
 70
     1
  9
$QTEXTMODE
 70
     0
  9
$MIRRTEXT
 70
     0
  9
$DRAGMODE
 70
     2
  9
$LTSCALE
 40
1.0
  9
$OSMODE
 70
   293
  9
$ATTMODE
 70
     1
  9
$TEXTSIZE
 40
0.2
  9
$TRACEWID
 40
0.05
  9
$TEXTSTYLE
  7
STANDARD
  9
$CLAYER
  8
GASKET
  9
$CELTYPE
  6
BYLAYER
  9
$CECOLOR
 62
   256
  9
$DIMSCALE
 40
1.0
  9
$DIMASZ
 40
0.18
  9
$DIMEXO
 40
0.0625
  9
$DIMDLI
 40
0.38
  9
$DIMRND
 40
0.0
  9
$DIMDLE
 40
0.0
  9
$DIMEXE
 40
0.18
  9
$DIMTP
 40
0.0
  9
$DIMTM
 40
0.0
  9
$DIMTXT
 40
0.18
  9
$DIMCEN
 40
0.09
  9
$DIMTSZ
 40
0.0
  9
$DIMTOL
 70
     0
  9
$DIMLIM
 70
     0
  9
$DIMTIH
 70
     1
  9
$DIMTOH
 70
     1
  9
$DIMSE1
 70
     0
  9
$DIMSE2
 70
     0
  9
$DIMTAD
 70
     0
  9
$DIMZIN
 70
     0
  9
$DIMBLK
  1

  9
$DIMASO
 70
     1
  9
$DIMSHO
 70
     1
  9
$DIMPOST
  1

  9
$DIMAPOST
  1

  9
$DIMALT
 70
     0
  9
$DIMALTD
 70
     2
  9
$DIMALTF
 40
25.3999999999999986
  9
$DIMLFAC
 40
1.0
  9
$DIMTOFL
 70
     0
  9
$DIMTVP
 40
0.0
  9
$DIMTIX
 70
     0
  9
$DIMSOXD
 70
     0
  9
$DIMSAH
 70
     0
  9
$DIMBLK1
  1

  9
$DIMBLK2
  1

  9
$DIMSTYLE
  2
STANDARD
  9
$DIMCLRD
 70
     0
  9
$DIMCLRE
 70
     0
  9
$DIMCLRT
 70
     0
  9
$DIMTFAC
 40
1.0
  9
$DIMGAP
 40
0.09
  9
$LUNITS
 70
     2
  9
$LUPREC
 70
     4
  9
$SKETCHINC
 40
0.1
  9
$FILLETRAD
 40
0.2
  9
$AUNITS
 70
     0
  9
$AUPREC
 70
     0
  9
$MENU
  1
.
  9
$ELEVATION
 40
0.0
  9
$PELEVATION
 40
0.0
  9
$THICKNESS
 40
0.0
  9
$LIMCHECK
 70
     0
  9
$BLIPMODE
 70
     0
  9
$CHAMFERA
 40
0.0
  9
$CHAMFERB
 40
0.0
  9
$SKPOLY
 70
     0
  9
$TDCREATE
 40
2459073.7170254630036652
  9
$TDUPDATE
 40
2459074.8192824069410563
  9
$TDINDWG
 40
0.2961458333
  9
$TDUSRTIMER
 40
0.2961458333
  9
$USRTIMER
 70
     1
  9
$ANGBASE
 50
0.0
  9
$ANGDIR
 70
     0
  9
$PDMODE
 70
     0
  9
$PDSIZE
 40
0.0
  9
$PLINEWID
 40
0.0
  9
$COORDS
 70
     1
  9
$SPLFRAME
 70
     0
  9
$SPLINETYPE
 70
     6
  9
$SPLINESEGS
 70
     8
  9
$ATTDIA
 70
     1
  9
$ATTREQ
 70
     1
  9
$HANDLING
 70
     1
  9
$HANDSEED
  5
8CC
  9
$SURFTAB1
 70
     6
  9
$SURFTAB2
 70
     6
  9
$SURFTYPE
 70
     6
  9
$SURFU
 70
     6
  9
$SURFV
 70
     6
  9
$UCSNAME
  2

  9
$UCSORG
 10
0.0
 20
0.0
 30
0.0
  9
$UCSXDIR
 10
1.0
 20
0.0
 30
0.0
  9
$UCSYDIR
 10
0.0
 20
1.0
 30
0.0
  9
$PUCSNAME
  2

  9
$PUCSORG
 10
0.0
 20
0.0
 30
0.0
  9
$PUCSXDIR
 10
1.0
 20
0.0
 30
0.0
  9
$PUCSYDIR
 10
0.0
 20
1.0
 30
0.0
  9
$USERI1
 70
     0
  9
$USERI2
 70
     0
  9
$USERI3
 70
     0
  9
$USERI4
 70
     0
  9
$USERI5
 70
     0
  9
$USERR1
 40
0.0
  9
$USERR2
 40
0.0
  9
$USERR3
 40
0.0
  9
$USERR4
 40
0.0
  9
$USERR5
 40
0.0
  9
$WORLDVIEW
 70
     1
  9
$SHADEDGE
 70
     3
  9
$SHADEDIF
 70
    70
  9
$TILEMODE
 70
     1
  9
$MAXACTVP
 70
    64
  9
$PLIMCHECK
 70
     0
  9
$PEXTMIN
 10
0.0
 20
0.0
 30
0.0
  9
$PEXTMAX
 10
0.0
 20
0.0
 30
0.0
  9
$PLIMMIN
 10
0.0
 20
0.0
  9
$PLIMMAX
 10
12.0
 20
9.0
  9
$UNITMODE
 70
     0
  9
$VISRETAIN
 70
     1
  9
$PLINEGEN
 70
     0
  9
$PSLTSCALE
 70
     1
  0
ENDSEC
  0
SECTION
  2
TABLES
  0
TABLE
  2
VPORT
 70
     1
  0
VPORT
  2
*ACTIVE
 70
     0
 10
0.0
 20
0.0
 11
1.0
 21
1.0
 12
-21.5945972626852409
 22
2.3281240071326721
 13
0.0
 23
0.0
 14
0.5
 24
0.5
 15
0.5
 25
0.5
 16
-0.0000000000000497
 26
0.0
 36
215.2940369367055951
 17
45.8711223527789116
 27
29.2545278072357213
 37
0.0
 40
93.5113892126893944
 41
1.2695449241540251
 42
50.0
 43
0.0
 44
0.0
 50
0.0
 51
0.0
 71
     0
 72
  1000
 73
     1
 74
     3
 75
     1
 76
     1
 77
     0
 78
     0
  0
ENDTAB
  0
TABLE
  2
LTYPE
 70
     3
  0
LTYPE
  2
CONTINUOUS
 70
     0
  3
Solid line
 72
    65
 73
     0
 40
0.0
  0
ENDTAB
  0
TABLE
  2
LAYER
 70
     3
  0
LAYER
  2
0
 70
     0
 62
     7
  6
CONTINUOUS
  0
LAYER
  2
GASKET
 70
     0
 62
     1
  6
CONTINUOUS
  0
LAYER
  2
DEFPOINTS
 70
     0
 62
     7
  6
CONTINUOUS
  0
ENDTAB
  0
TABLE
  2
STYLE
 70
     2
  0
STYLE
  2
STANDARD
 70
     0
 40
0.0
 41
1.0
 50
0.0
 71
     0
 42
0.2
  3
txt
  4

  0
STYLE
  2
ANNOTATIVE
 70
     0
 40
0.0
 41
1.0
 50
0.0
 71
     0
 42
0.2
  3
txt
  4

  0
ENDTAB
  0
TABLE
  2
VIEW
 70
    12
  0
ENDTAB
  0
TABLE
  2
UCS
 70
     0
  0
ENDTAB
  0
TABLE
  2
APPID
 70
    12
  0
APPID
  2
ACAD
 70
     0
  0
APPID
  2
ACADANNOPO
 70
     0
  0
APPID
  2
ACADANNOTATIVE
 70
     0
  0
APPID
  2
ACAD_DSTYLE_DIMJAG
 70
     0
  0
APPID
  2
ACAD_DSTYLE_DIMTALN
 70
     0
  0
APPID
  2
ACAD_MLEADERVER
 70
     0
  0
APPID
  2
ACAD_NAV_VCDISPLAY
 70
     0
  0
APPID
  2
ADESKUNDERLAYLAYEROVERRIDEDATA
 70
     0
  0
APPID
  2
ACAD_EXEMPT_FROM_CAD_STANDARDS
 70
     0
  0
APPID
  2
ACAECLAYERSTANDARD
 70
     0
  0
APPID
  2
ACCMTRANSPARENCY
 70
     0
  0
APPID
  2
ACAD_DSTYLE_DIMRADIAL_EXTENSION
 70
     0
  0
ENDTAB
  0
TABLE
  2
DIMSTYLE
 70
     4
  0
DIMSTYLE
  2
STANDARD
 70
     0
  3

  4

  5

  6

  7

 40
1.0
 41
0.18
 42
0.0625
 43
0.38
 44
0.18
 45
0.0
 46
0.0
 47
0.0
 48
0.0
140
0.18
141
0.09
142
0.0
143
25.3999999999999986
144
1.0
145
0.0
146
1.0
147
0.09
 71
     0
 72
     0
 73
     1
 74
     1
 75
     0
 76
     0
 77
     0
 78
     0
170
     0
171
     2
172
     0
173
     0
174
     0
175
     0
176
     0
177
     0
178
     0
  0
DIMSTYLE
  2
ANNOTATIVE
 70
     0
  3

  4

  5

  6

  7

 40
0.0
 41
0.18
 42
0.0625
 43
0.38
 44
0.18
 45
0.0
 46
0.0
 47
0.0
 48
0.0
140
0.18
141
0.09
142
0.0
143
25.3999999999999986
144
1.0
145
0.0
146
1.0
147
0.09
 71
     0
 72
     0
 73
     1
 74
     1
 75
     0
 76
     0
 77
     0
 78
     0
170
     0
171
     2
172
     0
173
     0
174
     0
175
     0
176
     0
177
     0
178
     0
  0
ENDTAB
  0
ENDSEC
  0
SECTION
  2
BLOCKS
  0
BLOCK
  8
0
  2
$MODEL_SPACE
 70
     0
 10
0.0
 20
0.0
 30
0.0
  3
$MODEL_SPACE
  1

  0
ENDBLK
  5
21
  8
0
  0
BLOCK
 67
     1
  8
0
  2
$PAPER_SPACE
 70
     0
 10
0.0
 20
0.0
 30
0.0
  3
$PAPER_SPACE
  1

  0
ENDBLK
  5
76
 67
     1
  8
0
  0
BLOCK
  8
0
  2
BRKLINE
 70
     0
 10
0.0
 20
0.0
 30
0.0
  3
BRKLINE
  1

  0
POLYLINE
  5
4EB
  8
0
 66
     1
 10
0.0
 20
0.0
 30
0.0
  0
VERTEX
  5
8BF
  8
0
 10
6.808656731150684
 20
3.5124599417798281
 30
0.0
  0
VERTEX
  5
8C0
  8
0
 10
6.558656731150684
 20
4.1993292966434854
 30
0.0
  0
VERTEX
  5
8C1
  8
0
 10
6.058656731150684
 20
2.8255905869161722
 30
0.0
  0
VERTEX
  5
8C2
  8
0
 10
5.808656731150684
 20
3.5124599417798281
 30
0.0
  0
SEQEND
  5
8C3
  8
0
  0
POINT
  5
4EC
  8
DEFPOINTS
 10
6.808656731150684
 20
3.5124599417798281
 30
0.0
  0
POINT
  5
4ED
  8
DEFPOINTS
 10
5.808656731150684
 20
3.5124599417798281
 30
0.0
  0
ENDBLK
  5
4EF
  8
0
  0
BLOCK
  8
0
  2
A$C7B037299
 70
     0
 10
0.0
 20
0.0
 30
0.0
  3
A$C7B037299
  1

  0
CIRCLE
  5
527
  8
GASKET
 10
1.9022296294349621
 20
1.9022296294349661
 30
0.0
 40
1.9022296294349661
  0
ENDBLK
  5
52B
  8
0
  0
ENDSEC
  0
SECTION
  2
ENTITIES
  0
CIRCLE
  5
274
  8
GASKET
 10
6.2126444144286657
 20
23.1999999999999993
 30
0.0
 40
2.1551428864773952
  0
ARC
  5
279
  8
GASKET
 10
7.6057377124542418
 20
25.3901165081564102
 30
0.0
 40
0.5200000000000001
 50
349.5301035753770975
 51
128.004509482502101
  0
ARC
  5
280
  8
GASKET
 10
8.9431377583645393
 20
23.0722349415046288
 30
0.0
 40
0.43
 50
277.5094080442215159
 51
92.6688057170448474
  0
POINT
  5
282
  8
GASKET
 10
7.8866949115056739
 20
25.8276814202565212
 30
0.0
  0
POINT
  5
283
  8
GASKET
 10
7.3893413574497266
 20
25.8629511701057702
 30
0.0
  0
POINT
  5
284
  8
GASKET
 10
7.0909416142220101
 20
25.4634989123475393
 30
0.0
  0
POINT
  5
285
  8
GASKET
 10
7.2658430296051657
 20
24.9965792105962912
 30
0.0
  0
POINT
  5
286
  8
GASKET
 10
7.7532420488951228
 20
24.8914758853315803
 30
0.0
  0
POINT
  5
287
  8
GASKET
 10
8.1050262615124335
 20
25.2448204490929697
 30
0.0
  0
ARC
  5
289
  8
GASKET
 10
7.0884654849065321
 20
26.3616462769946693
 30
0.0
 40
0.5953605122694814
 50
246.214092735656692
 51
289.3327137114989114
  0
POLYLINE
  5
28A
  8
GASKET
 66
     1
 10
0.0
 20
0.0
 30
0.0
  0
VERTEX
  5
898
  8
GASKET
 10
3.3821738881611618
 20
25.5680408699075485
 30
0.0
  0
VERTEX
  5
899
  8
GASKET
 10
3.8879891490128569
 20
25.5255115580070999
 30
0.0
 42
-0.3169746209345254
  0
VERTEX
  5
89A
  8
GASKET
 10
4.065622694317363
 20
25.3268195474686308
 30
0.0
  0
VERTEX
  5
89B
  8
GASKET
 10
4.0879044049400957
 20
24.9937161463010113
 30
0.0
 42
-0.0742142498338669
  0
VERTEX
  5
89C
  8
GASKET
 10
4.0831054039369929
 20
24.9348653017929287
 30
0.0
 42
-0.0669909860551179
  0
VERTEX
  5
89D
  8
GASKET
 10
4.0311065171319438
 20
24.7980908352499512
 30
0.0
 42
0.095536673685175
  0
VERTEX
  5
89E
  8
GASKET
 10
3.596209623119818
 20
23.874120665022371
 30
0.0
 42
-0.2624916318908517
  0
VERTEX
  5
89F
  8
GASKET
 10
3.38323194782157
 20
23.53599201537045
 30
0.0
 42
0.7915254862706825
  0
VERTEX
  5
8A0
  8
GASKET
 10
3.3595713450510192
 20
22.7088590022096106
 30
0.0
  0
SEQEND
  5
8A1
  8
GASKET
  0
ARC
  5
295
  8
GASKET
 10
8.4171043842590532
 20
22.0485805408858617
 30
0.0
 40
0.43
 50
281.2439645140102016
 51
30.2970242793853615
  0
ARC
  5
29D
  8
GASKET
 10
7.9047234627735099
 20
21.0994039081835112
 30
0.0
 40
0.43
 50
306.0469556490839977
 51
22.0342511443839193
  0
ARC
  5
2A1
  8
GASKET
 10
9.0346200492941033
 20
22.3782385507025801
 30
0.0
 40
0.27
 50
97.5094080442212743
 51
208.095332193594686
  0
POLYLINE
  5
2A2
  8
GASKET
 66
     1
 10
0.0
 20
0.0
 30
0.0
  0
VERTEX
  5
8A2
  8
GASKET
 10
8.9231158381245415
 20
23.5017685521917983
 30
0.0
 42
0.1407679094336797
  0
VERTEX
  5
8A3
  8
GASKET
 10
8.3348207719894045
 20
24.8898374261698514
 30
0.0
 42
-0.3072669855307293
  0
VERTEX
  5
8A4
  8
GASKET
 10
8.1170799826336051
 20
25.295622684401561
 30
0.0
  0
SEQEND
  5
8A5
  8
GASKET
  0
POLYLINE
  5
2A3
  8
GASKET
 66
     1
 10
0.0
 20
0.0
 30
0.0
  0
VERTEX
  5
8A6
  8
GASKET
 10
8.7883757378988836
 20
22.2655081370245185
 30
0.0
 42
0.000108545248889
  0
VERTEX
  5
8A7
  8
GASKET
 10
8.7887689507885121
 20
22.2666265559907792
 30
0.0
  0
SEQEND
  5
8A8
  8
GASKET
  0
ARC
  5
2A4
  8
GASKET
 10
8.5535952883839919
 20
21.3620164629651192
 30
0.0
 40
0.27
 50
101.2439645140105995
 51
202.0342511443847968
  0
LINE
  5
2AE
  8
GASKET
 10
8.1577561324769068
 20
20.7517338518617613
 30
0.0
 11
4.4756998199562252
 21
20.6091603776136196
 31
0.0
  0
ARC
  5
2B0
  8
GASKET
 10
4.6553425072557104
 20
21.0902101428316087
 30
0.0
 40
0.513498171093591
 50
164.756805641573095
 51
249.5224128657062863
  0
POLYLINE
  5
2B1
  8
GASKET
 66
     1
 10
0.0
 20
0.0
 30
0.0
  0
VERTEX
  5
8A9
  8
GASKET
 10
5.1971073452897683
 20
20.6370941104263999
 30
0.0
 42
0.0021166762356003
  0
VERTEX
  5
8AA
  8
GASKET
 10
5.2186033019323581
 20
20.6285868195497386
 30
0.0
  0
SEQEND
  5
8AB
  8
GASKET
  0
ARC
  5
2B2
  8
GASKET
 10
4.0419464825640139
 20
21.9087973530851308
 30
0.0
 40
0.4177967225748801
 50
147.8509522954886108
 51
261.8309062782440151
  0
ARC
  5
2B5
  8
GASKET
 10
3.951952415062788
 20
21.2818865359374705
 30
0.0
 40
0.2155405531654422
 50
344.7568056415728961
 51
81.8309062782440009
  0
ARC
  5
2B9
  8
GASKET
 10
3.291721019592821
 20
22.3963743336335703
 30
0.0
 40
0.3197660625517717
 50
14.1256819150272097
 51
77.7494303753706646
  0
ARC
  5
2BC
  8
GASKET
 10
3.30872450645492
 20
22.17669659383089
 30
0.0
 40
0.3822148623100265
 50
353.1510834717630019
 51
24.1758449951682017
  0
LINE
  5
2BD
  8
GASKET
 10
3.6574163933648571
 20
22.3332282806353817
 30
0.0
 11
3.601818226602937
 21
22.4744131506696405
 31
0.0
  0
POLYLINE
  5
2C9
  8
GASKET
 66
     1
 10
0.0
 20
0.0
 30
0.0
 70
     1
  0
VERTEX
  5
8AC
  8
GASKET
 10
3.4133060710185532
 20
26.5822564308794504
 30
0.0
  0
VERTEX
  5
8AD
  8
GASKET
 10
6.2992930436649877
 20
26.7101603266680208
 30
0.0
 42
-0.4546453837051775
  0
VERTEX
  5
8AE
  8
GASKET
 10
6.4080222480476996
 20
26.5909042870288204
 30
0.0
  0
VERTEX
  5
8AF
  8
GASKET
 10
6.4273087238966289
 20
25.9361172967042002
 30
0.0
 42
-0.4804380319666347
  0
VERTEX
  5
8B0
  8
GASKET
 10
6.3119623664596807
 20
25.8153898536632802
 30
0.0
  0
VERTEX
  5
8B1
  8
GASKET
 10
5.5607268875847797
 20
25.8174118896550908
 30
0.0
 42
0.0887816974987754
  0
VERTEX
  5
8B2
  8
GASKET
 10
5.4760827610693923
 20
25.7969313516792091
 30
0.0
  0
VERTEX
  5
8B3
  8
GASKET
 10
5.1313392370759914
 20
25.6469653181029003
 30
0.0
 42
-0.1308614451570488
  0
VERTEX
  5
8B4
  8
GASKET
 10
4.9049191167947583
 20
25.644270545496429
 30
0.0
  0
VERTEX
  5
8B5
  8
GASKET
 10
4.6662978027503073
 20
25.7057281294327211
 30
0.0
 42
0.0133574045134471
  0
VERTEX
  5
8B6
  8
GASKET
 10
4.58640524887221
 20
25.7123842959571505
 30
0.0
  0
VERTEX
  5
8B7
  8
GASKET
 10
3.3863828915583261
 20
25.7923691620169286
 30
0.0
 42
-0.4782667192460138
  0
VERTEX
  5
8B8
  8
GASKET
 10
3.3249909731017899
 20
25.8805734402441203
 30
0.0
  0
VERTEX
  5
8B9
  8
GASKET
 10
3.3024295506848769
 20
26.4742072749224597
 30
0.0
 42
-0.5160659962761731
  0
SEQEND
  5
8BA
  8
GASKET
  0
LINE
  5
2D2
  8
GASKET
 10
3.3821738881611618
 20
25.5680408699075485
 30
0.0
 11
3.2698360692306978
 21
25.604140494957889
 31
0.0
  0
ARC
  5
2D4
  8
GASKET
 10
3.3786915966028528
 20
25.8900480140505316
 30
0.0
 40
0.3059291344628299
 50
209.6878305154635029
 51
249.1563268707145937
  0
ARC
  5
2E6
  8
GASKET
 10
3.0845892368735401
 20
26.1521743024680795
 30
0.0
 40
0.2759902462404682
 50
110.7593518836341957
 51
246.4876395189230038
  0
ARC
  5
2E9
  8
GASKET
 10
2.802356004633757
 20
25.6107357687794384
 30
0.0
 40
0.3358288070969158
 50
22.366610689878371
 51
59.1664196933346886
  0
ARC
  5
2EB
  8
GASKET
 10
2.9158775084770072
 20
26.5972620097994792
 30
0.0
 40
0.2
 50
290.7593518836339967
 51
354.1382195300208764
  0
ARC
  5
2ED
  8
GASKET
 10
3.3645349497439829
 20
26.5512002285971604
 30
0.0
 40
0.2510157284305734
 50
91.4202565291572569
 51
174.1382195300207911
  0
LINE
  5
2EE
  8
GASKET
 10
6.2380893935383313
 20
26.9391642135161788
 30
0.0
 11
3.3583133707382808
 21
26.802138842354001
 31
0.0
  0
LINE
  5
2F2
  8
GASKET
 10
6.6478246770696501
 20
26.5394386940453302
 30
0.0
 11
6.6678452864875739
 21
26.0860008247230013
 31
0.0
  0
ARC
  5
2F4
  8
GASKET
 10
6.205449977367925
 20
26.4958468405928187
 30
0.0
 40
0.4445172939533598
 50
5.6277897569392703
 51
85.789173242657796
  0
ARC
  5
2F5
  8
GASKET
 10
6.9131508468146814
 20
26.0554154096834196
 30
0.0
 40
0.247204946432185
 50
172.8928718550459109
 51
254.8019592044900037
  0
CIRCLE
  5
2F6
  8
GASKET
 10
3.0624398922869882
 20
26.1563055817133296
 30
0.0
 40
0.1457540624785452
  0
CIRCLE
  5
2FE
  8
GASKET
 10
4.5952696452886519
 20
25.2738298150802194
 30
0.0
 40
0.2356031336852169
  0
CIRCLE
  5
306
  8
GASKET
 10
7.5951563606571559
 20
25.3763212406305492
 30
0.0
 40
0.2356031336852169
  0
CIRCLE
  5
30E
  8
GASKET
 10
8.968882249181334
 20
23.0610664304447397
 30
0.0
 40
0.1689917091623698
  0
CIRCLE
  5
316
  8
GASKET
 10
8.4388890005790671
 20
22.05665584253126
 30
0.0
 40
0.1689917091623698
  0
CIRCLE
  5
31E
  8
GASKET
 10
7.774505837193586
 20
21.1193186344500106
 30
0.0
 40
0.2375538753632043
  0
CIRCLE
  5
326
  8
GASKET
 10
4.67981107220126
 20
21.1007954483800191
 30
0.0
 40
0.2375538753632043
  0
CIRCLE
  5
32E
  8
GASKET
 10
4.0435149934700121
 20
21.9083005584729307
 30
0.0
 40
0.1677837386775138
  0
CIRCLE
  5
336
  8
GASKET
 10
3.451889000435556
 20
23.1015126294381083
 30
0.0
 40
0.1677837386775138
  0
ARC
  5
33E
  8
GASKET
 10
43.3628638064567369
 20
27.5072474650868593
 30
0.0
 40
0.2762827298506148
 50
140.5172417177321051
 51
277.4679311306284717
  0
ARC
  5
33F
  8
GASKET
 10
44.8808216056447833
 20
28.32301292821667
 30
0.0
 40
1.751964394162941
 50
221.0536811084485862
 51
245.2903851855245989
  0
ARC
  5
340
  8
GASKET
 10
42.9913856588969878
 20
27.8132827155964506
 30
0.0
 40
0.2050213202766272
 50
320.5172417177334978
 51
15.0977745096282892
  0
ARC
  5
341
  8
GASKET
 10
43.4224277034057309
 20
27.0528495844028392
 30
0.0
 40
0.1820024344192781
 50
41.0536811084470727
 51
97.4679311306292391
  0
ARC
  5
349
  8
GASKET
 10
44.2330692053346866
 20
29.8846991330844993
 30
0.0
 40
0.2762827298506148
 50
53.4052307253133378
 51
175.7779504213619077
  0
ARC
  5
34E
  8
GASKET
 10
89.7616432112895666
 20
56.646025856433333
 30
0.0
 40
1.751964394162941
 50
221.0536811084485862
 51
195.0977745096284082
  0
ARC
  5
350
  8
GASKET
 10
44.8808216056447833
 20
28.32301292821667
 30
0.0
 40
1.751964394162941
 50
125.1126593203319004
 51
195.0977745096284082
  0
ARC
  5
351
  8
GASKET
 10
43.7580790027206916
 20
29.9197640182927387
 30
0.0
 40
0.2
 50
305.1126593203325115
 51
355.7779504213622772
  0
ARC
  5
359
  8
GASKET
 10
44.7763090180353771
 20
24.7240096182687488
 30
0.0
 40
0.3146871747595195
 50
336.1408977138636942
 51
37.5117376485517724
  0
LINE
  5
35A
  8
GASKET
 10
44.258264258555549
 20
26.6007223481597208
 30
0.0
 11
44.651551944887153
 21
25.1077809189870891
 31
0.0
  0
ARC
  5
35C
  8
GASKET
 10
44.4581500634470785
 20
25.0568327859944304
 30
0.0
 40
0.2
 50
315.0300900296294913
 51
14.7582188803654208
  0
ARC
  5
35D
  8
GASKET
 10
44.0648623771154888
 20
26.5497742151670586
 30
0.0
 40
0.2
 50
14.7582188803669201
 51
65.290385185523931
  0
ARC
  5
365
  8
GASKET
 10
44.9555838300046631
 20
23.7259540839685386
 30
0.0
 40
0.3375791152915247
 50
290.8190490646588842
 51
60.0730117386127489
  0
LINE
  5
366
  8
GASKET
 10
44.7593933566304472
 20
24.2719368006766096
 30
0.0
 11
44.7148482657887598
 21
24.0047326583252882
 31
0.0
  0
ARC
  5
367
  8
GASKET
 10
44.5621158970315605
 20
24.3048245481550715
 30
0.0
 40
0.2
 50
350.5353688565546122
 51
60.7125072600447808
  0
ARC
  5
368
  8
GASKET
 10
44.5175708061898803
 20
24.0376204058037608
 30
0.0
 40
0.2
 50
324.5664073388454085
 51
350.535368856554328
  0
ARC
  5
371
  8
GASKET
 10
44.6381174820346018
 20
22.3713567791927517
 30
0.0
 40
0.2770529640495098
 50
111.7600883712048017
 51
222.9165060635313012
  0
LINE
  5
373
  8
GASKET
 10
44.7006138750883082
 20
23.4262632918251086
 30
0.0
 11
44.6608600138662766
 21
22.801712325854151
 31
0.0
  0
ARC
  5
374
  8
GASKET
 10
44.4612639434209029
 20
22.8144169967573589
 30
0.0
 40
0.2
 50
291.7600883712045743
 51
356.3579276543219976
  0
ARC
  5
375
  8
GASKET
 10
44.5010178046429274
 20
23.4389679627283307
 30
0.0
 40
0.2
 50
356.357927654322225
 51
32.2658931197955425
  0
ARC
  5
376
  8
GASKET
 10
45.2407352214685829
 20
21.5698604559011891
 30
0.0
 40
0.8646492027503148
 50
153.4030455545866118
 51
277.2524545911089149
  0
ARC
  5
377
  8
GASKET
 10
44.2887492881216573
 20
22.0465162096968186
 30
0.0
 40
0.2
 50
333.4030455545868108
 51
42.9165060635305409
  0
ARC
  5
37F
  8
GASKET
 10
45.6998728716606166
 20
20.8829113833776887
 30
0.0
 40
0.2916791164454722
 50
228.6649760310978934
 51
0.961276542969305
  0
LINE
  5
381
  8
GASKET
 10
46.2006207029865266
 20
21.0909512509195487
 30
0.0
 11
51.2065500636721822
 21
20.8619934174112807
 31
0.0
  0
ARC
  5
383
  8
GASKET
 10
45.37513809888042
 20
20.513728934044039
 30
0.0
 40
0.2
 50
48.6649760310978792
 51
97.2524545911092133
  0
ARC
  5
384
  8
GASKET
 10
46.1914827901919196
 20
20.8911601136042115
 30
0.0
 40
0.2
 50
87.381269161148154
 51
180.9612765429685908
  0
ARC
  5
385
  8
GASKET
 10
51.4451210799991614
 20
21.3643646241742005
 30
0.0
 40
0.5445748256608943
 50
250.5681703281206865
 51
289.3180516183613236
  0
ARC
  5
386
  8
GASKET
 10
51.1974121508775966
 20
20.6622022800959293
 30
0.0
 40
0.2
 50
70.5681703281220081
 51
87.3812691611522467
  0
ARC
  5
387
  8
GASKET
 10
52.5526731112835321
 20
22.7242853237593891
 30
0.0
 40
1.880968966249718
 50
267.3449138532213283
 51
314.7359110134407842
  0
LINE
  5
388
  8
GASKET
 10
51.6956768329821799
 20
20.8616667796792399
 30
0.0
 11
52.5411738832603987
 21
20.8437311630146311
 31
0.0
  0
ARC
  5
38A
  8
GASKET
 10
51.6914351664868832
 20
20.6617117640748802
 30
0.0
 40
0.2
 50
88.7847609458949449
 51
109.3180516183601014
  0
ARC
  5
38B
  8
GASKET
 10
55.0819583169660802
 20
21.5796964825842608
 30
0.0
 40
0.2592994906491413
 50
200.443463054022601
 51
329.5688407444242785
  0
LINE
  5
38C
  8
GASKET
 10
54.3051951563970476
 20
21.6299359873857
 30
0.0
 11
54.6618254053446009
 21
21.6190087570135603
 31
0.0
  0
ARC
  5
38D
  8
GASKET
 10
54.6515867472608292
 20
21.4192710042459709
 30
0.0
 40
0.2
 50
20.4434630540221107
 51
87.0655578252293481
  0
ARC
  5
390
  8
GASKET
 10
54.3547445750227709
 20
21.041330061814751
 30
0.0
 40
0.5906878029072209
 50
81.6781177795420774
 51
144.0484899784748052
  0
ARC
  5
391
  8
GASKET
 10
55.4740573604764222
 20
23.7590829996459405
 30
0.0
 40
2.2120261689100111
 50
270.0932730651182965
 51
346.2765517717508033
  0
ARC
  5
392
  8
GASKET
 10
55.4779839494235034
 20
21.3470600268270694
 30
0.0
 40
0.2
 50
90.0932730651189928
 51
149.5688407444243921
  0
ARC
  5
393
  8
GASKET
 10
55.6413854170617981
 20
25.8367180421592799
 30
0.0
 40
0.295176801117222
 50
205.4408703728325918
 51
305.5569496469087767
  0
ARC
  5
395
  8
GASKET
 10
56.0617597085337778
 20
26.0984154235640418
 30
0.0
 40
0.2
 50
211.9036768435578892
 51
255.897634919690887
  0
ARC
  5
396
  8
GASKET
 10
57.5420929916769524
 20
23.5952400405866989
 30
0.0
 40
0.2841943744437998
 50
134.4811846963283983
 51
219.6707562401259111
  0
ARC
  5
39A
  8
GASKET
 10
55.4740573604764222
 20
23.7590829996459405
 30
0.0
 40
2.2120261689100111
 50
4.7369991888874106
 51
75.8976349196918534
  0
ARC
  5
39B
  8
GASKET
 10
52.9127979686013532
 20
25.7515956559451311
 30
0.0
 40
2.7080814912778228
 50
11.1924692726807802
 51
48.3109838336692334
  0
ARC
  5
39C
  8
GASKET
 10
55.7655697165329087
 20
26.3160700257053506
 30
0.0
 40
0.2
 50
191.1924692726809951
 51
255.4758651132671901
  0
ARC
  5
3A4
  8
GASKET
 10
54.4198378815870996
 20
27.7483653720393484
 30
0.0
 40
0.295176801117222
 50
4.9622570627633964
 51
45.9608185776179923
  0
ARC
  5
3A5
  8
GASKET
 10
54.8981406030901127
 20
27.8765315570004617
 30
0.0
 40
0.2
 50
195.0005987251549016
 51
226.9451314623086091
  0
ARC
  5
3AE
  8
GASKET
 10
54.7640600966793585
 20
28.1043304419572593
 30
0.0
 40
0.2
 50
154.6948670972738
 51
225.9608185776183973
  0
ARC
  5
3B8
  8
GASKET
 10
54.6453437318565491
 20
28.6861166044632299
 30
0.0
 40
0.2
 50
187.9213212105075002
 51
228.3714423455762983
  0
LINE
  5
3BA
  8
GASKET
 10
49.9717105717370913
 20
29.8520441179712215
 30
0.0
 11
52.4109574500031385
 21
29.7768212540614385
 31
0.0
  0
ARC
  5
3BD
  8
GASKET
 10
52.4171222315155632
 20
29.9767262201550899
 30
0.0
 40
0.2
 50
268.2336404063050281
 51
291.9189199397965808
  0
ARC
  5
3BE
  8
GASKET
 10
53.0270438336922183
 20
28.4609450993024993
 30
0.0
 40
1.4338900719249861
 50
7.9213212105080988
 51
111.9189199397971066
  0
ARC
  5
3C6
  8
GASKET
 10
49.519284764098181
 20
29.9131592853506802
 30
0.0
 40
0.2791324834380191
 50
16.8381369995209198
 51
151.9013884840045137
  0
ARC
  5
3C7
  8
GASKET
 10
49.9778753532494875
 20
30.05194908406488
 30
0.0
 40
0.2
 50
196.8381369995215948
 51
268.2336404063091209
  0
LINE
  5
3C8
  8
GASKET
 10
45.0045864974294076
 20
30.0939393413530496
 30
0.0
 11
49.0890408600806012
 21
29.9389699339892488
 31
0.0
  0
ARC
  5
3C9
  8
GASKET
 10
49.096623659227717
 20
30.1388261351867612
 30
0.0
 40
0.2
 50
267.8271672836713151
 51
331.9013884840039168
  0
ARC
  5
3CA
  8
GASKET
 10
44.8500458587685031
 20
28.72431119290178
 30
0.0
 40
1.3783192932074111
 50
83.5623156867714272
 51
102.181502713181203
  0
ARC
  5
3CB
  8
GASKET
 10
44.5170059075290823
 20
30.267093154874761
 30
0.0
 40
0.2
 50
233.4052307253136007
 51
282.1815027131809757
  0
ARC
  5
4C8
  8
GASKET
 10
43.2994892918819119
 20
27.5016479145959103
 30
0.0
 40
0.3165149751513705
 50
8.1002805629572503
 51
39.0415584088515502
  0
ARC
  5
4D0
  8
GASKET
 10
44.9310085340461498
 20
28.3934540661959502
 30
0.0
 40
1.587613437314024
 50
216.0376088469444937
 51
244.899407603668692
  0
ARC
  5
4D1
  8
GASKET
 10
43.8108509804670092
 20
27.5744280149188192
 30
0.0
 40
0.2
 50
188.1002805629576926
 51
215.0970391377109081
  0
ARC
  5
4D2
  8
GASKET
 10
43.7006609419485414
 20
27.8269923885591801
 30
0.0
 40
0.2
 50
205.4769820555692093
 51
219.0415584088505057
  0
LINE
  5
4D4
  8
GASKET
 10
44.9400601490178033
 20
25.0755362913470208
 30
0.0
 11
44.5456698503631898
 21
26.6034900645102788
 31
0.0
  0
ARC
  5
4D5
  8
GASKET
 10
44.0212501733248871
 20
26.4685273878367688
 30
0.0
 40
0.5415080071059371
 50
14.4322402459999299
 51
64.1297397497681771
  0
ARC
  5
4D6
  8
GASKET
 10
45.4695854892255511
 20
25.2568772368730983
 30
0.0
 40
0.5597156639280568
 50
198.9042515050315956
 51
217.5663190570506913
  0
LINE
  5
4D7
  8
GASKET
 10
45.0256350412272397
 20
24.4226293831699586
 30
0.0
 11
45.0237864193907384
 21
24.1934667118512294
 31
0.0
  0
ARC
  5
4D8
  8
GASKET
 10
45.579745617397883
 20
24.3914853492190211
 30
0.0
 40
0.5549851182463325
 50
158.2963492993235093
 51
176.7830496198695016
  0
ARC
  5
4D9
  8
GASKET
 10
44.7951096332611201
 20
24.720226952615679
 30
0.0
 40
0.2762827298506148
 50
135.030090029627786
 51
240.7125072600437079
  0
ARC
  5
4DA
  8
GASKET
 10
45.2237799122948232
 20
24.1918533935214484
 30
0.0
 40
0.2
 50
179.5378133309660882
 51
240.073011738613701
  0
ARC
  5
4DB
  8
GASKET
 10
43.0089181725589924
 20
22.7166740564290315
 30
0.0
 40
1.912055261045672
 50
336.17880857337218
 51
0.9085948484728323
  0
LINE
  5
4DC
  8
GASKET
 10
44.9210075904468127
 20
22.7611107290639296
 30
0.0
 11
44.9469487020796095
 21
23.2344199832394303
 31
0.0
  0
ARC
  5
4DD
  8
GASKET
 10
45.1466489859738118
 20
23.2234748193494411
 30
0.0
 40
0.2
 50
110.8190490646585999
 51
176.8628742799996871
  0
ARC
  5
4DE
  8
GASKET
 10
45.1207078743410079
 20
22.7501655651739405
 30
0.0
 40
0.2
 50
176.8628742799996871
 51
180.9085948484724895
  0
ARC
  5
4DF
  8
GASKET
 10
45.2144598908740321
 20
21.5513125598673092
 30
0.0
 40
0.5958155334984376
 50
143.4533133434119065
 51
309.501160588951393
  0
ARC
  5
4E0
  8
GASKET
 10
44.5751240450336965
 20
22.0252028842895804
 30
0.0
 40
0.2
 50
323.4533133434118781
 51
336.1788085733721232
  0
ARC
  5
4E1
  8
GASKET
 10
44.9555838300046631
 20
23.7259540839685386
 30
0.0
 40
0.3375791152915247
 50
144.5664073388448116
 51
212.2658931197962886
  0
ARC
  5
4E2
  8
GASKET
 10
47.2808211749884535
 20
22.7070460684841784
 30
0.0
 40
1.391336113023508
 50
266.854554366561274
 51
326.9468416348598225
  0
ARC
  5
4E3
  8
GASKET
 10
46.3126651110042218
 20
20.3030647940798801
 30
0.0
 40
1.063567958782538
 50
83.8924730938432788
 51
124.1733524923889007
  0
LINE
  5
4E4
  8
GASKET
 10
45.7152604213281109
 20
21.1829991323698685
 30
0.0
 11
45.5934544876162775
 21
21.0915743239131999
 31
0.0
  0
LINE
  5
4E5
  8
GASKET
 10
46.4258231005410096
 20
21.3605959153017793
 30
0.0
 11
47.2044774338890818
 21
21.3178060558879707
 31
0.0
  0
ARC
  5
4E6
  8
GASKET
 10
49.0090876146431924
 20
21.9475806357801915
 30
0.0
 40
0.4722323652188393
 50
88.0584351759102049
 51
150.2211931931267088
  0
POLYLINE
  5
4F2
  8
0
 66
     1
 10
0.0
 20
0.0
 30
0.0
  0
VERTEX
  5
8C4
  8
0
 10
0.2680573516201057
 20
0.1382858244795208
 30
0.0
  0
VERTEX
  5
8C5
  8
0
 10
0.2582148319350663
 20
0.1653279250647041
 30
0.0
  0
VERTEX
  5
8C6
  8
0
 10
0.2385297925649875
 20
0.1112437238943375
 30
0.0
  0
VERTEX
  5
8C7
  8
0
 10
0.2286872728799482
 20
0.1382858244795208
 30
0.0
  0
SEQEND
  5
8C8
  8
0
  0
POINT
  5
4F3
  8
DEFPOINTS
 10
0.2680573516201057
 20
0.1382858244795208
 30
0.0
  0
POINT
  5
4F4
  8
DEFPOINTS
 10
0.2286872728799482
 20
0.1382858244795208
 30
0.0
  0
LINE
  5
4F6
  8
GASKET
 10
48.4469902651678694
 20
21.9481878257843306
 30
0.0
 11
48.6286364709073382
 21
22.2273311210170483
 31
0.0
  0
ARC
  5
505
  8
GASKET
 10
50.3536559632262595
 20
22.0578145874258489
 30
0.0
 40
0.3165311617783409
 50
15.4274348258101792
 51
88.7599635061951915
  0
ARC
  5
50D
  8
GASKET
 10
50.5046440399687384
 20
21.8125423516209906
 30
0.0
 40
0.3165311617783409
 50
359.7412539845636843
 51
47.8049576554727409
  0
ARC
  5
50E
  8
GASKET
 10
50.8515755454655221
 20
22.1952210309092592
 30
0.0
 40
0.2
 50
195.4274348258103942
 51
227.8049576554716964
  0
LINE
  5
510
  8
GASKET
 10
49.0250869481386928
 20
22.4195418927577883
 30
0.0
 11
50.3605060236257671
 21
22.3742716193421494
 31
0.0
  0
ARC
  5
511
  8
GASKET
 10
51.0011156919572031
 20
21.3779949726277998
 30
0.0
 40
0.1816108667634987
 50
181.6525065471903986
 51
278.2894503916390931
  0
ARC
  5
519
  8
GASKET
 10
51.4268015687701379
 20
21.4232208465691798
 30
0.0
 40
0.3435211012906133
 50
229.1418182817070033
 51
300.9546922252421268
  0
ARC
  5
51A
  8
GASKET
 10
51.0626788761842008
 20
20.9202192804152496
 30
0.0
 40
0.280303981811052
 50
60.1785156070475793
 51
97.2511426204803655
  0
LINE
  5
51C
  8
GASKET
 10
50.8195803557777168
 20
21.3727577362582792
 30
0.0
 11
50.8211740085408934
 21
21.8116732299616309
 31
0.0
  0
ARC
  5
51D
  8
GASKET
 10
52.3361052975365908
 20
21.3515003046563088
 30
0.0
 40
0.2242980996886525
 50
267.2359649416732168
 51
8.2518820037307883
  0
LINE
  5
51E
  8
GASKET
 10
51.7160116929691682
 20
21.1568784343516789
 30
0.0
 11
52.3252890144707692
 21
21.1274631525038608
 31
0.0
  0
ARC
  5
51F
  8
GASKET
 10
51.7063671323769825
 20
20.9571111135732799
 30
0.0
 40
0.2
 50
87.2359649416754763
 51
120.9546922252422974
  0
ARC
  5
520
  8
GASKET
 10
52.0238470689141366
 20
23.0629756383512614
 30
0.0
 40
1.60567734514857
 50
293.9211190077846254
 51
342.6895627863524965
  0
ARC
  5
521
  8
GASKET
 10
52.8774305316008579
 20
21.3453329552817088
 30
0.0
 40
0.3216449734749656
 50
129.0224668417712053
 51
173.1505341697418032
  0
ARC
  5
522
  8
GASKET
 10
53.7942456762803474
 20
22.7188745567431312
 30
0.0
 40
0.1871244081807952
 50
357.2567554714192966
 51
165.3628002209993895
  0
LINE
  5
524
  8
GASKET
 10
53.613194333071732
 20
22.7661604453291204
 30
0.0
 11
53.5567978482571405
 21
22.5852082840510597
 31
0.0
  0
ARC
  5
52C
  8
GASKET
 10
55.5517209365703408
 20
23.7041482764071993
 30
0.0
 40
1.870781950828976
 50
217.0455008348909871
 51
345.6180719795651726
  0
ARC
  5
52D
  8
GASKET
 10
55.9293366027017811
 20
25.4338729366246383
 30
0.0
 40
0.2
 50
75.6610634264769004
 51
125.5569496469082935
  0
ARC
  5
52E
  8
GASKET
 10
57.2028300969543722
 20
23.9407033244642804
 30
0.0
 40
0.2
 50
314.4811846963277731
 51
5.2592887603821659
  0
ARC
  5
52F
  8
GASKET
 10
57.1693962435027103
 20
23.2861424408817506
 30
0.0
 40
0.2
 50
346.5064563838752747
 51
39.6707562401260816
  0
ARC
  5
533
  8
GASKET
 10
55.5077667175767431
 20
23.784671753238591
 30
0.0
 40
1.9022296294349661
 50
5.2592887603820246
 51
75.6610634264761188
  0
ARC
  5
534
  8
GASKET
 10
55.1692548129327704
 20
23.3131975744541116
 30
0.0
 40
1.3324882778218481
 50
206.9200072704518902
 51
213.5335527080758027
  0
ARC
  5
53C
  8
GASKET
 10
55.1679425444517335
 20
26.17066283410675
 30
0.0
 40
0.3472940467983109
 50
112.3479906522259029
 51
272.752690518780696
  0
ARC
  5
53D
  8
GASKET
 10
55.1942263590014477
 20
25.6240002921728909
 30
0.0
 40
0.2
 50
25.4408703728330607
 51
92.7526905187818045
  0
LINE
  5
53E
  8
GASKET
 10
54.7065927552988214
 20
27.3839105024913607
 30
0.0
 11
55.1233734872237591
 21
26.7919948931551097
 31
0.0
  0
ARC
  5
53F
  8
GASKET
 10
54.9598443941859927
 20
26.6768504806539291
 30
0.0
 40
0.2
 50
292.3479906522254055
 51
35.1502143691681113
  0
ARC
  5
540
  8
GASKET
 10
54.5430636622610621
 20
27.26876608999018
 30
0.0
 40
0.2
 50
35.1502143691692766
 51
104.4095950444235967
  0
ARC
  5
541
  8
GASKET
 10
55.6413854170617981
 20
25.8367180421592799
 30
0.0
 40
0.295176801117222
 50
31.9036768435581308
 51
75.4758651132664369
  0
ARC
  5
542
  8
GASKET
 10
51.4914778220498306
 20
28.9672650121878092
 30
0.0
 40
0.2989164730162685
 50
222.3275019350319042
 51
330.6863168443106247
  0
ARC
  5
543
  8
GASKET
 10
52.9774734761922375
 20
28.393179553389519
 30
0.0
 40
1.2779114465402179
 50
341.2495288407836824
 51
151.1594851213849893
  0
LINE
  5
545
  8
GASKET
 10
54.187562949820709
 20
27.9823984303908411
 30
0.0
 11
54.1403221998460396
 21
27.8432354283196517
 31
0.0
  0
ARC
  5
546
  8
GASKET
 10
54.3163983515832811
 20
28.3159882467796287
 30
0.0
 40
0.295176801117222
 50
334.6948670972731179
 51
48.3714423455749412
  0
ARC
  5
547
  8
GASKET
 10
54.4198378815870996
 20
27.7483653720393484
 30
0.0
 40
0.295176801117222
 50
161.2467174195197117
 51
284.4095950444238952
  0
LINE
  5
549
  8
GASKET
 10
51.7521187506669378
 20
28.8209182863272915
 30
0.0
 11
51.8684003557856599
 21
29.0280137670155192
 31
0.0
  0
ARC
  5
54A
  8
GASKET
 10
50.0510873463755388
 20
27.8386750443769699
 30
0.0
 40
1.528690394306379
 50
38.8846700766443902
 51
87.8740582219189861
  0
LINE
  5
54D
  8
GASKET
 10
51.1174042446725565
 20
28.9340574406435991
 30
0.0
 11
51.2704864929066773
 21
28.7659843864832183
 31
0.0
  0
ARC
  5
54E
  8
GASKET
 10
48.0181903058618715
 20
29.4662610100253808
 30
0.0
 40
0.1343814005993159
 50
224.1186445721147891
 51
316.1919672971147861
  0
LINE
  5
54F
  8
GASKET
 10
48.2669202863246767
 20
29.4346497128261113
 30
0.0
 11
50.1077959055690414
 21
29.3663132413852814
 31
0.0
  0
ARC
  5
550
  8
GASKET
 10
48.2595010522659535
 20
29.234787372786819
 30
0.0
 40
0.2
 50
87.8740582219183182
 51
136.1919672971147861
  0
ARC
  5
558
  8
GASKET
 10
47.1982077241112776
 20
29.5832920920071913
 30
0.0
 40
0.1343814005993159
 50
211.954919286993686
 51
268.4876025193768214
  0
LINE
  5
559
  8
GASKET
 10
47.7834166142120012
 20
29.43341291434702
 30
0.0
 11
47.1946609621558508
 21
29.4489575048500996
 31
0.0
  0
ARC
  5
55A
  8
GASKET
 10
47.7781379641315525
 20
29.2334825868493517
 30
0.0
 40
0.2
 50
44.1186445721155707
 51
88.487602519376793
  0
ARC
  5
55B
  8
GASKET
 10
46.8273680490427182
 20
29.5882078230086485
 30
0.0
 40
0.177661342154742
 50
31.9549192869934195
 51
87.7728581417900529
  0
LINE
  5
55D
  8
GASKET
 10
47.0841898389203024
 20
29.5121704871067685
 30
0.0
 11
46.9781074402258128
 21
29.6822354170540805
 31
0.0
  0
ARC
  5
55E
  8
GASKET
 10
44.8063139143613327
 20
28.3538166703215389
 30
0.0
 40
1.4247499006979529
 50
116.2655941543494009
 51
205.4769820555700051
  0
ARC
  5
55F
  8
GASKET
 10
44.2295792880570673
 20
29.881537733591621
 30
0.0
 40
0.2308268750111438
 50
274.6254572640842753
 51
320.041551625964928
  0
ARC
  5
560
  8
GASKET
 10
44.2643219420089693
 20
29.4521139985370084
 30
0.0
 40
0.2
 50
94.6254572640830247
 51
116.2655941543489035
  0
ARC
  5
561
  8
GASKET
 10
44.7223092630313985
 20
29.3163974170773685
 30
0.0
 40
0.5310714759393496
 50
87.7728581417894986
 51
119.3945304167348951
  0
ARC
  5
562
  8
GASKET
 10
44.5598125680771915
 20
29.6048469729959294
 30
0.0
 40
0.2
 50
119.3945304167345967
 51
140.0415516259647006
  0
LINE
  5
563
  8
GASKET
 10
44.7429473221450706
 20
29.8470677319362494
 30
0.0
 11
46.8342721767312113
 21
29.7657349632353885
 31
0.0
  0
CIRCLE
  5
564
  8
GASKET
 10
44.2369660671052074
 20
29.8930718274096705
 30
0.0
 40
0.1250238276873099
  0
CIRCLE
  5
56C
  8
GASKET
 10
47.2713369864679578
 20
29.7427387213927794
 30
0.0
 40
0.1250238276873099
  0
CIRCLE
  5
574
  8
GASKET
 10
48.0237782333098266
 20
29.6607117945930092
 30
0.0
 40
0.1049233999417599
  0
CIRCLE
  5
57C
  8
GASKET
 10
49.4960288792070813
 20
29.8986908399792704
 30
0.0
 40
0.1250238276873099
  0
CIRCLE
  5
584
  8
GASKET
 10
51.5343063371035797
 20
29.0529786025223409
 30
0.0
 40
0.141473569100438
  0
CIRCLE
  5
58C
  8
GASKET
 10
51.733961307919742
 20
29.3887859860409115
 30
0.0
 40
0.1086239726533362
  0
CIRCLE
  5
594
  8
GASKET
 10
54.4101999972160399
 20
27.7187853516042892
 30
0.0
 40
0.1250238276873099
  0
CIRCLE
  5
59C
  8
GASKET
 10
55.1685605166283395
 20
26.1448769692257592
 30
0.0
 40
0.1541626598885415
  0
CIRCLE
  5
5A4
  8
GASKET
 10
55.6448025341784813
 20
25.8192321939566583
 30
0.0
 40
0.1250238276873099
  0
CIRCLE
  5
5AC
  8
GASKET
 10
57.5397535260799273
 20
23.5838589798107208
 30
0.0
 40
0.1250238276873099
  0
CIRCLE
  5
5B4
  8
GASKET
 10
55.0718196315490403
 20
21.6279722963602801
 30
0.0
 40
0.1250238276873099
  0
CIRCLE
  5
5BC
  8
GASKET
 10
53.7928254378014898
 20
22.0844067606320387
 30
0.0
 40
0.1502664272335221
  0
CIRCLE
  5
5C4
  8
GASKET
 10
52.9616044564846007
 20
21.2463851754063988
 30
0.0
 40
0.1250238276873099
  0
CIRCLE
  5
5CC
  8
GASKET
 10
50.4340099929861907
 20
21.1873938005161691
 30
0.0
 40
0.1250238276873099
  0
CIRCLE
  5
5D4
  8
GASKET
 10
48.3452802120120424
 20
21.2548460155621903
 30
0.0
 40
0.1250238276873099
  0
CIRCLE
  5
5DC
  8
GASKET
 10
45.7034550737121421
 20
20.8577014621653483
 30
0.0
 40
0.1250238276873099
  0
CIRCLE
  5
5E4
  8
GASKET
 10
44.6432417433909521
 20
22.3842959515911986
 30
0.0
 40
0.1250238276873099
  0
CIRCLE
  5
5EC
  8
GASKET
 10
44.9581860017607369
 20
23.7406285616656305
 30
0.0
 40
0.1510547749415663
  0
CIRCLE
  5
5F4
  8
GASKET
 10
44.8007134328735219
 20
24.727155772385359
 30
0.0
 40
0.1250238276873099
  0
CIRCLE
  5
5FC
  8
GASKET
 10
43.368374126446021
 20
27.5244658429277003
 30
0.0
 40
0.1250238276873099
  0
ARC
  5
604
  8
GASKET
 10
49.1288453769774378
 20
21.7415157421896801
 30
0.0
 40
0.3349229071428738
 50
41.2843633774309495
 51
311.0424740815341806
  0
LINE
  5
606
  8
GASKET
 10
49.5258541682254929
 20
21.8945174786263514
 30
0.0
 11
50.1142776256802165
 21
21.8799320456233204
 31
0.0
  0
LINE
  5
608
  8
GASKET
 10
50.1860629859958465
 20
21.8299510471785396
 30
0.0
 11
50.1834993016456892
 21
21.5826088006188392
 31
0.0
  0
LINE
  5
60A
  8
GASKET
 10
50.1274528658599081
 20
21.5313461489662998
 30
0.0
 11
49.4821092430808918
 21
21.5380543288741784
 31
0.0
  0
ARC
  5
60B
  8
GASKET
 10
49.5308101074082998
 20
22.0944560658645699
 30
0.0
 40
0.2
 50
221.2843633774303953
 51
268.5800826684582034
  0
ARC
  5
60C
  8
GASKET
 10
49.4800855599330305
 20
21.3380645673699512
 30
0.0
 40
0.2
 50
89.4202475897575795
 51
131.0424740815342943
  0
ARC
  5
60D
  8
GASKET
 10
50.1147383486328835
 20
21.8040522906076504
 30
0.0
 40
0.0758811537002289
 50
19.9565136614723109
 51
90.3478814121571645
  0
ARC
  5
60E
  8
GASKET
 10
50.1273858694257513
 20
21.5876890424297905
 30
0.0
 40
0.0563429332956782
 50
270.0681294636269172
 51
354.826817570429796
  0
ARC
  5
641
  8
GASKET
 10
37.7461832614366699
 20
28.2526368609118492
 30
0.0
 40
0.2590893335619077
 50
10.3921845213591197
 51
158.0219640068488047
  0
ARC
  5
642
  8
GASKET
 10
38.2507219172782484
 20
26.6961683012352218
 30
0.0
 40
1.4401372932001419
 50
359.9335340373618806
 51
91.8511066888418952
  0
ARC
  5
643
  8
GASKET
 10
38.1977417328356381
 20
28.3354496805604192
 30
0.0
 40
0.2
 50
190.39218452135961
 51
271.8511066888427763
  0
ARC
  5
644
  8
GASKET
 10
39.7711207703212892
 20
26.2448151365063893
 30
0.0
 40
0.2651266530299381
 50
293.7028278256702833
 51
75.082405841039531
  0
ARC
  5
645
  8
GASKET
 10
39.8908581068992305
 20
26.6942656605777913
 30
0.0
 40
0.2
 50
179.9335340373619943
 51
255.0824058410410089
  0
ARC
  5
646
  8
GASKET
 10
37.2873626820721427
 20
24.9893515274383908
 30
0.0
 40
2.5966090134259101
 50
357.1897788157241962
 51
17.2556403420880109
  0
ARC
  5
647
  8
GASKET
 10
39.9580984143354101
 20
25.8189252868999901
 30
0.0
 40
0.2
 50
113.7028278256701981
 51
197.255640342087986
  0
ARC
  5
648
  8
GASKET
 10
40.0012349210677201
 20
24.3292374590624014
 30
0.0
 40
0.3289908555928207
 50
312.7658306478815007
 51
81.3703386456669335
  0
ARC
  5
649
  8
GASKET
 10
40.0806085130071423
 20
24.8522395223503487
 30
0.0
 40
0.2
 50
177.1897788157249067
 51
261.3703386456660951
  0
ARC
  5
651
  8
GASKET
 10
39.9126765853880769
 20
23.81138218592017
 30
0.0
 40
0.2660976950354599
 50
289.9316694369708785
 51
16.1318463462570811
  0
ARC
  5
652
  8
GASKET
 10
40.3604216220289018
 20
23.9408867938724796
 30
0.0
 40
0.2
 50
132.7658306478803922
 51
196.1318463462569071
  0
ARC
  5
653
  8
GASKET
 10
38.5982776938226095
 20
23.4304195346424287
 30
0.0
 40
1.274401813002461
 50
295.7765857858848904
 51
357.7760183667871843
  0
ARC
  5
654
  8
GASKET
 10
40.071568930375939
 20
23.3732038158222899
 30
0.0
 40
0.2
 50
109.9316694369695
 51
177.7760183667876106
  0
ARC
  5
655
  8
GASKET
 10
38.4842735463645909
 20
21.7635211984880605
 30
0.0
 40
0.254820560268354
 50
217.8178064201389077
 51
21.9372234153672387
  0
ARC
  5
656
  8
GASKET
 10
38.9371299584247694
 20
21.9229773348049903
 30
0.0
 40
0.232686710157866
 50
107.7357087388062951
 51
161.3356811249931013
  0
LINE
  5
657
  8
GASKET
 10
38.8662473658921783
 20
22.14460486730027
 30
0.0
 11
39.1524680718713114
 21
22.2828250915301389
 31
0.0
  0
ARC
  5
658
  8
GASKET
 10
38.9061622503036304
 20
21.9334378354941606
 30
0.0
 40
0.2
 50
161.3356811249929876
 51
201.9372234153669865
  0
ARC
  5
65A
  8
GASKET
 10
38.1249814523557831
 20
21.4846467944535995
 30
0.0
 40
0.2
 50
37.8178064201393269
 51
121.8325464434262955
  0
ARC
  5
65B
  8
GASKET
 10
34.7175799840200128
 20
21.2159610057517192
 30
0.0
 40
0.2639382931603022
 50
156.7604840490791105
 51
338.8210230428763907
  0
ARC
  5
65C
  8
GASKET
 10
35.1501822268450468
 20
21.048348239641161
 30
0.0
 40
0.2
 50
74.8550356722684143
 51
158.8210230428774139
  0
ARC
  5
65D
  8
GASKET
 10
34.2912840547638424
 20
21.3990197956530004
 30
0.0
 40
0.2
 50
336.7604840490790252
 51
60.7264714196900215
  0
ARC
  5
65E
  8
GASKET
 10
36.1356034653852873
 20
24.6891191653823086
 30
0.0
 40
3.5717725211216331
 50
254.8550356722668937
 51
301.8325464434266792
  0
LINE
  5
660
  8
GASKET
 10
34.3890799531269309
 20
21.5734788517760805
 30
0.0
 11
31.8751552161021507
 21
22.7350731934230801
 31
0.0
  0
ARC
  5
661
  8
GASKET
 10
31.4163865844893202
 20
22.8117724640078201
 30
0.0
 40
0.2552244677728563
 50
162.8050961742198126
 51
325.4369257337871773
  0
ARC
  5
662
  8
GASKET
 10
31.7912649165398591
 20
22.5535176436887106
 30
0.0
 40
0.2
 50
65.2000369001199402
 51
145.4369257337878025
  0
LINE
  5
663
  8
GASKET
 10
31.0636656314227011
 20
23.1286937265617816
 30
0.0
 11
29.9656918041558207
 21
23.6233914386106001
 31
0.0
  0
ARC
  5
664
  8
GASKET
 10
30.981508529033551
 20
22.9463473240005591
 30
0.0
 40
0.2
 50
342.8050961742202958
 51
65.7458110108571532
  0
ARC
  5
665
  8
GASKET
 10
30.2577852404861289
 20
25.1759668849140503
 30
0.0
 40
1.574828805096375
 50
215.4952882646410046
 51
257.8269100368888758
  0
ARC
  5
666
  8
GASKET
 10
29.8835347017666706
 20
23.4410450360493812
 30
0.0
 40
0.2
 50
65.7458110108581621
 51
77.8269100368892452
  0
ARC
  5
667
  8
GASKET
 10
28.6807612243594612
 20
24.5793464640145487
 30
0.0
 40
0.2535496924790846
 50
121.4756389522979987
 51
286.9231992686561057
  0
ARC
  5
668
  8
GASKET
 10
28.8127848170469711
 20
24.1454373784658003
 30
0.0
 40
0.2
 50
35.4952882646409904
 51
106.9231992686562052
  0
ARC
  5
669
  8
GASKET
 10
29.1080693432604782
 20
25.7671446276049707
 30
0.0
 40
0.7254388738386909
 50
85.9093770104653345
 51
203.1372306001113088
  0
LINE
  5
66A
  8
GASKET
 10
28.4409801558546604
 20
25.4820944991668483
 30
0.0
 11
28.6278598787353111
 21
25.0447488183837592
 31
0.0
  0
ARC
  5
66B
  8
GASKET
 10
28.4439466059668185
 20
24.9661618722693888
 30
0.0
 40
0.2
 50
301.4756389522985955
 51
23.1372306001113408
  0
ARC
  5
66C
  8
GASKET
 10
29.6158667232095389
 20
26.6061651721474597
 30
0.0
 40
0.2497082254581629
 50
12.4122843627117003
 51
169.226740100451309
  0
ARC
  5
66D
  8
GASKET
 10
29.1740847872975095
 20
26.6902259189116506
 30
0.0
 40
0.2
 50
265.9093770104656187
 51
349.2267401004506837
  0
ARC
  5
66E
  8
GASKET
 10
31.5329420356192216
 20
26.2379145616808991
 30
0.0
 40
0.2644181195582058
 50
37.4134844498571368
 51
148.6296037439321083
  0
ARC
  5
66F
  8
GASKET
 10
32.4125271467698397
 20
26.2700926594548392
 30
0.0
 40
0.3253570117131259
 50
75.7256054152905875
 51
151.1899301159645006
  0
ARC
  5
670
  8
GASKET
 10
31.9236405061332214
 20
26.5748655929805189
 30
0.0
 40
0.2589746652017395
 50
248.2805170561919965
 51
298.9620014904402865
  0
ARC
  5
671
  8
GASKET
 10
31.9521977768106815
 20
26.5232662380706792
 30
0.0
 40
0.2
 50
298.9620014904402865
 51
331.1899301159641027
  0
ARC
  5
672
  8
GASKET
 10
31.9018161835036516
 20
26.5200777286543889
 30
0.0
 40
0.2
 50
217.413484449856611
 51
248.2805170561919965
  0
LINE
  5
673
  8
GASKET
 10
31.0856671634488393
 20
26.2862208662996402
 30
0.0
 11
30.6720418260647882
 21
26.3947194111124297
 31
0.0
  0
LINE
  5
674
  8
GASKET
 10
30.6546837679224993
 20
26.3984577643138891
 30
0.0
 11
30.0216761748836412
 21
26.5056340678065006
 31
0.0
  0
ARC
  5
675
  8
GASKET
 10
30.0550635657785392
 20
26.7028275822262913
 30
0.0
 40
0.2
 50
192.4122843627118016
 51
260.3902253828924813
  0
ARC
  5
676
  8
GASKET
 10
31.1364126124860299
 20
26.4796760275179786
 30
0.0
 40
0.2
 50
255.3018184609809111
 51
328.6296037439321935
  0
ARC
  5
677
  8
GASKET
 10
30.6212963770276012
 20
26.2012642498940913
 30
0.0
 40
0.2
 50
75.3018184609798737
 51
80.3902253828922255
  0
LINE
  5
679
  8
GASKET
 10
32.6217909176203875
 20
26.5958085828564315
 30
0.0
 11
33.2178934189453869
 21
26.8549194580242414
 31
0.0
  0
ARC
  5
67B
  8
GASKET
 10
32.5420622901503265
 20
26.7792298083504896
 30
0.0
 40
0.2
 50
255.7256054152911986
 51
293.4933818078769718
  0
ARC
  5
67C
  8
GASKET
 10
33.1381647914753188
 20
27.0383406835182996
 30
0.0
 40
0.2
 50
293.4933818078789045
 51
324.2350974796685819
  0
ARC
  5
67D
  8
GASKET
 10
37.3204571480984129
 20
28.42445156520753
 30
0.0
 40
0.2
 50
252.4377442292772002
 51
338.0219640068493732
  0
ARC
  5
681
  8
GASKET
 10
34.1036703388776417
 20
27.8997524899689893
 30
0.0
 40
0.2529952565880789
 50
38.10646600643787
 51
210.4309891965247061
  0
ARC
  5
682
  8
GASKET
 10
34.460116624740678
 20
28.1793070424015006
 30
0.0
 40
0.2
 50
218.106466006438211
 51
297.3593461247734808
  0
ARC
  5
683
  8
GASKET
 10
33.7130797777536628
 20
27.6703103054166384
 30
0.0
 40
0.2
 50
311.1781090781896069
 51
30.4309891965249584
  0
ARC
  5
685
  8
GASKET
 10
36.186776068789392
 20
24.8424505008991403
 30
0.0
 40
3.5571218258515009
 50
72.4377442292779108
 51
117.3593461247728982
  0
ARC
  5
686
  8
GASKET
 10
36.186776068789392
 20
24.8424505008991403
 30
0.0
 40
3.5571218258515009
 50
131.1781090781898058
 51
144.2350974796682124
  0
ARC
  5
687
  8
GASKET
 10
38.276226091260483
 20
26.7213583728856285
 30
0.0
 40
1.233308792472023
 50
347.2220008428542997
 51
100.8477882126028931
  0
ARC
  5
688
  8
GASKET
 10
36.696274326734148
 20
24.8849214212600884
 30
0.0
 40
3.0001283688365472
 50
347.0502918236444998
 51
20.9005798965470895
  0
ARC
  5
689
  8
GASKET
 10
40.7546621876763879
 20
26.249018758584981
 30
0.0
 40
1.2917305377540389
 50
171.8203308591540974
 51
191.7573852025772112
  0
ARC
  5
68A
  8
GASKET
 10
39.6858370128225673
 20
26.026559070858351
 30
0.0
 40
0.2
 50
191.7573852025770123
 51
200.9005798965467022
  0
ARC
  5
68C
  8
GASKET
 10
39.6740380658386016
 20
26.4043476817352811
 30
0.0
 40
0.2
 50
167.2220008428539018
 51
171.8203308591542964
  0
ARC
  5
68D
  8
GASKET
 10
38.5773858095460227
 20
23.4306215790623718
 30
0.0
 40
1.1194489046441669
 50
281.7358210521445017
 51
18.3004688969284608
  0
ARC
  5
68E
  8
GASKET
 10
40.3997545702741832
 20
24.0333289686485401
 30
0.0
 40
0.8
 50
167.0502918236446988
 51
198.3004688969286065
  0
ARC
  5
690
  8
GASKET
 10
39.0084805747603127
 20
21.3554779785368112
 30
0.0
 40
1.0
 50
101.7358210521442032
 51
130.1530552686936062
  0
ARC
  5
691
  8
GASKET
 10
36.1353782178902634
 20
24.7609913857106214
 30
0.0
 40
3.4555851152786672
 50
245.1382574826978953
 51
310.1530552686937767
  0
LINE
  5
692
  8
GASKET
 10
33.4702103018726405
 20
22.1874168405240297
 30
0.0
 11
34.6825463294452518
 21
21.6256528086423003
 31
0.0
  0
ARC
  5
693
  8
GASKET
 10
33.3100594395327505
 20
22.5077505417671908
 30
0.0
 40
0.1784401013012681
 50
314.8843059011844048
 51
46.0998016376531226
  0
ARC
  5
694
  8
GASKET
 10
33.5206619101523913
 20
22.2962958340075588
 30
0.0
 40
0.12
 50
134.8843059011857974
 51
245.1382574826982932
  0
LINE
  5
695
  8
GASKET
 10
33.4337905771493595
 20
22.63632532676219
 30
0.0
 11
32.7729904819179296
 21
23.2833083210791791
 31
0.0
  0
LINE
  5
696
  8
GASKET
 10
32.5224437397616271
 20
23.3070188770441185
 30
0.0
 11
32.2319480304476826
 21
23.1141420386419512
 31
0.0
  0
ARC
  5
697
  8
GASKET
 10
32.6330710916488727
 20
23.1404007837456511
 30
0.0
 40
0.2
 50
45.6053237110424305
 51
123.5824750565238048
  0
LINE
  5
698
  8
GASKET
 10
32.1148211391826166
 20
22.9644445591941988
 30
0.0
 11
32.1750657039321482
 21
23.0567965752257997
 31
0.0
  0
ARC
  5
69A
  8
GASKET
 10
32.3425753823349211
 20
22.9475239453434803
 30
0.0
 40
0.2
 50
123.5824750565238048
 51
146.8821342010251101
  0
LINE
  5
69B
  8
GASKET
 10
31.9250055102767405
 20
22.9108243473831301
 30
0.0
 11
30.0366355533927383
 21
23.8048109240834904
 31
0.0
  0
ARC
  5
69C
  8
GASKET
 10
30.2738898176585316
 20
25.2073493812294984
 30
0.0
 40
1.4173725412504361
 50
216.0170739249086012
 51
258.9117718116482934
  0
ARC
  5
69D
  8
GASKET
 10
29.9724521832889401
 20
23.6692362398606591
 30
0.0
 40
0.15
 50
64.6663263095349947
 51
78.9117718116479097
  0
ARC
  5
69E
  8
GASKET
 10
29.1143157387998386
 20
25.7491772236605101
 30
0.0
 40
0.5535380385547708
 50
89.9889875307845983
 51
203.7252725479374078
  0
ARC
  5
6A3
  8
GASKET
 10
20.3229469834225007
 20
20.8860402291872305
 30
0.0
 40
9.4655504988546308
 50
21.8330838753591792
 51
26.8451516867086504
  0
ARC
  5
6A4
  8
GASKET
 10
29.2487859292593413
 20
24.4621009821675095
 30
0.0
 40
0.15
 50
201.8330838753585965
 51
216.0170739249088001
  0
LINE
  5
6A6
  8
GASKET
 10
28.7683972752174704
 20
25.1605010858552909
 30
0.0
 11
28.6075598516306187
 21
25.5264602935756884
 31
0.0
  0
LINE
  5
6A7
  8
GASKET
 10
31.4877660712084193
 20
25.9840041028595294
 30
0.0
 11
30.3076372037445516
 21
26.2974663674962912
 31
0.0
  0
LINE
  5
6A8
  8
GASKET
 10
30.269158728733899
 20
26.3024933071721705
 30
0.0
 11
29.1144221309394204
 21
26.3027152519907901
 31
0.0
  0
ARC
  5
6A9
  8
GASKET
 10
30.2691298981570895
 20
26.1524933099428516
 30
0.0
 40
0.15
 50
75.124747278674576
 51
89.9889875307845557
  0
LINE
  5
6AA
  8
GASKET
 10
31.5826898852833082
 20
25.9899909108409801
 30
0.0
 11
31.9287381154867091
 21
26.1304568416539205
 31
0.0
  0
ARC
  5
6AB
  8
GASKET
 10
31.5262733767958814
 20
26.128977160412969
 30
0.0
 40
0.15
 50
255.124747278674505
 51
292.0929377358361876
  0
ARC
  5
6AC
  8
GASKET
 10
32.3923610812823597
 20
26.2336409234171697
 30
0.0
 40
0.299205217077855
 50
214.2888502664048929
 51
6.7893674524710237
  0
ARC
  5
6AD
  8
GASKET
 10
31.9964379256716285
 20
25.9636733421675316
 30
0.0
 40
0.18
 50
34.2888502664059729
 51
112.0929377358359034
  0
LINE
  5
6AE
  8
GASKET
 10
32.8300122712883393
 20
26.5007626759083692
 30
0.0
 11
33.2162268681604118
 21
26.6470198678258399
 31
0.0
  0
ARC
  5
6AF
  8
GASKET
 10
32.9079253528680979
 20
26.2950212077529493
 30
0.0
 40
0.22
 50
110.741381560589204
 51
186.7893674524711116
  0
ARC
  5
6B1
  8
GASKET
 10
37.8559161762419123
 20
28.9147593252584407
 30
0.0
 40
1.0
 50
249.0733041579435962
 51
280.8477882126027794
  0
ARC
  5
6B2
  8
GASKET
 10
33.0745667198335624
 20
27.0210952644720486
 30
0.0
 40
0.4
 50
290.7413815605884224
 51
323.4745333853040847
  0
ARC
  5
6B5
  8
GASKET
 10
36.2363101002086481
 20
24.6793527259527998
 30
0.0
 40
3.5345113190911248
 50
69.0733041579435536
 51
143.4745333853039142
  0
ARC
  5
6B6
  8
GASKET
 10
31.9891888803805493
 20
23.0463990316059508
 30
0.0
 40
0.15
 50
244.6663263095352079
 51
326.8821342010248827
  0
LINE
  5
6BE
  8
GASKET
 10
32.2471075061158672
 20
22.759239528821201
 30
0.0
 11
33.1448768689145865
 21
22.3275078932433999
 31
0.0
  0
LINE
  5
6BF
  8
GASKET
 10
33.2172511185835688
 20
22.343505227371061
 30
0.0
 11
33.3025076202498624
 21
22.4473376690752495
 31
0.0
  0
LINE
  5
6C0
  8
GASKET
 10
33.2987083922198934
 20
22.527693276268689
 30
0.0
 11
32.6858273130644719
 21
23.1447993098670999
 31
0.0
  0
LINE
  5
6C1
  8
GASKET
 10
32.6146838949799402
 20
23.1552793602145606
 30
0.0
 11
32.3890955328936627
 21
23.0331158553579094
 31
0.0
  0
LINE
  5
6C2
  8
GASKET
 10
32.2277404766367113
 20
22.8525746023382617
 30
0.0
 11
32.3722968998600109
 21
23.0196179372064194
 31
0.0
  0
ARC
  5
6C3
  8
GASKET
 10
33.1708800018947514
 20
22.3815804100630906
 30
0.0
 40
0.06
 50
244.3173916896784021
 51
320.6106863413904193
  0
ARC
  5
6C4
  8
GASKET
 10
33.2561365035610379
 20
22.4854128517672898
 30
0.0
 40
0.06
 50
320.6106863413903056
 51
44.8031921605918768
  0
ARC
  5
6C5
  8
GASKET
 10
32.6432554244056234
 20
23.1025188853657006
 30
0.0
 40
0.06
 50
44.8031921605919621
 51
118.4369996725066017
  0
ARC
  5
6C6
  8
GASKET
 10
32.4176670623193317
 20
22.9803553805090388
 30
0.0
 40
0.06
 50
118.4369996725062038
 51
139.1276522802151874
  0
ARC
  5
6C7
  8
GASKET
 10
32.2731106390960321
 20
22.8133120456408811
 30
0.0
 40
0.06
 50
139.1276522802149032
 51
244.3173916896784874
  0
CIRCLE
  5
6C8
  8
GASKET
 10
39.9262254462450699
 20
23.8142103844864401
 30
0.0
 40
0.1285989701835863
  0
CIRCLE
  5
6D0
  8
GASKET
 10
38.4975490481481586
 20
21.7682943081768698
 30
0.0
 40
0.1285989701835863
  0
CIRCLE
  5
6D8
  8
GASKET
 10
34.7162120311585127
 20
21.2105328153620789
 30
0.0
 40
0.1285989701835863
  0
CIRCLE
  5
6E0
  8
GASKET
 10
31.4264875882633099
 20
22.8138557763823187
 30
0.0
 40
0.1285989701835863
  0
CIRCLE
  5
6E8
  8
GASKET
 10
28.6853822401753611
 20
24.583422569393349
 30
0.0
 40
0.1285989701835863
  0
CIRCLE
  5
6F0
  8
GASKET
 10
29.6227721442492893
 20
26.6058172734851404
 30
0.0
 40
0.1285989701835863
  0
CIRCLE
  5
6F8
  8
GASKET
 10
31.5297381246887802
 20
26.2467304035169207
 30
0.0
 40
0.1285989701835863
  0
CIRCLE
  5
700
  8
GASKET
 10
32.3922044798610216
 20
26.2684918317022706
 30
0.0
 40
0.1642442017251879
  0
CIRCLE
  5
708
  8
GASKET
 10
34.1184272126076777
 20
27.8995872803687313
 30
0.0
 40
0.1285989701835863
  0
CIRCLE
  5
710
  8
GASKET
 10
37.7436486204765274
 20
28.2361537499974418
 30
0.0
 40
0.1285989701835863
  0
CIRCLE
  5
718
  8
GASKET
 10
39.7814800052931901
 20
26.2547615789795508
 30
0.0
 40
0.1285989701835863
  0
CIRCLE
  5
720
  8
GASKET
 10
40.0106160365255334
 20
24.355307527521429
 30
0.0
 40
0.1626120800292068
  0
POINT
  5
731
  8
GASKET
 10
43.0866963943637131
 20
27.5152291510958911
 30
0.0
  0
ARC
  5
73B
  8
GASKET
 10
57.5694501210974465
 20
23.5944213348932088
 30
0.0
 40
0.2522436997715709
 50
308.6513670555896738
 51
42.362183905048262
  0
ARC
  5
73C
  8
GASKET
 10
57.9143704899660605
 20
23.1631406338678509
 30
0.0
 40
0.3
 50
128.6513670555899012
 51
166.2765517717508033
  0
ARC
  5
73D
  8
GASKET
 10
57.9775031177026534
 20
23.9665313399977684
 30
0.0
 40
0.3
 50
184.736999188887296
 51
222.3621839050487949
  0
ARC
  5
73E
  8
GASKET
 10
24.3521717654693894
 20
25.9153881839954785
 30
0.0
 40
0.2862003990089546
 50
289.4028702829893973
 51
109.073563895268407
  0
ARC
  5
73F
  8
GASKET
 10
20.3574007195223601
 20
24.1755390416803806
 30
0.0
 40
4.1492972205241356
 50
346.1052254423221939
 51
17.1329885220105709
  0
ARC
  5
740
  8
GASKET
 10
24.5136916138595602
 20
25.4568010422519606
 30
0.0
 40
0.2
 50
109.4028702829890989
 51
197.1329885220112033
  0
ARC
  5
741
  8
GASKET
 10
24.3843341324266909
 20
22.6792537829136585
 30
0.0
 40
0.2921670805855692
 50
312.4973022939660723
 51
66.6465151015226382
  0
ARC
  5
742
  8
GASKET
 10
24.5794304863068795
 20
23.1311009339667315
 30
0.0
 40
0.2
 50
166.1052254423231034
 51
246.6465151015221977
  0
ARC
  5
74A
  8
GASKET
 10
24.259196196454571
 20
22.1352430259445185
 30
0.0
 40
0.2921670805855692
 50
269.8812578024575259
 51
21.5940754129538703
  0
ARC
  5
74B
  8
GASKET
 10
24.7168203071946699
 20
22.3163744933416694
 30
0.0
 40
0.2
 50
132.497302293966186
 51
201.5940754129536003
  0
ARC
  5
74C
  8
GASKET
 10
22.1145187561513303
 20
21.8679041605021887
 30
0.0
 40
1.8679232786151529
 50
290.9120965194674113
 51
351.3827379804441193
  0
ARC
  5
74D
  8
GASKET
 10
24.2579689652217496
 20
21.5430772170423701
 30
0.0
 40
0.3
 50
89.8812578024575259
 51
171.3827379804442046
  0
ARC
  5
75B
  8
GASKET
 10
18.88447071557896
 20
21.3216810513180484
 30
0.0
 40
2.172038781421302
 50
219.7489009653617984
 51
281.9543084348298976
  0
ARC
  5
75D
  8
GASKET
 10
9.0065520601636351
 20
73.5961206404694934
 30
0.0
 40
55.3710722114342815
 50
280.7497689391975086
 51
282.964083137498676
  0
ARC
  5
75E
  8
GASKET
 10
19.1484249864584086
 20
28.0983362667281114
 30
0.0
 40
8.7637331831016283
 50
285.0803157249242759
 51
294.4896576651739224
  0
ARC
  5
760
  8
GASKET
 10
17.1833767299036708
 20
20.2681626450455497
 30
0.0
 40
0.2791851013787809
 50
168.3725319989655986
 51
255.1688386102651975
  0
ARC
  5
761
  8
GASKET
 10
17.060718979040491
 20
19.8049419227796086
 30
0.0
 40
0.2
 50
39.7489009653619476
 51
75.1688386102647428
  0
ARC
  5
762
  8
GASKET
 10
16.7140251111245917
 20
20.3647412106429293
 30
0.0
 40
0.2
 50
348.3725319989649734
 51
23.7924696438686993
  0
LINE
  5
763
  8
GASKET
 10
16.8627862093948906
 20
23.3604496162184496
 30
0.0
 11
16.7188246291857716
 21
21.4882028111213508
 31
0.0
  0
ARC
  5
764
  8
GASKET
 10
18.88447071557896
 20
21.3216810513180484
 30
0.0
 40
2.172038781421302
 50
175.6030410562985935
 51
203.7924696438687135
  0
ARC
  5
765
  8
GASKET
 10
16.7538260109137092
 20
23.8258661360538895
 30
0.0
 40
0.2864161037298225
 50
88.3818108232004107
 51
262.3777710367098734
  0
ARC
  5
766
  8
GASKET
 10
16.6932865495195983
 20
23.3734828545789703
 30
0.0
 40
0.17
 50
355.6030410562987072
 51
82.3777710367100156
  0
ARC
  5
767
  8
GASKET
 10
20.2968752160506689
 20
24.2846423327961283
 30
0.0
 40
3.3601613976968951
 50
139.6777087755997115
 51
180.0412593799827903
  0
ARC
  5
768
  8
GASKET
 10
16.7667147336563289
 20
24.2821002213324597
 30
0.0
 40
0.17
 50
268.3818108232005102
 51
0.0412593799837927
  0
ARC
  5
769
  8
GASKET
 10
18.7862329701553605
 20
27.5820621395980687
 30
0.0
 40
0.2764677088756895
 50
131.5193999518548083
 51
189.1166599864559998
  0
ARC
  5
771
  8
GASKET
 10
18.9539784336507715
 20
28.119834556478569
 30
0.0
 40
0.3163557814543454
 50
64.5015827715601517
 51
200.5230446851685997
  0
LINE
  5
772
  8
GASKET
 10
17.7350322701083201
 20
26.4589572453370501
 30
0.0
 11
18.4790989546257407
 21
27.4063168952927114
 31
0.0
  0
ARC
  5
773
  8
GASKET
 10
18.345405140881379
 20
27.5113214864613411
 30
0.0
 40
0.17
 50
321.8535193354942976
 51
9.1166599864565132
  0
ARC
  5
774
  8
GASKET
 10
18.4703951040135301
 20
27.9388084358818816
 30
0.0
 40
0.2
 50
311.5193999518547798
 51
20.5230446851692712
  0
LINE
  5
77C
  8
GASKET
 10
19.3203594951242614
 20
28.4472017665675914
 30
0.0
 11
19.4094190882329904
 21
28.5397307755098488
 31
0.0
  0
ARC
  5
77D
  8
GASKET
 10
19.1762624528082206
 20
28.5858958269875316
 30
0.0
 40
0.2
 50
244.5015827715604928
 51
316.0945549448675251
  0
ARC
  5
77E
  8
GASKET
 10
19.7029854761602792
 20
28.8860477258756383
 30
0.0
 40
0.2772288147054474
 50
258.5942321502097911
 51
27.7445296050349413
  0
ARC
  5
77F
  8
GASKET
 10
19.5967452432438307
 20
28.3594284969639183
 30
0.0
 40
0.26
 50
78.5942321502102317
 51
136.0945549448668999
  0
LINE
  5
780
  8
GASKET
 10
19.9810642609962983
 20
29.3053738440583587
 30
0.0
 11
20.1455497527449587
 21
29.4972259419487415
 31
0.0
  0
ARC
  5
781
  8
GASKET
 10
20.1784502161107113
 20
29.1361438682161094
 30
0.0
 40
0.26
 50
139.3916756814645908
 51
207.7445296050352113
  0
ARC
  5
782
  8
GASKET
 10
20.469256145076141
 20
29.6830365057540497
 30
0.0
 40
0.2613560687894706
 50
74.4473517535251261
 51
181.8224740879618082
  0
ARC
  5
783
  8
GASKET
 10
19.9481637976305386
 20
29.6664559177909908
 30
0.0
 40
0.26
 50
319.3916756814651876
 51
1.822474087962352
  0
ARC
  5
784
  8
GASKET
 10
21.5297173601433798
 20
28.2454650516795809
 30
0.0
 40
1.887233100892368
 50
95.5813770614731766
 51
115.3896489825951051
  0
ARC
  5
785
  8
GASKET
 10
20.6090440783448017
 20
30.1853028535975909
 30
0.0
 40
0.26
 50
254.4473517535253109
 51
295.3896489825950198
  0
ARC
  5
786
  8
GASKET
 10
21.7842072799231801
 20
30.2337775328442717
 30
0.0
 40
0.2935111443141348
 50
221.7806793037690909
 51
300.7191769400499766
  0
ARC
  5
787
  8
GASKET
 10
21.3714536218822886
 20
29.8649835461066786
 30
0.0
 40
0.26
 50
41.7806793037692827
 51
95.5813770614729066
  0
ARC
  5
788
  8
GASKET
 10
21.0611630866118702
 20
27.7914514006978912
 30
0.0
 40
2.46877296709784
 50
47.3412418730939493
 51
62.9116727750492331
  0
ARC
  5
789
  8
GASKET
 10
22.0669577555472216
 20
29.7579343281913893
 30
0.0
 40
0.26
 50
62.9116727750492828
 51
120.7191769400501045
  0
ARC
  5
78A
  8
GASKET
 10
23.167988821397099
 20
29.3746976355566787
 30
0.0
 40
0.2826584571207232
 50
287.8697283701860101
 51
128.1854604889896052
  0
ARC
  5
78B
  8
GASKET
 10
22.8696050412084304
 20
29.7540738419145292
 30
0.0
 40
0.2
 50
227.341241873093594
 51
308.1854604889894063
  0
LINE
  5
78C
  8
GASKET
 10
24.0042429144696783
 20
26.3096190581064917
 30
0.0
 11
23.1270470312197602
 21
28.8500472142372502
 31
0.0
  0
ARC
  5
78D
  8
GASKET
 10
23.3160944078491887
 20
28.9153242346160084
 30
0.0
 40
0.2
 50
107.869728370186607
 51
199.0495121006532031
  0
ARC
  5
78E
  8
GASKET
 10
24.1932902910991103
 20
26.37489607848525
 30
0.0
 40
0.2
 50
199.0495121006532031
 51
289.0735638952684212
  0
ARC
  5
796
  8
GASKET
 10
21.4625253556233986
 20
28.5089630872953883
 30
0.0
 40
1.3817786956849121
 50
91.6923434866467773
 51
115.4664542686205948
  0
ARC
  5
797
  8
GASKET
 10
21.7669682262480499
 20
30.0412248140683111
 30
0.0
 40
0.288215391226446
 50
225.9671913121698879
 51
294.8348776149086916
  0
ARC
  5
798
  8
GASKET
 10
21.4276242738899896
 20
29.6902263094726386
 30
0.0
 40
0.2
 50
45.9671913121702005
 51
91.6923434866468767
  0
ARC
  5
799
  8
GASKET
 10
21.5638479247839214
 20
28.4732000092712205
 30
0.0
 40
1.3967192962405821
 50
15.1604859326262407
 51
70.0575169829115794
  0
ARC
  5
79A
  8
GASKET
 10
21.9720209340935497
 20
29.5981586167166988
 30
0.0
 40
0.2
 50
70.0575169829114373
 51
114.8348776149088053
  0
LINE
  5
79B
  8
GASKET
 10
22.9119573165235195
 20
28.838475056864521
 30
0.0
 11
24.1232735494560302
 21
25.2528583395720183
 31
0.0
  0
ARC
  5
79C
  8
GASKET
 10
20.3150629680187294
 20
24.1998495099392912
 30
0.0
 40
3.9511131884388622
 50
340.7775943820130919
 51
15.4566612681283306
  0
ARC
  5
79D
  8
GASKET
 10
-44.9682909801263833
 20
39.1175182608058805
 30
0.0
 40
70.8942721081490959
 50
345.4940999984466998
 51
346.7753040225064751
  0
ARC
  5
79E
  8
GASKET
 10
22.5393451859944385
 20
21.6589386534684714
 30
0.0
 40
1.1656571991505289
 50
311.1571928294364966
 51
345.1372536253364842
  0
ARC
  5
79F
  8
GASKET
 10
22.9254919355977904
 20
20.5285326868120102
 30
0.0
 40
0.2742211850307774
 50
58.2732051659644981
 51
190.2248909100754872
  0
ARC
  5
7A0
  8
GASKET
 10
23.1748703846576589
 20
20.9318887596266983
 30
0.0
 40
0.2
 50
238.2732051659644981
 51
311.157192829436724
  0
ARC
  5
7A1
  8
GASKET
 10
20.0724372609177806
 20
25.8300401486065816
 30
0.0
 40
6.0907017660356537
 50
279.8812828720513721
 51
293.897835388595297
  0
ARC
  5
7A2
  8
GASKET
 10
22.458802054259511
 20
20.4443526001616611
 30
0.0
 40
0.2
 50
293.8978353885951265
 51
10.2248909100746808
  0
LINE
  5
7A3
  8
GASKET
 10
20.9101623578115792
 20
19.9266501429308498
 30
0.0
 11
20.8901849372514299
 21
19.9612178310347197
 31
0.0
  0
ARC
  5
7A4
  8
GASKET
 10
21.0833245683991493
 20
20.0267243595124995
 30
0.0
 40
0.2
 50
210.0245536858670903
 51
279.8812828720504058
  0
LINE
  5
7A5
  8
GASKET
 10
20.1999670970613785
 20
19.9178426609616288
 30
0.0
 11
20.6607056875265904
 21
20.0530508605455893
 31
0.0
  0
ARC
  5
7A6
  8
GASKET
 10
20.7170227266638705
 20
19.8611436144530806
 30
0.0
 40
0.2
 50
30.0245536858648912
 51
106.3548369433737975
  0
LINE
  5
7A7
  8
GASKET
 10
20.0452806339838183
 20
19.7018184730106185
 30
0.0
 11
20.0615183262125605
 21
19.771391759425871
 31
0.0
  0
ARC
  5
7A8
  8
GASKET
 10
20.2562841361986585
 20
19.7259354148691202
 30
0.0
 40
0.2
 50
106.3548369433738969
 51
166.8629119576785911
  0
LINE
  5
7A9
  8
GASKET
 10
19.8861882235449414
 20
19.5504820113859807
 30
0.0
 11
19.0793576613723417
 21
19.4042246884188216
 31
0.0
  0
ARC
  5
7AA
  8
GASKET
 10
18.914624032794741
 20
21.3502237525092013
 30
0.0
 40
1.952959171571429
 50
223.6861205286556071
 51
274.8386932046394122
  0
ARC
  5
7AB
  8
GASKET
 10
19.8505148239977203
 20
19.7472748175673694
 30
0.0
 40
0.2
 50
280.2746564723391884
 51
346.8629119576788753
  0
ARC
  5
7AC
  8
GASKET
 10
17.2027171137415813
 20
20.2893694042586503
 30
0.0
 40
0.2688970115049893
 50
341.3525216969543976
 51
81.2051116874780945
  0
ARC
  5
7AD
  8
GASKET
 10
17.6469988037027683
 20
20.1394421306772813
 30
0.0
 40
0.2
 50
161.3525216969539997
 51
223.6861205286558913
  0
ARC
  5
7AE
  8
GASKET
 10
19.2947769443323089
 20
21.3768127553108904
 30
0.0
 40
2.3145523129953438
 50
171.840926924344501
 51
197.1651001916031021
  0
ARC
  5
7AF
  8
GASKET
 10
17.2744103743234483
 20
20.7527531370174216
 30
0.0
 40
0.2
 50
197.1651001916035
 51
261.2051116874775971
  0
LINE
  5
7B0
  8
GASKET
 10
17.0036528548066599
 20
21.7052983957692582
 30
0.0
 11
17.1964532265971002
 21
24.4855270474077393
 31
0.0
  0
ARC
  5
7B1
  8
GASKET
 10
20.6590466537765494
 20
24.1429078830533612
 30
0.0
 40
3.47950300096569
 50
137.8990839567260878
 51
174.3490509601463998
  0
LINE
  5
7B2
  8
GASKET
 10
18.0773767847505802
 20
26.475700591609499
 30
0.0
 11
18.6588084975732507
 21
27.2136166694968793
 31
0.0
  0
ARC
  5
7B3
  8
GASKET
 10
18.7943690443601099
 20
27.5677451752078504
 30
0.0
 40
0.2783935080476589
 50
272.5798524123212019
 51
8.1290523022544647
  0
ARC
  5
7B4
  8
GASKET
 10
18.8159023520962982
 20
27.0898365383324311
 30
0.0
 40
0.2
 50
92.5798524123215003
 51
141.7641010927715968
  0
ARC
  5
7B5
  8
GASKET
 10
18.9694787210817104
 20
28.1086886326380103
 30
0.0
 40
0.3595521675422966
 50
302.2369025560179239
 51
349.6428414443680026
  0
ARC
  5
7B6
  8
GASKET
 10
19.2679556952481406
 20
27.6353915545847606
 30
0.0
 40
0.2
 50
122.2369025560182934
 51
188.1290523022547063
  0
LINE
  5
7B7
  8
GASKET
 10
19.3672521066676993
 20
28.1372973238528701
 30
0.0
 11
19.5576588216513692
 21
28.3622679220814184
 31
0.0
  0
ARC
  5
7B8
  8
GASKET
 10
19.5199136431874507
 20
28.0080902990150911
 30
0.0
 40
0.2
 50
139.756670040736509
 51
169.6428414443685142
  0
ARC
  5
7B9
  8
GASKET
 10
19.7213557303081011
 20
28.8826984142932091
 30
0.0
 40
0.4497312390492622
 50
269.0268119891160836
 51
13.9296113895153297
  0
ARC
  5
7BA
  8
GASKET
 10
19.7103203581711206
 20
28.2330608972436501
 30
0.0
 40
0.2
 50
89.0268119891166236
 51
139.7566700407373048
  0
LINE
  5
7BB
  8
GASKET
 10
20.2025143046006299
 20
29.1719991934046092
 30
0.0
 11
20.3249704187928799
 21
29.3097281555871589
 31
0.0
  0
ARC
  5
7BC
  8
GASKET
 10
20.5133812378453513
 20
29.6181382294263891
 30
0.0
 40
0.2430164023734468
 50
264.9566501998170907
 51
354.5311628821070258
  0
ARC
  5
7BD
  8
GASKET
 10
20.4744359160422889
 20
29.1768369778062997
 30
0.0
 40
0.2
 50
84.9566501998176733
 51
138.3594037946297135
  0
ARC
  5
7BE
  8
GASKET
 10
20.9543811098078088
 20
29.5759168402852985
 30
0.0
 40
0.2
 50
115.4664542686211064
 51
174.5311628821062016
  0
ARC
  5
7BF
  8
GASKET
 10
20.3519798018500389
 20
29.03910801562375
 30
0.0
 40
0.2
 50
138.3594037946311062
 51
193.9296113895148039
  0
CIRCLE
  5
7C1
  8
GASKET
 10
20.3233981106052397
 20
19.6798177421854312
 30
0.0
 40
0.1213992201344063
  0
CIRCLE
  5
7C9
  8
GASKET
 10
22.9541733965915284
 20
20.5535426132159103
 30
0.0
 40
0.1213992201344063
  0
CIRCLE
  5
7D1
  8
GASKET
 10
24.180736685086881
 20
22.1657684711337595
 30
0.0
 40
0.1504202476218798
  0
CIRCLE
  5
7D9
  8
GASKET
 10
24.3657787495554601
 20
22.683003136401819
 30
0.0
 40
0.1213992201344063
  0
CIRCLE
  5
7E1
  8
GASKET
 10
24.343106653895429
 20
25.91741002828687
 30
0.0
 40
0.1213992201344063
  0
CIRCLE
  5
7E9
  8
GASKET
 10
23.1492365279821399
 20
29.38349503400676
 30
0.0
 40
0.1213992201344063
  0
CIRCLE
  5
7F1
  8
GASKET
 10
20.4738373595076588
 20
29.6429290199067985
 30
0.0
 40
0.1213992201344063
  0
CIRCLE
  5
7F9
  8
GASKET
 10
18.9762039226443093
 20
28.0699693438663509
 30
0.0
 40
0.1473543640147283
  0
CIRCLE
  5
801
  8
GASKET
 10
18.7763530762253197
 20
27.5588515716888516
 30
0.0
 40
0.1213992201344063
  0
CIRCLE
  5
809
  8
GASKET
 10
16.7576222385682385
 20
23.8186333256211711
 30
0.0
 40
0.1213992201344063
  0
CIRCLE
  5
811
  8
GASKET
 10
17.1949152578087912
 20
20.2630700032923698
 30
0.0
 40
0.1213992201344063
  0
ENDSEC
  0
EOF
