  0
SECTION
  2
HEADER
  9
$ACADVER
  1
AC1009
  9
$INSBASE
 10
0.0
 20
0.0
 30
0.0
  9
$EXTMIN
 10
0.0
 20
-0.0000000000000018
 30
0.0
  9
$EXTMAX
 10
58.5907394869768225
 20
193.6118763619552965
 30
0.0
  9
$LIMMIN
 10
0.0
 20
0.0
  9
$LIMMAX
 10
12.0
 20
9.0
  9
$ORTHOMODE
 70
     0
  9
$REGENMODE
 70
     1
  9
$FILLMODE
 70
     1
  9
$QTEXTMODE
 70
     0
  9
$MIRRTEXT
 70
     0
  9
$DRAGMODE
 70
     2
  9
$LTSCALE
 40
1.0
  9
$OSMODE
 70
   293
  9
$ATTMODE
 70
     1
  9
$TEXTSIZE
 40
0.2
  9
$TRACEWID
 40
0.05
  9
$TEXTSTYLE
  7
STANDARD
  9
$CLAYER
  8
DEFPOINTS
  9
$CELTYPE
  6
BYLAYER
  9
$CECOLOR
 62
   256
  9
$DIMSCALE
 40
1.0
  9
$DIMASZ
 40
0.18
  9
$DIMEXO
 40
0.0625
  9
$DIMDLI
 40
0.38
  9
$DIMRND
 40
0.0
  9
$DIMDLE
 40
0.0
  9
$DIMEXE
 40
0.18
  9
$DIMTP
 40
0.0
  9
$DIMTM
 40
0.0
  9
$DIMTXT
 40
0.18
  9
$DIMCEN
 40
0.09
  9
$DIMTSZ
 40
0.0
  9
$DIMTOL
 70
     0
  9
$DIMLIM
 70
     0
  9
$DIMTIH
 70
     1
  9
$DIMTOH
 70
     1
  9
$DIMSE1
 70
     0
  9
$DIMSE2
 70
     0
  9
$DIMTAD
 70
     0
  9
$DIMZIN
 70
     0
  9
$DIMBLK
  1

  9
$DIMASO
 70
     1
  9
$DIMSHO
 70
     1
  9
$DIMPOST
  1

  9
$DIMAPOST
  1

  9
$DIMALT
 70
     0
  9
$DIMALTD
 70
     2
  9
$DIMALTF
 40
25.3999999999999986
  9
$DIMLFAC
 40
1.0
  9
$DIMTOFL
 70
     0
  9
$DIMTVP
 40
0.0
  9
$DIMTIX
 70
     0
  9
$DIMSOXD
 70
     0
  9
$DIMSAH
 70
     0
  9
$DIMBLK1
  1

  9
$DIMBLK2
  1

  9
$DIMSTYLE
  2
STANDARD
  9
$DIMCLRD
 70
     0
  9
$DIMCLRE
 70
     0
  9
$DIMCLRT
 70
     0
  9
$DIMTFAC
 40
1.0
  9
$DIMGAP
 40
0.09
  9
$LUNITS
 70
     2
  9
$LUPREC
 70
     4
  9
$SKETCHINC
 40
0.1
  9
$FILLETRAD
 40
0.3
  9
$AUNITS
 70
     0
  9
$AUPREC
 70
     0
  9
$MENU
  1
.
  9
$ELEVATION
 40
0.0
  9
$PELEVATION
 40
0.0
  9
$THICKNESS
 40
0.0
  9
$LIMCHECK
 70
     0
  9
$BLIPMODE
 70
     0
  9
$CHAMFERA
 40
0.0
  9
$CHAMFERB
 40
0.0
  9
$SKPOLY
 70
     0
  9
$TDCREATE
 40
2459073.5631134258583188
  9
$TDUPDATE
 40
2459074.8196759261190891
  9
$TDINDWG
 40
0.1538078704
  9
$TDUSRTIMER
 40
0.1538078704
  9
$USRTIMER
 70
     1
  9
$ANGBASE
 50
0.0
  9
$ANGDIR
 70
     0
  9
$PDMODE
 70
     0
  9
$PDSIZE
 40
0.0
  9
$PLINEWID
 40
0.0
  9
$COORDS
 70
     1
  9
$SPLFRAME
 70
     1
  9
$SPLINETYPE
 70
     6
  9
$SPLINESEGS
 70
     8
  9
$ATTDIA
 70
     1
  9
$ATTREQ
 70
     1
  9
$HANDLING
 70
     1
  9
$HANDSEED
  5
510
  9
$SURFTAB1
 70
     6
  9
$SURFTAB2
 70
     6
  9
$SURFTYPE
 70
     6
  9
$SURFU
 70
     6
  9
$SURFV
 70
     6
  9
$UCSNAME
  2

  9
$UCSORG
 10
0.0
 20
0.0
 30
0.0
  9
$UCSXDIR
 10
1.0
 20
0.0
 30
0.0
  9
$UCSYDIR
 10
0.0
 20
1.0
 30
0.0
  9
$PUCSNAME
  2

  9
$PUCSORG
 10
0.0
 20
0.0
 30
0.0
  9
$PUCSXDIR
 10
1.0
 20
0.0
 30
0.0
  9
$PUCSYDIR
 10
0.0
 20
1.0
 30
0.0
  9
$USERI1
 70
     0
  9
$USERI2
 70
     0
  9
$USERI3
 70
     0
  9
$USERI4
 70
     0
  9
$USERI5
 70
     0
  9
$USERR1
 40
0.0
  9
$USERR2
 40
0.0
  9
$USERR3
 40
0.0
  9
$USERR4
 40
0.0
  9
$USERR5
 40
0.0
  9
$WORLDVIEW
 70
     1
  9
$SHADEDGE
 70
     3
  9
$SHADEDIF
 70
    70
  9
$TILEMODE
 70
     1
  9
$MAXACTVP
 70
    64
  9
$PLIMCHECK
 70
     0
  9
$PEXTMIN
 10
0.0
 20
0.0
 30
0.0
  9
$PEXTMAX
 10
0.0
 20
0.0
 30
0.0
  9
$PLIMMIN
 10
0.0
 20
0.0
  9
$PLIMMAX
 10
12.0
 20
9.0
  9
$UNITMODE
 70
     0
  9
$VISRETAIN
 70
     1
  9
$PLINEGEN
 70
     0
  9
$PSLTSCALE
 70
     1
  0
ENDSEC
  0
SECTION
  2
TABLES
  0
TABLE
  2
VPORT
 70
     1
  0
VPORT
  2
*ACTIVE
 70
     0
 10
0.0
 20
0.0
 11
1.0
 21
1.0
 12
-7.6063450213799007
 22
16.9335035334809412
 13
0.0
 23
0.0
 14
0.5
 24
0.5
 15
0.5
 25
0.5
 16
0.0
 26
0.0
 36
1.0
 17
0.0
 27
0.0
 37
0.0
 40
57.8823102417335917
 41
1.2695449241540251
 42
50.0
 43
0.0
 44
0.0
 50
0.0
 51
0.0
 71
     0
 72
  1000
 73
     1
 74
     3
 75
     0
 76
     1
 77
     0
 78
     0
  0
ENDTAB
  0
TABLE
  2
LTYPE
 70
     1
  0
LTYPE
  2
CONTINUOUS
 70
     0
  3
Solid line
 72
    65
 73
     0
 40
0.0
  0
ENDTAB
  0
TABLE
  2
LAYER
 70
     3
  0
LAYER
  2
0
 70
     4
 62
    -7
  6
CONTINUOUS
  0
LAYER
  2
PATH
 70
     0
 62
     7
  6
CONTINUOUS
  0
LAYER
  2
DEFPOINTS
 70
     0
 62
    -7
  6
CONTINUOUS
  0
ENDTAB
  0
TABLE
  2
STYLE
 70
     3
  0
STYLE
  2
STANDARD
 70
     0
 40
0.0
 41
1.0
 50
0.0
 71
     0
 42
0.2
  3
txt
  4

  0
STYLE
  2
ANNOTATIVE
 70
     0
 40
0.0
 41
1.0
 50
0.0
 71
     0
 42
0.2
  3
txt
  4

  0
STYLE
  2

 70
     1
 40
0.0
 41
1.0
 50
0.0
 71
     0
 42
0.2
  3
ltypeshp.shx
  4

  0
ENDTAB
  0
TABLE
  2
VIEW
 70
     0
  0
ENDTAB
  0
TABLE
  2
UCS
 70
     0
  0
ENDTAB
  0
TABLE
  2
APPID
 70
    11
  0
APPID
  2
ACAD
 70
     0
  0
APPID
  2
ACADANNOPO
 70
     0
  0
APPID
  2
ACADANNOTATIVE
 70
     0
  0
APPID
  2
ACAD_DSTYLE_DIMJAG
 70
     0
  0
APPID
  2
ACAD_DSTYLE_DIMTALN
 70
     0
  0
APPID
  2
ACAD_MLEADERVER
 70
     0
  0
APPID
  2
ACAD_NAV_VCDISPLAY
 70
     0
  0
APPID
  2
ACAD_EXEMPT_FROM_CAD_STANDARDS
 70
     0
  0
APPID
  2
ACAECLAYERSTANDARD
 70
     0
  0
APPID
  2
ACCMTRANSPARENCY
 70
     0
  0
APPID
  2
ACAD_DSTYLE_DIMRADIAL_EXTENSION
 70
     0
  0
ENDTAB
  0
TABLE
  2
DIMSTYLE
 70
     2
  0
DIMSTYLE
  2
STANDARD
 70
     0
  3

  4

  5

  6

  7

 40
1.0
 41
0.18
 42
0.0625
 43
0.38
 44
0.18
 45
0.0
 46
0.0
 47
0.0
 48
0.0
140
0.18
141
0.09
142
0.0
143
25.3999999999999986
144
1.0
145
0.0
146
1.0
147
0.09
 71
     0
 72
     0
 73
     1
 74
     1
 75
     0
 76
     0
 77
     0
 78
     0
170
     0
171
     2
172
     0
173
     0
174
     0
175
     0
176
     0
177
     0
178
     0
  0
DIMSTYLE
  2
ANNOTATIVE
 70
     0
  3

  4

  5

  6

  7

 40
0.0
 41
0.18
 42
0.0625
 43
0.38
 44
0.18
 45
0.0
 46
0.0
 47
0.0
 48
0.0
140
0.18
141
0.09
142
0.0
143
25.3999999999999986
144
1.0
145
0.0
146
1.0
147
0.09
 71
     0
 72
     0
 73
     1
 74
     1
 75
     0
 76
     0
 77
     0
 78
     0
170
     0
171
     2
172
     0
173
     0
174
     0
175
     0
176
     0
177
     0
178
     0
  0
ENDTAB
  0
ENDSEC
  0
SECTION
  2
BLOCKS
  0
BLOCK
  8
0
  2
$MODEL_SPACE
 70
     0
 10
0.0
 20
0.0
 30
0.0
  3
$MODEL_SPACE
  1

  0
ENDBLK
  5
21
  8
0
  0
BLOCK
 67
     1
  8
0
  2
$PAPER_SPACE
 70
     0
 10
0.0
 20
0.0
 30
0.0
  3
$PAPER_SPACE
  1

  0
ENDBLK
  5
76
 67
     1
  8
0
  0
BLOCK
  8
0
  2
A$CE3C1427E
 70
     0
 10
0.0
 20
0.0
 30
0.0
  3
A$CE3C1427E
  1

  0
CIRCLE
  5
239
  8
0
 10
1.4124863041369651
 20
1.4124863041369651
 30
0.0
 40
1.412486304136966
  0
ENDBLK
  5
23C
  8
0
  0
BLOCK
  8
0
  2
*D2
 70
     1
 10
0.0
 20
0.0
 30
0.0
  3
*D2
  1

  0
LINE
  5
464
  8
PATH
 62
     0
 10
31.9963684860512707
 20
96.6758279582864049
 30
0.0
 11
32.1763684860512811
 21
96.6758279582864333
 31
0.0
  0
LINE
  5
465
  8
PATH
 62
     0
 10
32.1763684860512811
 20
96.6758279582864333
 30
0.0
 11
32.2235823838209683
 21
96.8495255341399144
 31
0.0
  0
INSERT
  5
466
  8
DEFPOINTS
  2
*U3
 10
0.0
 20
0.0
 30
0.0
  0
SOLID
  5
467
  8
PATH
 62
     0
 10
32.1946327878453786
 20
96.8573945171015538
 30
0.0
 11
32.2525319797965508
 21
96.8416565511783034
 31
0.0
 12
32.2707962815906626
 22
97.0232231099934666
 32
0.0
 13
32.2707962815906626
 23
97.0232231099934666
 33
0.0
  0
LINE
  5
468
  8
PATH
 62
     0
 10
58.4107394869768086
 20
193.5218763619552931
 30
0.0
 11
58.5907394869768225
 21
193.5218763619552931
 31
0.0
  0
LINE
  5
469
  8
PATH
 62
     0
 10
58.5007394869768333
 20
193.4318763619552897
 30
0.0
 11
58.5007394869768333
 21
193.6118763619552965
 31
0.0
  0
POINT
  5
46A
  8
DEFPOINTS
 62
     0
 10
32.2707962815906626
 20
97.0232231099934666
 30
0.0
  0
POINT
  5
46B
  8
DEFPOINTS
 62
     0
 10
58.500739486976812
 20
193.5218763619552931
 30
0.0
  0
ENDBLK
  5
38C
  8
0
  0
BLOCK
  8
0
  2
*U3
 70
     1
 10
0.0
 20
0.0
 30
0.0
  3
*U3
  1

  0
TEXT
  5
50D
  8
PATH
 62
     0
 10
30.6879919512627417
 20
96.5873627468266562
 30
0.0
 40
0.18
  1
R100.0000
  0
ENDBLK
  5
50F
  8
0
  0
ENDSEC
  0
SECTION
  2
ENTITIES
  0
POLYLINE
  5
285
  8
PATH
 62
     1
 66
     1
 10
0.0
 20
0.0
 30
0.0
 70
     1
  0
VERTEX
  5
4E3
  8
PATH
 62
     1
 10
2.1953717256060008
 20
3.3113617673292519
 30
0.0
 42
0.379277953786966
  0
VERTEX
  5
4E4
  8
PATH
 62
     1
 10
0.9258124865965768
 20
2.1424131040757568
 30
0.0
 42
0.4187709653753752
  0
VERTEX
  5
4E5
  8
PATH
 62
     1
 10
1.939859810342796
 20
0.9286845383212492
 30
0.0
 42
0.1912053306498259
  0
VERTEX
  5
4E6
  8
PATH
 62
     1
 10
2.699457062041783
 20
1.112185601891978
 30
0.0
 42
-0.7882639973965441
  0
VERTEX
  5
4E7
  8
PATH
 62
     1
 10
2.793184290953548
 20
1.0298497706278329
 30
0.0
  0
VERTEX
  5
4E8
  8
PATH
 62
     1
 10
2.7790593379826869
 20
0.9328958444476712
 30
0.0
 42
0.5428026977052911
  0
VERTEX
  5
4E9
  8
PATH
 62
     1
 10
2.8413543563333401
 20
0.8593389192297995
 30
0.0
  0
VERTEX
  5
4EA
  8
PATH
 62
     1
 10
3.2283731670724469
 20
0.7783871236446771
 30
0.0
 42
0.5231940177469963
  0
VERTEX
  5
4EB
  8
PATH
 62
     1
 10
3.310297411139572
 20
0.8245151854654864
 30
0.0
  0
VERTEX
  5
4EC
  8
PATH
 62
     1
 10
3.4478456154141379
 20
2.0642004169770161
 30
0.0
 42
0.42462367483386
  0
SEQEND
  5
4ED
  8
PATH
 62
     1
  0
POLYLINE
  5
28D
  8
PATH
 62
     1
 66
     1
 10
0.0
 20
0.0
 30
0.0
  0
VERTEX
  5
4EE
  8
PATH
 62
     1
 10
0.6564398238388526
 20
1.79538710275208
 30
0.0
 42
0.3778930957682195
  0
VERTEX
  5
4EF
  8
PATH
 62
     1
 10
0.5699347709694806
 20
1.4394390261870611
 30
0.0
 42
-0.1531037471563973
  0
VERTEX
  5
4F0
  8
PATH
 62
     1
 10
0.6021364082354804
 20
1.2628343088753571
 30
0.0
 42
0.6340968018156103
  0
VERTEX
  5
4F1
  8
PATH
 62
     1
 10
1.0196050191902299
 20
0.9987353165278761
 30
0.0
 42
-0.3825412763191901
  0
VERTEX
  5
4F2
  8
PATH
 62
     1
 10
1.2835926849815349
 20
0.9947685974464768
 30
0.0
 42
0.0997059782068994
  0
VERTEX
  5
4F3
  8
PATH
 62
     1
 10
1.917548304881816
 20
0.7172863384851383
 30
0.0
 42
0.1082540611698078
  0
VERTEX
  5
4F4
  8
PATH
 62
     1
 10
2.4557167210773971
 20
0.7809785046723919
 30
0.0
  0
VERTEX
  5
4F5
  8
PATH
 62
     1
 10
3.2097270143315648
 20
0.6062452498294136
 30
0.0
 42
0.3164187850089313
  0
VERTEX
  5
4F6
  8
PATH
 62
     1
 10
3.4348011685640349
 20
0.6942602988435455
 30
0.0
 42
-0.3322966353561329
  0
VERTEX
  5
4F7
  8
PATH
 62
     1
 10
3.6293304082636411
 20
0.8012207331572261
 30
0.0
  0
SEQEND
  5
4F8
  8
PATH
 62
     1
  0
ARC
  5
2C4
  8
PATH
 62
     1
 10
3.6943973519217859
 20
1.062674302896311
 30
0.0
 40
0.2694284251639445
 50
256.0249161122177952
 51
86.7841335062063877
  0
ARC
  5
2E0
  8
PATH
 62
     1
 10
3.7026289594720931
 20
2.3183441831246969
 30
0.0
 40
0.2206465984669279
 50
283.247701203347674
 51
89.382060087665991
  0
POLYLINE
  5
2F3
  8
PATH
 62
     1
 66
     1
 10
0.0
 20
0.0
 30
0.0
  0
VERTEX
  5
4F9
  8
PATH
 62
     1
 10
3.708323021369285
 20
2.5389172981549208
 30
0.0
 42
-0.2911916831984881
  0
VERTEX
  5
4FA
  8
PATH
 62
     1
 10
3.471437225887378
 20
2.6849892102040931
 30
0.0
 42
0.2311095885018349
  0
VERTEX
  5
4FB
  8
PATH
 62
     1
 10
2.5373461412536522
 20
3.447075508576722
 30
0.0
 42
0.2311095885018349
  0
SEQEND
  5
4FC
  8
PATH
 62
     1
  0
POLYLINE
  5
307
  8
PATH
 62
     1
 66
     1
 10
0.0
 20
0.0
 30
0.0
  0
VERTEX
  5
4FD
  8
PATH
 62
     1
 10
1.8615669109525059
 20
3.6424261006950021
 30
0.0
 42
-0.342524611737096
  0
VERTEX
  5
4FE
  8
PATH
 62
     1
 10
1.7185242777079921
 20
3.3915737949878082
 30
0.0
 42
0.3061991451618505
  0
VERTEX
  5
4FF
  8
PATH
 62
     1
 10
0.7776215403349838
 20
2.0709870195341251
 30
0.0
  0
VERTEX
  5
500
  8
PATH
 62
     1
 10
0.778537745433337
 20
1.989330108502642
 30
0.0
 42
-0.3024722355260773
  0
VERTEX
  5
501
  8
PATH
 62
     1
 10
0.6564398238388494
 20
1.7953871027520789
 30
0.0
  0
SEQEND
  5
502
  8
PATH
 62
     1
  0
CIRCLE
  5
308
  8
PATH
 62
     1
 10
0.765351260128206
 20
1.592337437407795
 30
0.0
 40
0.0897752959526459
  0
CIRCLE
  5
310
  8
PATH
 62
     1
 10
0.8750947685995643
 20
1.2297742492463259
 30
0.0
 40
0.1356823667812543
  0
CIRCLE
  5
318
  8
PATH
 62
     1
 10
3.7061308696851301
 20
1.0655521683423079
 30
0.0
 40
0.1271398692754326
  0
CIRCLE
  5
320
  8
PATH
 62
     1
 10
3.6887037907304898
 20
2.3046053990305362
 30
0.0
 40
0.0897752959526459
  0
POLYLINE
  5
33D
  8
PATH
 62
     1
 66
     1
 10
0.0
 20
0.0
 30
0.0
  0
VERTEX
  5
503
  8
PATH
 62
     1
 10
1.861566910952505
 20
3.642426100694991
 30
0.0
 42
-1.003588643723345
  0
VERTEX
  5
504
  8
PATH
 62
     1
 10
2.3975721023798919
 20
3.6318634816727622
 30
0.0
 42
0.2909768079990911
  0
VERTEX
  5
505
  8
PATH
 62
     1
 10
2.53734614125367
 20
3.4470755085767202
 30
0.0
  0
SEQEND
  5
506
  8
PATH
 62
     1
  0
POLYLINE
  5
33E
  8
PATH
 62
     1
 66
     1
 10
0.0
 20
0.0
 30
0.0
  0
VERTEX
  5
507
  8
PATH
 62
     1
 10
3.753192629032732
 20
2.1035693318604261
 30
0.0
 42
0.2541203254835767
  0
VERTEX
  5
508
  8
PATH
 62
     1
 10
3.5742185851553629
 20
1.916495806910312
 30
0.0
  0
VERTEX
  5
509
  8
PATH
 62
     1
 10
3.5417882682110151
 20
1.6071283584431151
 30
0.0
 42
0.3924894659088806
  0
VERTEX
  5
50A
  8
PATH
 62
     1
 10
3.7095117459974332
 20
1.331678450407183
 30
0.0
 42
0.3924894659088806
  0
SEQEND
  5
50B
  8
PATH
 62
     1
  0
CIRCLE
  5
346
  8
PATH
 62
     1
 10
2.125430251808019
 20
3.631892865231229
 30
0.0
 40
0.1309647895691031
  0
ARC
  5
364
  8
PATH
 62
     1
 10
7.467588037404262
 20
2.489308244860275
 30
0.0
 40
0.2546271084783243
 50
335.0754937724281035
 51
102.4117551776463984
  0
ARC
  5
36E
  8
PATH
 62
     1
 10
7.3494220121346494
 20
3.035063757784958
 30
0.0
 40
0.3037771440332897
 50
174.182966760555388
 51
282.0537551242101131
  0
ARC
  5
377
  8
PATH
 62
     1
 10
6.6707567914052461
 20
1.8611315248309159
 30
0.0
 40
1.0583344283705149
 50
303.3012990686622743
 51
16.8811721979517699
  0
ARC
  5
379
  8
PATH
 62
     1
 10
6.894614788174187
 20
0.5530718929482356
 30
0.0
 40
0.2497769597592968
 50
287.2047911341393842
 51
18.3158960461541582
  0
ARC
  5
37B
  8
PATH
 62
     1
 10
7.9128488527329042
 20
2.2596326592294109
 30
0.0
 40
0.2468191684590685
 50
150.2783554051302985
 51
201.6783105652581867
  0
ARC
  5
37C
  8
PATH
 62
     1
 10
7.4165391276812196
 20
0.7258425192488993
 30
0.0
 40
0.3
 50
123.3012990686625017
 51
198.3158960461541938
  0
ARC
  5
37D
  8
PATH
 62
     1
 10
6.0691730012709959
 20
0.6287574503461109
 30
0.0
 40
0.107967923699226
 50
179.999999999999801
 51
226.3601206977951108
  0
DIMENSION
  5
388
  8
PATH
 62
     1
  2
*D2
 10
58.500739486976812
 20
193.5218763619552931
 30
0.0
 11
31.3070642568561901
 21
96.6758279582864049
 31
0.0
 70
     4
 15
32.2707962815906626
 25
97.0232231099934666
 35
0.0
 40
0.0
1001
ACAD
1000
DSTYLE
1002
{
1070
   288
1070
     1
1002
}
1001
ACAD_DSTYLE_DIMRADIAL_EXTENSION
1070
   387
1070
     1
1070
   388
1040
0.0
1070
   390
1040
0.0
  0
ARC
  5
3BD
  8
PATH
 62
     1
 10
6.7482933142734893
 20
1.5324205575169121
 30
0.0
 40
1.237695007156185
 50
232.4900492068117899
 51
280.2482427617130725
  0
LINE
  5
3BE
  8
PATH
 62
     1
 10
6.0054410389534612
 20
1.155486301647334
 30
0.0
 11
5.1252590348228759
 21
2.4775243632735742
 31
0.0
  0
LINE
  5
3C1
  8
PATH
 62
     1
 10
5.96120507757177
 20
0.6287574503461109
 30
0.0
 11
6.0446674285485891
 21
0.8959630041601833
 31
0.0
  0
ARC
  5
3C2
  8
PATH
 62
     1
 10
5.80841977397204
 20
0.9929808191080987
 30
0.0
 40
0.2553926598596546
 50
337.673931791784014
 51
39.5162177464773521
  0
ARC
  5
3D3
  8
PATH
 62
     1
 10
5.3089627668496346
 20
2.639114767208429
 30
0.0
 40
0.2446600085923087
 50
61.5581809064760535
 51
221.3356676533448137
  0
ARC
  5
3DC
  8
PATH
 62
     1
 10
5.5683658764014439
 20
3.1180349606797688
 30
0.0
 40
0.3
 50
241.5581809064761956
 51
319.0698422852988756
  0
ARC
  5
3F9
  8
PATH
 62
     1
 10
6.8236992025993004
 20
3.102855719157446
 30
0.0
 40
0.2265523095736869
 50
350.5995772819447893
 51
93.3138075259319351
  0
ARC
  5
3FA
  8
PATH
 62
     1
 10
6.8634660284341162
 20
1.728101097116773
 30
0.0
 40
1.6018006398029601
 50
91.8912176305932462
 51
131.8381760877805107
  0
CIRCLE
  5
3FB
  8
PATH
 62
     1
 10
6.7941556341402238
 20
3.0567987318440819
 30
0.0
 40
0.1188178466002449
  0
CIRCLE
  5
403
  8
PATH
 62
     1
 10
7.4768708349194171
 20
2.4816549393753111
 30
0.0
 40
0.1188178466002449
  0
CIRCLE
  5
40B
  8
PATH
 62
     1
 10
6.6246678350707953
 20
2.3418826736865408
 30
0.0
 40
0.188965383576055
  0
CIRCLE
  5
413
  8
PATH
 62
     1
 10
6.6781850901069442
 20
1.265234322295975
 30
0.0
 40
0.1551281402381397
  0
CIRCLE
  5
41B
  8
PATH
 62
     1
 10
5.313326682315278
 20
2.637179427630564
 30
0.0
 40
0.1188178466002449
  0
CIRCLE
  5
423
  8
PATH
 62
     1
 10
6.8565579636281422
 20
0.8779165615675532
 30
0.0
 40
0.1188178466002449
  0
CIRCLE
  5
42B
  8
PATH
 62
     1
 10
6.8881521132575472
 20
0.5512373148585539
 30
0.0
 40
0.1188178466002449
  0
ENDSEC
  0
EOF
